STARTFONT 2.1
COMMENT
COMMENT Converted from OpenType font "ipaexm.ttf" by "..\otf2bdf.exe 3.0".
COMMENT
FONT -FreeType-IPAexMincho-Medium-R-Normal--8-80-72-72-P-70-ISO10646-1
SIZE 8 72 72
FONTBOUNDINGBOX 11 11 -2 -3
STARTPROPERTIES 19
FOUNDRY "FreeType"
FAMILY_NAME "IPAexMincho"
WEIGHT_NAME "Medium"
SLANT "R"
SETWIDTH_NAME "Normal"
ADD_STYLE_NAME ""
PIXEL_SIZE 8
POINT_SIZE 80
RESOLUTION_X 72
RESOLUTION_Y 72
SPACING "P"
AVERAGE_WIDTH 70
CHARSET_REGISTRY "ISO10646"
CHARSET_ENCODING "1"
FONT_ASCENT 7
FONT_DESCENT 0
COPYRIGHT "Copyright(c) Information-technology Promotion Agency, Japan (IPA), 2003-2019. You must accept "https://opensource.org/licenses/IPA/" to use this product."
_OTF_FONTFILE "ipaexm.ttf"
_OTF_PSNAME "IPAexMincho"
ENDPROPERTIES
CHARS 11691
STARTCHAR 0020
ENCODING 32
SWIDTH 250 0
DWIDTH 2 0
BBX 0 0 0 0
BITMAP
ENDCHAR
STARTCHAR 0021
ENCODING 33
SWIDTH 250 0
DWIDTH 2 0
BBX 1 1 1 5
BITMAP
80
ENDCHAR
STARTCHAR 0022
ENCODING 34
SWIDTH 375 0
DWIDTH 3 0
BBX 0 0 0 3
BITMAP
ENDCHAR
STARTCHAR 0023
ENCODING 35
SWIDTH 625 0
DWIDTH 5 0
BBX 5 6 0 0
BITMAP
10
50
78
60
F0
40
ENDCHAR
STARTCHAR 0024
ENCODING 36
SWIDTH 625 0
DWIDTH 5 0
BBX 5 7 0 -1
BITMAP
20
F8
A0
70
28
A8
70
ENDCHAR
STARTCHAR 0025
ENCODING 37
SWIDTH 750 0
DWIDTH 6 0
BBX 6 6 0 -1
BITMAP
E8
B0
70
2C
4C
4C
ENDCHAR
STARTCHAR 0026
ENCODING 38
SWIDTH 750 0
DWIDTH 6 0
BBX 4 6 1 0
BITMAP
E0
A0
C0
D0
B0
F0
ENDCHAR
STARTCHAR 0027
ENCODING 39
SWIDTH 250 0
DWIDTH 2 0
BBX 0 0 0 3
BITMAP
ENDCHAR
STARTCHAR 0028
ENCODING 40
SWIDTH 375 0
DWIDTH 3 0
BBX 1 6 1 0
BITMAP
80
80
80
80
80
80
ENDCHAR
STARTCHAR 0029
ENCODING 41
SWIDTH 375 0
DWIDTH 3 0
BBX 2 7 0 -1
BITMAP
80
40
40
40
40
40
80
ENDCHAR
STARTCHAR 002A
ENCODING 42
SWIDTH 250 0
DWIDTH 2 0
BBX 2 2 0 4
BITMAP
C0
C0
ENDCHAR
STARTCHAR 002B
ENCODING 43
SWIDTH 625 0
DWIDTH 5 0
BBX 5 5 1 -1
BITMAP
20
20
F8
20
20
ENDCHAR
STARTCHAR 002C
ENCODING 44
SWIDTH 250 0
DWIDTH 2 0
BBX 0 0 0 -1
BITMAP
ENDCHAR
STARTCHAR 002D
ENCODING 45
SWIDTH 250 0
DWIDTH 2 0
BBX 2 1 0 2
BITMAP
C0
ENDCHAR
STARTCHAR 002E
ENCODING 46
SWIDTH 250 0
DWIDTH 2 0
BBX 1 1 1 0
BITMAP
80
ENDCHAR
STARTCHAR 002F
ENCODING 47
SWIDTH 500 0
DWIDTH 4 0
BBX 3 6 0 -2
BITMAP
20
20
20
40
40
80
ENDCHAR
STARTCHAR 0030
ENCODING 48
SWIDTH 625 0
DWIDTH 5 0
BBX 3 6 1 0
BITMAP
60
A0
A0
A0
A0
40
ENDCHAR
STARTCHAR 0031
ENCODING 49
SWIDTH 625 0
DWIDTH 5 0
BBX 2 6 1 0
BITMAP
C0
40
40
40
40
40
ENDCHAR
STARTCHAR 0032
ENCODING 50
SWIDTH 625 0
DWIDTH 5 0
BBX 4 6 0 0
BITMAP
70
50
10
60
80
70
ENDCHAR
STARTCHAR 0033
ENCODING 51
SWIDTH 625 0
DWIDTH 5 0
BBX 3 6 1 0
BITMAP
E0
A0
20
20
A0
E0
ENDCHAR
STARTCHAR 0034
ENCODING 52
SWIDTH 625 0
DWIDTH 5 0
BBX 4 6 0 0
BITMAP
10
30
50
90
70
10
ENDCHAR
STARTCHAR 0035
ENCODING 53
SWIDTH 625 0
DWIDTH 5 0
BBX 4 6 0 0
BITMAP
70
80
B0
50
50
70
ENDCHAR
STARTCHAR 0036
ENCODING 54
SWIDTH 625 0
DWIDTH 5 0
BBX 3 6 1 0
BITMAP
60
80
60
A0
A0
60
ENDCHAR
STARTCHAR 0037
ENCODING 55
SWIDTH 625 0
DWIDTH 5 0
BBX 4 6 1 0
BITMAP
F0
20
20
40
40
40
ENDCHAR
STARTCHAR 0038
ENCODING 56
SWIDTH 625 0
DWIDTH 5 0
BBX 3 6 1 0
BITMAP
E0
A0
C0
A0
A0
E0
ENDCHAR
STARTCHAR 0039
ENCODING 57
SWIDTH 625 0
DWIDTH 5 0
BBX 3 6 1 0
BITMAP
C0
A0
A0
E0
20
C0
ENDCHAR
STARTCHAR 003A
ENCODING 58
SWIDTH 250 0
DWIDTH 2 0
BBX 1 4 1 0
BITMAP
80
00
00
80
ENDCHAR
STARTCHAR 003B
ENCODING 59
SWIDTH 250 0
DWIDTH 2 0
BBX 1 5 1 -1
BITMAP
80
00
00
80
80
ENDCHAR
STARTCHAR 003C
ENCODING 60
SWIDTH 625 0
DWIDTH 5 0
BBX 5 5 0 0
BITMAP
08
30
C0
60
18
ENDCHAR
STARTCHAR 003D
ENCODING 61
SWIDTH 625 0
DWIDTH 5 0
BBX 4 1 1 2
BITMAP
F0
ENDCHAR
STARTCHAR 003E
ENCODING 62
SWIDTH 625 0
DWIDTH 5 0
BBX 3 3 2 1
BITMAP
80
60
C0
ENDCHAR
STARTCHAR 003F
ENCODING 63
SWIDTH 500 0
DWIDTH 4 0
BBX 4 6 0 0
BITMAP
F0
90
10
00
00
40
ENDCHAR
STARTCHAR 0040
ENCODING 64
SWIDTH 875 0
DWIDTH 7 0
BBX 6 6 1 0
BITMAP
78
F4
D4
D4
F8
78
ENDCHAR
STARTCHAR 0041
ENCODING 65
SWIDTH 750 0
DWIDTH 6 0
BBX 5 6 0 0
BITMAP
20
30
50
50
A8
88
ENDCHAR
STARTCHAR 0042
ENCODING 66
SWIDTH 750 0
DWIDTH 6 0
BBX 4 6 1 0
BITMAP
F0
90
90
E0
90
90
ENDCHAR
STARTCHAR 0043
ENCODING 67
SWIDTH 750 0
DWIDTH 6 0
BBX 5 6 0 0
BITMAP
78
C0
80
80
C8
70
ENDCHAR
STARTCHAR 0044
ENCODING 68
SWIDTH 750 0
DWIDTH 6 0
BBX 5 6 1 0
BITMAP
F0
88
88
88
88
90
ENDCHAR
STARTCHAR 0045
ENCODING 69
SWIDTH 750 0
DWIDTH 6 0
BBX 4 6 1 0
BITMAP
F0
80
80
E0
80
80
ENDCHAR
STARTCHAR 0046
ENCODING 70
SWIDTH 625 0
DWIDTH 5 0
BBX 4 6 1 0
BITMAP
F0
80
80
E0
80
80
ENDCHAR
STARTCHAR 0047
ENCODING 71
SWIDTH 750 0
DWIDTH 6 0
BBX 5 6 0 0
BITMAP
78
C0
80
88
C8
70
ENDCHAR
STARTCHAR 0048
ENCODING 72
SWIDTH 875 0
DWIDTH 7 0
BBX 4 6 1 0
BITMAP
90
90
90
F0
90
90
ENDCHAR
STARTCHAR 0049
ENCODING 73
SWIDTH 375 0
DWIDTH 3 0
BBX 1 6 1 0
BITMAP
80
80
80
80
80
80
ENDCHAR
STARTCHAR 004A
ENCODING 74
SWIDTH 500 0
DWIDTH 4 0
BBX 3 6 0 0
BITMAP
20
20
20
20
20
E0
ENDCHAR
STARTCHAR 004B
ENCODING 75
SWIDTH 750 0
DWIDTH 6 0
BBX 4 6 1 0
BITMAP
90
A0
C0
A0
A0
90
ENDCHAR
STARTCHAR 004C
ENCODING 76
SWIDTH 625 0
DWIDTH 5 0
BBX 4 6 1 0
BITMAP
80
80
80
80
80
90
ENDCHAR
STARTCHAR 004D
ENCODING 77
SWIDTH 1000 0
DWIDTH 8 0
BBX 5 6 1 0
BITMAP
88
D8
E8
E8
E8
A8
ENDCHAR
STARTCHAR 004E
ENCODING 78
SWIDTH 875 0
DWIDTH 7 0
BBX 5 6 1 -1
BITMAP
88
C8
A8
A8
98
88
ENDCHAR
STARTCHAR 004F
ENCODING 79
SWIDTH 750 0
DWIDTH 6 0
BBX 6 6 0 0
BITMAP
78
CC
84
84
CC
78
ENDCHAR
STARTCHAR 0050
ENCODING 80
SWIDTH 625 0
DWIDTH 5 0
BBX 4 6 1 0
BITMAP
F0
90
90
E0
80
80
ENDCHAR
STARTCHAR 0051
ENCODING 81
SWIDTH 750 0
DWIDTH 6 0
BBX 6 7 0 -1
BITMAP
78
CC
84
84
B4
78
04
ENDCHAR
STARTCHAR 0052
ENCODING 82
SWIDTH 750 0
DWIDTH 6 0
BBX 4 6 1 0
BITMAP
F0
90
90
E0
90
90
ENDCHAR
STARTCHAR 0053
ENCODING 83
SWIDTH 625 0
DWIDTH 5 0
BBX 3 6 1 1
BITMAP
E0
80
80
60
20
E0
ENDCHAR
STARTCHAR 0054
ENCODING 84
SWIDTH 625 0
DWIDTH 5 0
BBX 5 6 0 0
BITMAP
F8
20
20
20
20
20
ENDCHAR
STARTCHAR 0055
ENCODING 85
SWIDTH 750 0
DWIDTH 6 0
BBX 4 6 1 0
BITMAP
90
90
90
90
90
60
ENDCHAR
STARTCHAR 0056
ENCODING 86
SWIDTH 750 0
DWIDTH 6 0
BBX 5 6 0 0
BITMAP
08
88
50
50
30
20
ENDCHAR
STARTCHAR 0057
ENCODING 87
SWIDTH 1000 0
DWIDTH 8 0
BBX 7 6 0 0
BITMAP
02
92
5C
6C
6C
24
ENDCHAR
STARTCHAR 0058
ENCODING 88
SWIDTH 750 0
DWIDTH 6 0
BBX 4 6 1 0
BITMAP
90
A0
40
60
A0
10
ENDCHAR
STARTCHAR 0059
ENCODING 89
SWIDTH 625 0
DWIDTH 5 0
BBX 5 6 0 0
BITMAP
88
50
50
20
20
20
ENDCHAR
STARTCHAR 005A
ENCODING 90
SWIDTH 625 0
DWIDTH 5 0
BBX 5 7 0 -1
BITMAP
F8
90
20
20
40
88
70
ENDCHAR
STARTCHAR 005B
ENCODING 91
SWIDTH 375 0
DWIDTH 3 0
BBX 2 8 1 -2
BITMAP
C0
80
80
80
80
80
80
C0
ENDCHAR
STARTCHAR 005C
ENCODING 92
SWIDTH 500 0
DWIDTH 4 0
BBX 3 5 0 -1
BITMAP
80
40
40
20
20
ENDCHAR
STARTCHAR 005D
ENCODING 93
SWIDTH 375 0
DWIDTH 3 0
BBX 2 8 0 -2
BITMAP
C0
40
40
40
40
40
40
C0
ENDCHAR
STARTCHAR 005E
ENCODING 94
SWIDTH 500 0
DWIDTH 4 0
BBX 2 1 1 3
BITMAP
C0
ENDCHAR
STARTCHAR 005F
ENCODING 95
SWIDTH 500 0
DWIDTH 4 0
BBX 4 1 0 -1
BITMAP
F0
ENDCHAR
STARTCHAR 0060
ENCODING 96
SWIDTH 500 0
DWIDTH 4 0
BBX 1 1 1 4
BITMAP
80
ENDCHAR
STARTCHAR 0061
ENCODING 97
SWIDTH 500 0
DWIDTH 4 0
BBX 5 4 0 0
BITMAP
70
10
F0
F8
ENDCHAR
STARTCHAR 0062
ENCODING 98
SWIDTH 625 0
DWIDTH 5 0
BBX 4 6 1 -1
BITMAP
80
80
E0
90
90
E0
ENDCHAR
STARTCHAR 0063
ENCODING 99
SWIDTH 500 0
DWIDTH 4 0
BBX 4 4 0 0
BITMAP
70
80
80
70
ENDCHAR
STARTCHAR 0064
ENCODING 100
SWIDTH 625 0
DWIDTH 5 0
BBX 4 6 0 0
BITMAP
10
10
70
90
90
70
ENDCHAR
STARTCHAR 0065
ENCODING 101
SWIDTH 500 0
DWIDTH 4 0
BBX 4 4 0 0
BITMAP
60
90
F0
70
ENDCHAR
STARTCHAR 0066
ENCODING 102
SWIDTH 375 0
DWIDTH 3 0
BBX 4 6 0 0
BITMAP
70
40
E0
40
40
40
ENDCHAR
STARTCHAR 0067
ENCODING 103
SWIDTH 500 0
DWIDTH 4 0
BBX 4 6 0 -2
BITMAP
70
50
70
60
90
F0
ENDCHAR
STARTCHAR 0068
ENCODING 104
SWIDTH 625 0
DWIDTH 5 0
BBX 3 6 1 0
BITMAP
80
80
E0
A0
A0
A0
ENDCHAR
STARTCHAR 0069
ENCODING 105
SWIDTH 250 0
DWIDTH 2 0
BBX 1 6 1 0
BITMAP
80
00
80
80
80
80
ENDCHAR
STARTCHAR 006A
ENCODING 106
SWIDTH 250 0
DWIDTH 2 0
BBX 2 7 0 -1
BITMAP
40
00
40
40
40
40
C0
ENDCHAR
STARTCHAR 006B
ENCODING 107
SWIDTH 625 0
DWIDTH 5 0
BBX 3 6 1 0
BITMAP
80
80
80
E0
A0
80
ENDCHAR
STARTCHAR 006C
ENCODING 108
SWIDTH 250 0
DWIDTH 2 0
BBX 2 6 0 0
BITMAP
C0
40
40
40
40
40
ENDCHAR
STARTCHAR 006D
ENCODING 109
SWIDTH 875 0
DWIDTH 7 0
BBX 5 4 1 0
BITMAP
F8
A8
A8
A8
ENDCHAR
STARTCHAR 006E
ENCODING 110
SWIDTH 625 0
DWIDTH 5 0
BBX 3 4 1 0
BITMAP
E0
A0
A0
A0
ENDCHAR
STARTCHAR 006F
ENCODING 111
SWIDTH 625 0
DWIDTH 5 0
BBX 4 4 0 0
BITMAP
60
90
90
60
ENDCHAR
STARTCHAR 0070
ENCODING 112
SWIDTH 625 0
DWIDTH 5 0
BBX 4 5 1 0
BITMAP
E0
90
90
E0
80
ENDCHAR
STARTCHAR 0071
ENCODING 113
SWIDTH 625 0
DWIDTH 5 0
BBX 4 5 0 0
BITMAP
70
90
90
70
10
ENDCHAR
STARTCHAR 0072
ENCODING 114
SWIDTH 375 0
DWIDTH 3 0
BBX 3 4 1 0
BITMAP
E0
80
80
80
ENDCHAR
STARTCHAR 0073
ENCODING 115
SWIDTH 500 0
DWIDTH 4 0
BBX 2 4 1 0
BITMAP
C0
80
40
C0
ENDCHAR
STARTCHAR 0074
ENCODING 116
SWIDTH 375 0
DWIDTH 3 0
BBX 3 5 0 1
BITMAP
40
E0
40
40
60
ENDCHAR
STARTCHAR 0075
ENCODING 117
SWIDTH 625 0
DWIDTH 5 0
BBX 3 4 1 0
BITMAP
A0
A0
A0
E0
ENDCHAR
STARTCHAR 0076
ENCODING 118
SWIDTH 500 0
DWIDTH 4 0
BBX 4 4 0 0
BITMAP
10
A0
60
20
ENDCHAR
STARTCHAR 0077
ENCODING 119
SWIDTH 750 0
DWIDTH 6 0
BBX 6 4 0 0
BITMAP
04
A8
78
48
ENDCHAR
STARTCHAR 0078
ENCODING 120
SWIDTH 500 0
DWIDTH 4 0
BBX 3 4 1 0
BITMAP
40
C0
C0
20
ENDCHAR
STARTCHAR 0079
ENCODING 121
SWIDTH 500 0
DWIDTH 4 0
BBX 3 5 1 -1
BITMAP
20
C0
40
40
80
ENDCHAR
STARTCHAR 007A
ENCODING 122
SWIDTH 500 0
DWIDTH 4 0
BBX 3 4 0 0
BITMAP
E0
A0
C0
E0
ENDCHAR
STARTCHAR 007B
ENCODING 123
SWIDTH 375 0
DWIDTH 3 0
BBX 3 8 0 -1
BITMAP
40
40
40
80
40
40
40
20
ENDCHAR
STARTCHAR 007C
ENCODING 124
SWIDTH 250 0
DWIDTH 2 0
BBX 1 7 1 -2
BITMAP
80
80
80
80
80
80
80
ENDCHAR
STARTCHAR 007D
ENCODING 125
SWIDTH 375 0
DWIDTH 3 0
BBX 2 8 0 -1
BITMAP
40
40
40
40
40
40
40
80
ENDCHAR
STARTCHAR 007E
ENCODING 126
SWIDTH 500 0
DWIDTH 4 0
BBX 2 1 1 5
BITMAP
C0
ENDCHAR
STARTCHAR 00A0
ENCODING 160
SWIDTH 250 0
DWIDTH 2 0
BBX 0 0 0 0
BITMAP
ENDCHAR
STARTCHAR 00A1
ENCODING 161
SWIDTH 250 0
DWIDTH 2 0
BBX 1 1 1 0
BITMAP
80
ENDCHAR
STARTCHAR 00A2
ENCODING 162
SWIDTH 500 0
DWIDTH 4 0
BBX 3 5 1 2
BITMAP
E0
80
80
60
80
ENDCHAR
STARTCHAR 00A3
ENCODING 163
SWIDTH 750 0
DWIDTH 6 0
BBX 4 7 1 -1
BITMAP
70
50
40
E0
40
C0
F0
ENDCHAR
STARTCHAR 00A4
ENCODING 164
SWIDTH 625 0
DWIDTH 5 0
BBX 3 3 1 1
BITMAP
E0
A0
E0
ENDCHAR
STARTCHAR 00A5
ENCODING 165
SWIDTH 625 0
DWIDTH 5 0
BBX 5 6 0 0
BITMAP
88
50
60
F8
F8
20
ENDCHAR
STARTCHAR 00A6
ENCODING 166
SWIDTH 250 0
DWIDTH 2 0
BBX 1 7 1 -2
BITMAP
80
80
80
00
80
80
80
ENDCHAR
STARTCHAR 00A7
ENCODING 167
SWIDTH 625 0
DWIDTH 5 0
BBX 3 7 1 0
BITMAP
E0
80
C0
A0
60
A0
E0
ENDCHAR
STARTCHAR 00A8
ENCODING 168
SWIDTH 500 0
DWIDTH 4 0
BBX 2 1 1 5
BITMAP
C0
ENDCHAR
STARTCHAR 00A9
ENCODING 169
SWIDTH 1000 0
DWIDTH 8 0
BBX 7 6 1 0
BITMAP
38
FE
C2
C2
FE
38
ENDCHAR
STARTCHAR 00AA
ENCODING 170
SWIDTH 375 0
DWIDTH 3 0
BBX 2 4 1 2
BITMAP
C0
C0
C0
C0
ENDCHAR
STARTCHAR 00AB
ENCODING 171
SWIDTH 500 0
DWIDTH 4 0
BBX 3 3 0 1
BITMAP
40
A0
40
ENDCHAR
STARTCHAR 00AC
ENCODING 172
SWIDTH 625 0
DWIDTH 5 0
BBX 5 2 0 0
BITMAP
F8
08
ENDCHAR
STARTCHAR 00AD
ENCODING 173
SWIDTH 625 0
DWIDTH 5 0
BBX 4 1 1 2
BITMAP
F0
ENDCHAR
STARTCHAR 00AE
ENCODING 174
SWIDTH 1000 0
DWIDTH 8 0
BBX 7 6 1 0
BITMAP
38
EE
AA
BA
E6
38
ENDCHAR
STARTCHAR 00AF
ENCODING 175
SWIDTH 500 0
DWIDTH 4 0
BBX 2 1 1 4
BITMAP
C0
ENDCHAR
STARTCHAR 00B0
ENCODING 176
SWIDTH 250 0
DWIDTH 2 0
BBX 2 2 0 5
BITMAP
C0
C0
ENDCHAR
STARTCHAR 00B1
ENCODING 177
SWIDTH 625 0
DWIDTH 5 0
BBX 5 4 1 1
BITMAP
20
20
F8
F8
ENDCHAR
STARTCHAR 00B2
ENCODING 178
SWIDTH 375 0
DWIDTH 3 0
BBX 2 4 0 2
BITMAP
C0
40
80
C0
ENDCHAR
STARTCHAR 00B3
ENCODING 179
SWIDTH 375 0
DWIDTH 3 0
BBX 3 3 0 3
BITMAP
40
40
E0
ENDCHAR
STARTCHAR 00B4
ENCODING 180
SWIDTH 500 0
DWIDTH 4 0
BBX 1 1 2 4
BITMAP
80
ENDCHAR
STARTCHAR 00B6
ENCODING 182
SWIDTH 1000 0
DWIDTH 8 0
BBX 3 8 2 -1
BITMAP
E0
E0
E0
60
60
60
60
60
ENDCHAR
STARTCHAR 00B7
ENCODING 183
SWIDTH 250 0
DWIDTH 2 0
BBX 1 1 1 2
BITMAP
80
ENDCHAR
STARTCHAR 00B8
ENCODING 184
SWIDTH 500 0
DWIDTH 4 0
BBX 2 2 1 -1
BITMAP
80
40
ENDCHAR
STARTCHAR 00B9
ENCODING 185
SWIDTH 375 0
DWIDTH 3 0
BBX 1 3 1 3
BITMAP
80
80
80
ENDCHAR
STARTCHAR 00BA
ENCODING 186
SWIDTH 375 0
DWIDTH 3 0
BBX 3 4 0 2
BITMAP
E0
A0
E0
E0
ENDCHAR
STARTCHAR 00BB
ENCODING 187
SWIDTH 500 0
DWIDTH 4 0
BBX 2 3 1 1
BITMAP
40
C0
40
ENDCHAR
STARTCHAR 00BC
ENCODING 188
SWIDTH 750 0
DWIDTH 6 0
BBX 6 6 0 -1
BITMAP
C8
50
50
28
5C
08
ENDCHAR
STARTCHAR 00BD
ENCODING 189
SWIDTH 750 0
DWIDTH 6 0
BBX 6 6 0 -1
BITMAP
C0
48
50
2C
48
0C
ENDCHAR
STARTCHAR 00BE
ENCODING 190
SWIDTH 750 0
DWIDTH 6 0
BBX 6 6 0 -1
BITMAP
C8
90
E0
78
5C
08
ENDCHAR
STARTCHAR 00BF
ENCODING 191
SWIDTH 500 0
DWIDTH 4 0
BBX 4 6 0 0
BITMAP
20
00
00
80
90
F0
ENDCHAR
STARTCHAR 00C0
ENCODING 192
SWIDTH 750 0
DWIDTH 6 0
BBX 4 7 1 1
BITMAP
40
00
60
A0
A0
F0
10
ENDCHAR
STARTCHAR 00C1
ENCODING 193
SWIDTH 750 0
DWIDTH 6 0
BBX 4 5 1 3
BITMAP
60
A0
A0
F0
10
ENDCHAR
STARTCHAR 00C2
ENCODING 194
SWIDTH 750 0
DWIDTH 6 0
BBX 4 7 1 0
BITMAP
40
00
40
A0
A0
F0
10
ENDCHAR
STARTCHAR 00C3
ENCODING 195
SWIDTH 750 0
DWIDTH 6 0
BBX 4 7 1 0
BITMAP
60
00
40
A0
A0
F0
10
ENDCHAR
STARTCHAR 00C4
ENCODING 196
SWIDTH 750 0
DWIDTH 6 0
BBX 4 7 1 0
BITMAP
60
00
40
A0
A0
F0
10
ENDCHAR
STARTCHAR 00C5
ENCODING 197
SWIDTH 750 0
DWIDTH 6 0
BBX 4 7 1 1
BITMAP
60
00
60
A0
A0
F0
10
ENDCHAR
STARTCHAR 00C6
ENCODING 198
SWIDTH 1000 0
DWIDTH 8 0
BBX 7 6 0 0
BITMAP
3E
50
50
7C
90
90
ENDCHAR
STARTCHAR 00C7
ENCODING 199
SWIDTH 750 0
DWIDTH 6 0
BBX 5 8 0 -2
BITMAP
78
C0
80
80
C8
70
30
30
ENDCHAR
STARTCHAR 00C8
ENCODING 200
SWIDTH 750 0
DWIDTH 6 0
BBX 4 7 1 1
BITMAP
40
F0
80
80
E0
80
80
ENDCHAR
STARTCHAR 00C9
ENCODING 201
SWIDTH 750 0
DWIDTH 6 0
BBX 4 7 1 1
BITMAP
20
D0
80
80
E0
80
80
ENDCHAR
STARTCHAR 00CA
ENCODING 202
SWIDTH 750 0
DWIDTH 6 0
BBX 4 7 1 1
BITMAP
20
F0
80
80
E0
80
80
ENDCHAR
STARTCHAR 00CB
ENCODING 203
SWIDTH 750 0
DWIDTH 6 0
BBX 4 8 1 0
BITMAP
50
00
F0
80
80
E0
80
80
ENDCHAR
STARTCHAR 00CC
ENCODING 204
SWIDTH 375 0
DWIDTH 3 0
BBX 2 7 0 1
BITMAP
C0
40
40
40
40
40
40
ENDCHAR
STARTCHAR 00CD
ENCODING 205
SWIDTH 375 0
DWIDTH 3 0
BBX 1 7 1 1
BITMAP
80
80
80
80
80
80
80
ENDCHAR
STARTCHAR 00CE
ENCODING 206
SWIDTH 375 0
DWIDTH 3 0
BBX 1 8 1 0
BITMAP
80
00
80
80
80
80
80
80
ENDCHAR
STARTCHAR 00CF
ENCODING 207
SWIDTH 375 0
DWIDTH 3 0
BBX 3 8 0 0
BITMAP
A0
00
40
40
40
40
40
40
ENDCHAR
STARTCHAR 00D0
ENCODING 208
SWIDTH 750 0
DWIDTH 6 0
BBX 6 6 0 0
BITMAP
78
44
44
E4
44
48
ENDCHAR
STARTCHAR 00D1
ENCODING 209
SWIDTH 875 0
DWIDTH 7 0
BBX 5 8 1 -1
BITMAP
20
40
88
C8
A8
A8
98
88
ENDCHAR
STARTCHAR 00D2
ENCODING 210
SWIDTH 750 0
DWIDTH 6 0
BBX 6 7 0 1
BITMAP
20
78
8C
84
84
CC
78
ENDCHAR
STARTCHAR 00D3
ENCODING 211
SWIDTH 750 0
DWIDTH 6 0
BBX 6 7 0 1
BITMAP
10
78
8C
84
84
CC
78
ENDCHAR
STARTCHAR 00D4
ENCODING 212
SWIDTH 750 0
DWIDTH 6 0
BBX 6 7 0 1
BITMAP
10
78
8C
84
84
CC
78
ENDCHAR
STARTCHAR 00D5
ENCODING 213
SWIDTH 750 0
DWIDTH 6 0
BBX 6 8 0 0
BITMAP
10
20
78
8C
84
84
CC
78
ENDCHAR
STARTCHAR 00D6
ENCODING 214
SWIDTH 750 0
DWIDTH 6 0
BBX 6 8 0 0
BITMAP
28
00
78
8C
84
84
CC
78
ENDCHAR
STARTCHAR 00D7
ENCODING 215
SWIDTH 625 0
DWIDTH 5 0
BBX 3 3 1 1
BITMAP
A0
40
A0
ENDCHAR
STARTCHAR 00D8
ENCODING 216
SWIDTH 750 0
DWIDTH 6 0
BBX 6 6 0 -1
BITMAP
78
CC
94
A4
CC
78
ENDCHAR
STARTCHAR 00D9
ENCODING 217
SWIDTH 750 0
DWIDTH 6 0
BBX 4 6 1 2
BITMAP
90
90
90
90
90
60
ENDCHAR
STARTCHAR 00DA
ENCODING 218
SWIDTH 750 0
DWIDTH 6 0
BBX 4 6 1 2
BITMAP
90
90
90
90
90
60
ENDCHAR
STARTCHAR 00DB
ENCODING 219
SWIDTH 750 0
DWIDTH 6 0
BBX 4 6 1 2
BITMAP
90
90
90
90
90
60
ENDCHAR
STARTCHAR 00DC
ENCODING 220
SWIDTH 750 0
DWIDTH 6 0
BBX 4 8 1 0
BITMAP
60
00
90
90
90
90
90
60
ENDCHAR
STARTCHAR 00DD
ENCODING 221
SWIDTH 625 0
DWIDTH 5 0
BBX 5 6 0 2
BITMAP
88
50
50
20
20
20
ENDCHAR
STARTCHAR 00DE
ENCODING 222
SWIDTH 625 0
DWIDTH 5 0
BBX 4 6 1 0
BITMAP
80
E0
90
90
A0
C0
ENDCHAR
STARTCHAR 00DF
ENCODING 223
SWIDTH 500 0
DWIDTH 4 0
BBX 4 6 1 0
BITMAP
E0
A0
C0
B0
90
B0
ENDCHAR
STARTCHAR 00E0
ENCODING 224
SWIDTH 500 0
DWIDTH 4 0
BBX 5 6 0 0
BITMAP
40
00
70
10
F0
F8
ENDCHAR
STARTCHAR 00E1
ENCODING 225
SWIDTH 500 0
DWIDTH 4 0
BBX 5 6 0 0
BITMAP
20
00
70
10
F0
F8
ENDCHAR
STARTCHAR 00E2
ENCODING 226
SWIDTH 500 0
DWIDTH 4 0
BBX 5 4 0 2
BITMAP
70
10
F0
F8
ENDCHAR
STARTCHAR 00E3
ENCODING 227
SWIDTH 500 0
DWIDTH 4 0
BBX 5 6 0 0
BITMAP
60
00
70
10
F0
F8
ENDCHAR
STARTCHAR 00E4
ENCODING 228
SWIDTH 500 0
DWIDTH 4 0
BBX 5 6 0 0
BITMAP
60
00
70
10
F0
F8
ENDCHAR
STARTCHAR 00E5
ENCODING 229
SWIDTH 500 0
DWIDTH 4 0
BBX 5 6 0 0
BITMAP
60
00
70
10
F0
F8
ENDCHAR
STARTCHAR 00E6
ENCODING 230
SWIDTH 875 0
DWIDTH 7 0
BBX 6 4 0 0
BITMAP
6C
14
FC
FC
ENDCHAR
STARTCHAR 00E7
ENCODING 231
SWIDTH 500 0
DWIDTH 4 0
BBX 4 6 0 -2
BITMAP
70
80
80
50
20
20
ENDCHAR
STARTCHAR 00E8
ENCODING 232
SWIDTH 500 0
DWIDTH 4 0
BBX 4 6 0 0
BITMAP
40
00
60
90
F0
70
ENDCHAR
STARTCHAR 00E9
ENCODING 233
SWIDTH 500 0
DWIDTH 4 0
BBX 4 4 0 2
BITMAP
60
90
F0
70
ENDCHAR
STARTCHAR 00EA
ENCODING 234
SWIDTH 500 0
DWIDTH 4 0
BBX 4 6 0 0
BITMAP
20
00
60
90
F0
70
ENDCHAR
STARTCHAR 00EB
ENCODING 235
SWIDTH 500 0
DWIDTH 4 0
BBX 4 6 0 0
BITMAP
50
00
60
90
F0
70
ENDCHAR
STARTCHAR 00EC
ENCODING 236
SWIDTH 250 0
DWIDTH 2 0
BBX 2 6 0 0
BITMAP
80
00
40
40
40
40
ENDCHAR
STARTCHAR 00ED
ENCODING 237
SWIDTH 250 0
DWIDTH 2 0
BBX 2 6 1 0
BITMAP
40
00
80
80
80
80
ENDCHAR
STARTCHAR 00EE
ENCODING 238
SWIDTH 250 0
DWIDTH 2 0
BBX 1 6 1 0
BITMAP
80
00
80
80
80
80
ENDCHAR
STARTCHAR 00EF
ENCODING 239
SWIDTH 250 0
DWIDTH 2 0
BBX 3 6 0 0
BITMAP
A0
00
40
40
40
40
ENDCHAR
STARTCHAR 00F0
ENCODING 240
SWIDTH 625 0
DWIDTH 5 0
BBX 4 6 0 0
BITMAP
20
20
70
90
90
60
ENDCHAR
STARTCHAR 00F1
ENCODING 241
SWIDTH 625 0
DWIDTH 5 0
BBX 3 6 1 0
BITMAP
40
00
E0
A0
A0
A0
ENDCHAR
STARTCHAR 00F2
ENCODING 242
SWIDTH 625 0
DWIDTH 5 0
BBX 4 6 0 0
BITMAP
40
00
60
90
90
60
ENDCHAR
STARTCHAR 00F3
ENCODING 243
SWIDTH 625 0
DWIDTH 5 0
BBX 4 4 0 2
BITMAP
60
90
90
60
ENDCHAR
STARTCHAR 00F4
ENCODING 244
SWIDTH 625 0
DWIDTH 5 0
BBX 4 6 0 0
BITMAP
20
00
60
90
90
60
ENDCHAR
STARTCHAR 00F5
ENCODING 245
SWIDTH 625 0
DWIDTH 5 0
BBX 4 6 0 0
BITMAP
60
00
60
90
90
60
ENDCHAR
STARTCHAR 00F6
ENCODING 246
SWIDTH 625 0
DWIDTH 5 0
BBX 4 6 0 0
BITMAP
50
00
60
90
90
60
ENDCHAR
STARTCHAR 00F7
ENCODING 247
SWIDTH 625 0
DWIDTH 5 0
BBX 4 4 1 0
BITMAP
40
F0
00
40
ENDCHAR
STARTCHAR 00F8
ENCODING 248
SWIDTH 625 0
DWIDTH 5 0
BBX 4 4 0 -1
BITMAP
70
B0
D0
60
ENDCHAR
STARTCHAR 00F9
ENCODING 249
SWIDTH 625 0
DWIDTH 5 0
BBX 3 4 1 2
BITMAP
A0
A0
A0
E0
ENDCHAR
STARTCHAR 00FA
ENCODING 250
SWIDTH 625 0
DWIDTH 5 0
BBX 3 4 1 2
BITMAP
A0
A0
A0
E0
ENDCHAR
STARTCHAR 00FB
ENCODING 251
SWIDTH 625 0
DWIDTH 5 0
BBX 3 6 1 0
BITMAP
40
00
A0
A0
A0
E0
ENDCHAR
STARTCHAR 00FC
ENCODING 252
SWIDTH 625 0
DWIDTH 5 0
BBX 3 6 1 0
BITMAP
60
00
A0
A0
A0
E0
ENDCHAR
STARTCHAR 00FD
ENCODING 253
SWIDTH 500 0
DWIDTH 4 0
BBX 3 7 1 -1
BITMAP
40
00
20
C0
40
40
80
ENDCHAR
STARTCHAR 00FE
ENCODING 254
SWIDTH 625 0
DWIDTH 5 0
BBX 4 7 1 -1
BITMAP
80
80
E0
90
90
E0
80
ENDCHAR
STARTCHAR 00FF
ENCODING 255
SWIDTH 500 0
DWIDTH 4 0
BBX 3 7 1 -1
BITMAP
A0
00
20
C0
40
40
80
ENDCHAR
STARTCHAR 0100
ENCODING 256
SWIDTH 750 0
DWIDTH 6 0
BBX 4 7 1 0
BITMAP
60
00
40
A0
A0
F0
10
ENDCHAR
STARTCHAR 0101
ENCODING 257
SWIDTH 500 0
DWIDTH 4 0
BBX 5 5 0 0
BITMAP
60
70
10
F0
F8
ENDCHAR
STARTCHAR 0102
ENCODING 258
SWIDTH 750 0
DWIDTH 6 0
BBX 4 7 1 0
BITMAP
60
00
40
A0
A0
F0
10
ENDCHAR
STARTCHAR 0103
ENCODING 259
SWIDTH 500 0
DWIDTH 4 0
BBX 5 6 0 0
BITMAP
60
00
70
10
F0
F8
ENDCHAR
STARTCHAR 0104
ENCODING 260
SWIDTH 750 0
DWIDTH 6 0
BBX 4 7 1 -1
BITMAP
40
A0
A0
F0
10
10
10
ENDCHAR
STARTCHAR 0105
ENCODING 261
SWIDTH 500 0
DWIDTH 4 0
BBX 5 6 0 -2
BITMAP
70
10
F0
F0
20
38
ENDCHAR
STARTCHAR 0106
ENCODING 262
SWIDTH 750 0
DWIDTH 6 0
BBX 5 6 0 2
BITMAP
78
C0
80
80
C8
70
ENDCHAR
STARTCHAR 0107
ENCODING 263
SWIDTH 500 0
DWIDTH 4 0
BBX 4 4 0 2
BITMAP
70
80
80
70
ENDCHAR
STARTCHAR 0108
ENCODING 264
SWIDTH 750 0
DWIDTH 6 0
BBX 5 6 0 2
BITMAP
78
C0
80
80
C8
70
ENDCHAR
STARTCHAR 0109
ENCODING 265
SWIDTH 500 0
DWIDTH 4 0
BBX 4 6 0 0
BITMAP
20
00
70
80
80
70
ENDCHAR
STARTCHAR 010C
ENCODING 268
SWIDTH 750 0
DWIDTH 6 0
BBX 5 7 0 1
BITMAP
20
78
C0
80
80
C8
70
ENDCHAR
STARTCHAR 010D
ENCODING 269
SWIDTH 500 0
DWIDTH 4 0
BBX 4 6 0 1
BITMAP
60
00
70
80
80
70
ENDCHAR
STARTCHAR 010E
ENCODING 270
SWIDTH 750 0
DWIDTH 6 0
BBX 5 7 1 1
BITMAP
60
D0
88
88
88
88
90
ENDCHAR
STARTCHAR 010F
ENCODING 271
SWIDTH 625 0
DWIDTH 5 0
BBX 5 6 0 0
BITMAP
30
18
70
90
90
70
ENDCHAR
STARTCHAR 0111
ENCODING 273
SWIDTH 625 0
DWIDTH 5 0
BBX 4 6 0 1
BITMAP
10
30
70
90
90
70
ENDCHAR
STARTCHAR 0112
ENCODING 274
SWIDTH 750 0
DWIDTH 6 0
BBX 4 7 1 0
BITMAP
60
90
80
80
E0
80
80
ENDCHAR
STARTCHAR 0113
ENCODING 275
SWIDTH 500 0
DWIDTH 4 0
BBX 4 5 0 0
BITMAP
60
60
90
F0
70
ENDCHAR
STARTCHAR 0118
ENCODING 280
SWIDTH 750 0
DWIDTH 6 0
BBX 4 8 1 -2
BITMAP
F0
80
80
E0
80
80
60
60
ENDCHAR
STARTCHAR 0119
ENCODING 281
SWIDTH 500 0
DWIDTH 4 0
BBX 4 7 0 -3
BITMAP
60
90
F0
80
90
60
60
ENDCHAR
STARTCHAR 011A
ENCODING 282
SWIDTH 750 0
DWIDTH 6 0
BBX 4 7 1 1
BITMAP
60
F0
80
80
E0
80
80
ENDCHAR
STARTCHAR 011B
ENCODING 283
SWIDTH 500 0
DWIDTH 4 0
BBX 4 6 0 1
BITMAP
20
00
60
90
F0
70
ENDCHAR
STARTCHAR 011C
ENCODING 284
SWIDTH 750 0
DWIDTH 6 0
BBX 5 6 0 2
BITMAP
78
C0
80
88
C8
70
ENDCHAR
STARTCHAR 011D
ENCODING 285
SWIDTH 500 0
DWIDTH 4 0
BBX 4 6 0 0
BITMAP
70
50
70
60
90
F0
ENDCHAR
STARTCHAR 0124
ENCODING 292
SWIDTH 875 0
DWIDTH 7 0
BBX 4 6 1 2
BITMAP
90
90
90
F0
90
90
ENDCHAR
STARTCHAR 0125
ENCODING 293
SWIDTH 625 0
DWIDTH 5 0
BBX 4 7 0 1
BITMAP
40
C0
40
70
50
50
50
ENDCHAR
STARTCHAR 0127
ENCODING 295
SWIDTH 625 0
DWIDTH 5 0
BBX 4 6 0 1
BITMAP
40
C0
70
50
50
50
ENDCHAR
STARTCHAR 012A
ENCODING 298
SWIDTH 375 0
DWIDTH 3 0
BBX 3 7 0 0
BITMAP
E0
40
40
40
40
40
40
ENDCHAR
STARTCHAR 012B
ENCODING 299
SWIDTH 250 0
DWIDTH 2 0
BBX 3 5 0 0
BITMAP
E0
00
40
40
40
ENDCHAR
STARTCHAR 0134
ENCODING 308
SWIDTH 500 0
DWIDTH 4 0
BBX 3 8 0 0
BITMAP
20
00
20
20
20
20
20
E0
ENDCHAR
STARTCHAR 0135
ENCODING 309
SWIDTH 250 0
DWIDTH 2 0
BBX 2 8 0 -2
BITMAP
40
00
40
40
40
40
40
C0
ENDCHAR
STARTCHAR 0139
ENCODING 313
SWIDTH 625 0
DWIDTH 5 0
BBX 4 7 1 1
BITMAP
80
80
80
80
80
80
90
ENDCHAR
STARTCHAR 013A
ENCODING 314
SWIDTH 250 0
DWIDTH 2 0
BBX 2 7 0 1
BITMAP
40
C0
40
40
40
40
40
ENDCHAR
STARTCHAR 013D
ENCODING 317
SWIDTH 625 0
DWIDTH 5 0
BBX 4 6 1 0
BITMAP
A0
80
80
80
80
90
ENDCHAR
STARTCHAR 013E
ENCODING 318
SWIDTH 375 0
DWIDTH 3 0
BBX 3 6 0 0
BITMAP
C0
60
40
40
40
40
ENDCHAR
STARTCHAR 0141
ENCODING 321
SWIDTH 625 0
DWIDTH 5 0
BBX 4 6 1 0
BITMAP
80
80
C0
80
80
90
ENDCHAR
STARTCHAR 0142
ENCODING 322
SWIDTH 250 0
DWIDTH 2 0
BBX 3 6 0 0
BITMAP
40
40
60
C0
40
40
ENDCHAR
STARTCHAR 0143
ENCODING 323
SWIDTH 875 0
DWIDTH 7 0
BBX 5 7 1 1
BITMAP
20
88
C8
A8
A8
98
88
ENDCHAR
STARTCHAR 0144
ENCODING 324
SWIDTH 625 0
DWIDTH 5 0
BBX 3 4 1 2
BITMAP
E0
A0
A0
A0
ENDCHAR
STARTCHAR 0147
ENCODING 327
SWIDTH 875 0
DWIDTH 7 0
BBX 5 7 1 1
BITMAP
20
88
C8
A8
A8
98
88
ENDCHAR
STARTCHAR 0148
ENCODING 328
SWIDTH 625 0
DWIDTH 5 0
BBX 3 4 1 3
BITMAP
E0
A0
A0
A0
ENDCHAR
STARTCHAR 014B
ENCODING 331
SWIDTH 625 0
DWIDTH 5 0
BBX 3 6 1 -1
BITMAP
E0
A0
A0
A0
20
60
ENDCHAR
STARTCHAR 014C
ENCODING 332
SWIDTH 750 0
DWIDTH 6 0
BBX 6 7 0 0
BITMAP
30
78
8C
84
84
CC
78
ENDCHAR
STARTCHAR 014D
ENCODING 333
SWIDTH 625 0
DWIDTH 5 0
BBX 4 5 0 0
BITMAP
60
60
90
90
60
ENDCHAR
STARTCHAR 0150
ENCODING 336
SWIDTH 750 0
DWIDTH 6 0
BBX 6 6 0 2
BITMAP
78
8C
84
84
CC
78
ENDCHAR
STARTCHAR 0151
ENCODING 337
SWIDTH 625 0
DWIDTH 5 0
BBX 4 6 0 0
BITMAP
10
00
60
90
90
60
ENDCHAR
STARTCHAR 0152
ENCODING 338
SWIDTH 1000 0
DWIDTH 8 0
BBX 8 6 0 0
BITMAP
7F
88
88
8E
88
48
ENDCHAR
STARTCHAR 0153
ENCODING 339
SWIDTH 875 0
DWIDTH 7 0
BBX 7 4 0 0
BITMAP
6C
92
9E
7E
ENDCHAR
STARTCHAR 0154
ENCODING 340
SWIDTH 750 0
DWIDTH 6 0
BBX 4 6 1 2
BITMAP
F0
90
90
E0
90
90
ENDCHAR
STARTCHAR 0155
ENCODING 341
SWIDTH 375 0
DWIDTH 3 0
BBX 3 6 1 0
BITMAP
40
00
E0
80
80
80
ENDCHAR
STARTCHAR 0158
ENCODING 344
SWIDTH 750 0
DWIDTH 6 0
BBX 4 7 1 1
BITMAP
40
F0
90
90
E0
90
90
ENDCHAR
STARTCHAR 0159
ENCODING 345
SWIDTH 375 0
DWIDTH 3 0
BBX 3 6 1 1
BITMAP
C0
00
E0
80
80
80
ENDCHAR
STARTCHAR 015A
ENCODING 346
SWIDTH 625 0
DWIDTH 5 0
BBX 3 7 1 1
BITMAP
40
E0
80
80
60
20
E0
ENDCHAR
STARTCHAR 015B
ENCODING 347
SWIDTH 500 0
DWIDTH 4 0
BBX 2 6 1 0
BITMAP
40
00
C0
80
40
C0
ENDCHAR
STARTCHAR 015C
ENCODING 348
SWIDTH 625 0
DWIDTH 5 0
BBX 3 8 1 0
BITMAP
40
00
E0
80
80
60
20
E0
ENDCHAR
STARTCHAR 015D
ENCODING 349
SWIDTH 500 0
DWIDTH 4 0
BBX 2 4 1 2
BITMAP
C0
80
40
C0
ENDCHAR
STARTCHAR 015E
ENCODING 350
SWIDTH 625 0
DWIDTH 5 0
BBX 3 8 1 -1
BITMAP
E0
80
80
60
20
E0
40
40
ENDCHAR
STARTCHAR 015F
ENCODING 351
SWIDTH 500 0
DWIDTH 4 0
BBX 2 6 1 -1
BITMAP
C0
80
40
C0
00
80
ENDCHAR
STARTCHAR 0160
ENCODING 352
SWIDTH 625 0
DWIDTH 5 0
BBX 3 7 1 1
BITMAP
40
E0
80
80
60
20
E0
ENDCHAR
STARTCHAR 0161
ENCODING 353
SWIDTH 500 0
DWIDTH 4 0
BBX 2 6 1 0
BITMAP
80
00
C0
80
40
C0
ENDCHAR
STARTCHAR 0162
ENCODING 354
SWIDTH 625 0
DWIDTH 5 0
BBX 5 8 0 -2
BITMAP
F8
20
20
20
20
20
20
20
ENDCHAR
STARTCHAR 0163
ENCODING 355
SWIDTH 375 0
DWIDTH 3 0
BBX 3 7 0 -1
BITMAP
40
E0
40
40
60
20
20
ENDCHAR
STARTCHAR 0164
ENCODING 356
SWIDTH 625 0
DWIDTH 5 0
BBX 5 7 0 1
BITMAP
60
F8
20
20
20
20
20
ENDCHAR
STARTCHAR 0165
ENCODING 357
SWIDTH 375 0
DWIDTH 3 0
BBX 3 5 0 1
BITMAP
40
E0
40
40
60
ENDCHAR
STARTCHAR 016A
ENCODING 362
SWIDTH 750 0
DWIDTH 6 0
BBX 4 7 1 0
BITMAP
60
90
90
90
90
90
60
ENDCHAR
STARTCHAR 016B
ENCODING 363
SWIDTH 625 0
DWIDTH 5 0
BBX 3 5 1 0
BITMAP
40
00
A0
A0
E0
ENDCHAR
STARTCHAR 016C
ENCODING 364
SWIDTH 750 0
DWIDTH 6 0
BBX 4 8 1 0
BITMAP
40
00
90
90
90
90
90
60
ENDCHAR
STARTCHAR 016D
ENCODING 365
SWIDTH 625 0
DWIDTH 5 0
BBX 3 6 1 0
BITMAP
40
00
A0
A0
A0
E0
ENDCHAR
STARTCHAR 016E
ENCODING 366
SWIDTH 750 0
DWIDTH 6 0
BBX 4 7 1 1
BITMAP
60
90
90
90
90
90
60
ENDCHAR
STARTCHAR 016F
ENCODING 367
SWIDTH 625 0
DWIDTH 5 0
BBX 3 6 1 0
BITMAP
C0
00
A0
A0
A0
E0
ENDCHAR
STARTCHAR 0170
ENCODING 368
SWIDTH 750 0
DWIDTH 6 0
BBX 4 6 1 2
BITMAP
90
90
90
90
90
60
ENDCHAR
STARTCHAR 0171
ENCODING 369
SWIDTH 625 0
DWIDTH 5 0
BBX 3 6 1 0
BITMAP
40
00
A0
A0
A0
E0
ENDCHAR
STARTCHAR 0179
ENCODING 377
SWIDTH 625 0
DWIDTH 5 0
BBX 5 7 0 1
BITMAP
20
F8
90
20
40
88
F8
ENDCHAR
STARTCHAR 017A
ENCODING 378
SWIDTH 500 0
DWIDTH 4 0
BBX 3 6 0 0
BITMAP
20
00
E0
A0
C0
E0
ENDCHAR
STARTCHAR 017B
ENCODING 379
SWIDTH 625 0
DWIDTH 5 0
BBX 5 8 0 0
BITMAP
20
00
F8
90
20
40
88
F8
ENDCHAR
STARTCHAR 017C
ENCODING 380
SWIDTH 500 0
DWIDTH 4 0
BBX 3 6 0 0
BITMAP
20
00
E0
A0
C0
E0
ENDCHAR
STARTCHAR 017D
ENCODING 381
SWIDTH 625 0
DWIDTH 5 0
BBX 5 7 0 1
BITMAP
20
F8
90
20
40
88
F8
ENDCHAR
STARTCHAR 017E
ENCODING 382
SWIDTH 500 0
DWIDTH 4 0
BBX 3 6 0 1
BITMAP
60
00
E0
A0
C0
E0
ENDCHAR
STARTCHAR 0193
ENCODING 403
SWIDTH 750 0
DWIDTH 6 0
BBX 6 7 0 0
BITMAP
0C
78
C0
80
88
C8
70
ENDCHAR
STARTCHAR 01C2
ENCODING 450
SWIDTH 500 0
DWIDTH 4 0
BBX 3 6 1 -1
BITMAP
40
40
E0
E0
40
40
ENDCHAR
STARTCHAR 01CD
ENCODING 461
SWIDTH 750 0
DWIDTH 6 0
BBX 4 7 1 0
BITMAP
60
00
40
A0
A0
F0
10
ENDCHAR
STARTCHAR 01CE
ENCODING 462
SWIDTH 500 0
DWIDTH 4 0
BBX 5 6 0 1
BITMAP
60
00
70
10
F0
F8
ENDCHAR
STARTCHAR 01D0
ENCODING 464
SWIDTH 250 0
DWIDTH 2 0
BBX 2 6 0 1
BITMAP
C0
00
40
40
40
40
ENDCHAR
STARTCHAR 01D1
ENCODING 465
SWIDTH 750 0
DWIDTH 6 0
BBX 6 7 0 1
BITMAP
30
78
CC
84
84
CC
78
ENDCHAR
STARTCHAR 01D2
ENCODING 466
SWIDTH 625 0
DWIDTH 5 0
BBX 4 6 0 1
BITMAP
20
00
60
90
90
60
ENDCHAR
STARTCHAR 01D4
ENCODING 468
SWIDTH 625 0
DWIDTH 5 0
BBX 3 4 1 3
BITMAP
A0
A0
A0
E0
ENDCHAR
STARTCHAR 01D6
ENCODING 470
SWIDTH 625 0
DWIDTH 5 0
BBX 3 6 1 0
BITMAP
60
00
A0
A0
A0
E0
ENDCHAR
STARTCHAR 01D8
ENCODING 472
SWIDTH 625 0
DWIDTH 5 0
BBX 3 7 1 1
BITMAP
40
60
00
A0
A0
A0
E0
ENDCHAR
STARTCHAR 01DA
ENCODING 474
SWIDTH 625 0
DWIDTH 5 0
BBX 3 7 1 1
BITMAP
40
60
00
A0
A0
A0
E0
ENDCHAR
STARTCHAR 01DC
ENCODING 476
SWIDTH 625 0
DWIDTH 5 0
BBX 3 7 1 1
BITMAP
40
60
00
A0
A0
A0
E0
ENDCHAR
STARTCHAR 01F8
ENCODING 504
SWIDTH 875 0
DWIDTH 7 0
BBX 5 6 1 2
BITMAP
88
C8
A8
A8
98
88
ENDCHAR
STARTCHAR 01F9
ENCODING 505
SWIDTH 625 0
DWIDTH 5 0
BBX 3 4 1 2
BITMAP
E0
A0
A0
A0
ENDCHAR
STARTCHAR 01FD
ENCODING 509
SWIDTH 875 0
DWIDTH 7 0
BBX 6 4 0 2
BITMAP
6C
14
FC
FC
ENDCHAR
STARTCHAR 0250
ENCODING 592
SWIDTH 500 0
DWIDTH 4 0
BBX 5 4 0 0
BITMAP
F8
48
70
70
ENDCHAR
STARTCHAR 0251
ENCODING 593
SWIDTH 625 0
DWIDTH 5 0
BBX 5 4 0 1
BITMAP
70
90
90
78
ENDCHAR
STARTCHAR 0252
ENCODING 594
SWIDTH 625 0
DWIDTH 5 0
BBX 5 4 0 0
BITMAP
F0
48
48
70
ENDCHAR
STARTCHAR 0253
ENCODING 595
SWIDTH 625 0
DWIDTH 5 0
BBX 4 6 1 0
BITMAP
70
80
E0
90
90
E0
ENDCHAR
STARTCHAR 0254
ENCODING 596
SWIDTH 500 0
DWIDTH 4 0
BBX 4 4 0 0
BITMAP
60
10
10
E0
ENDCHAR
STARTCHAR 0255
ENCODING 597
SWIDTH 500 0
DWIDTH 4 0
BBX 4 5 0 -1
BITMAP
70
80
B0
70
40
ENDCHAR
STARTCHAR 0256
ENCODING 598
SWIDTH 625 0
DWIDTH 5 0
BBX 5 8 0 -2
BITMAP
10
10
70
90
90
70
10
18
ENDCHAR
STARTCHAR 0257
ENCODING 599
SWIDTH 625 0
DWIDTH 5 0
BBX 5 6 0 0
BITMAP
18
10
70
90
90
70
ENDCHAR
STARTCHAR 0258
ENCODING 600
SWIDTH 500 0
DWIDTH 4 0
BBX 4 4 0 0
BITMAP
60
90
F0
60
ENDCHAR
STARTCHAR 0259
ENCODING 601
SWIDTH 500 0
DWIDTH 4 0
BBX 4 4 0 0
BITMAP
60
F0
90
60
ENDCHAR
STARTCHAR 025A
ENCODING 602
SWIDTH 750 0
DWIDTH 6 0
BBX 6 4 0 0
BITMAP
70
9C
70
70
ENDCHAR
STARTCHAR 025C
ENCODING 604
SWIDTH 500 0
DWIDTH 4 0
BBX 4 4 0 0
BITMAP
60
20
10
F0
ENDCHAR
STARTCHAR 025E
ENCODING 606
SWIDTH 625 0
DWIDTH 5 0
BBX 4 4 0 0
BITMAP
70
90
90
70
ENDCHAR
STARTCHAR 025F
ENCODING 607
SWIDTH 375 0
DWIDTH 3 0
BBX 4 6 -1 -2
BITMAP
20
20
20
70
20
E0
ENDCHAR
STARTCHAR 0260
ENCODING 608
SWIDTH 625 0
DWIDTH 5 0
BBX 5 8 0 -2
BITMAP
18
10
70
90
90
70
90
E0
ENDCHAR
STARTCHAR 0261
ENCODING 609
SWIDTH 625 0
DWIDTH 5 0
BBX 4 6 0 -1
BITMAP
70
90
90
70
90
E0
ENDCHAR
STARTCHAR 0264
ENCODING 612
SWIDTH 625 0
DWIDTH 5 0
BBX 4 4 0 0
BITMAP
D0
20
60
60
ENDCHAR
STARTCHAR 0265
ENCODING 613
SWIDTH 625 0
DWIDTH 5 0
BBX 3 6 1 -2
BITMAP
A0
A0
A0
E0
20
20
ENDCHAR
STARTCHAR 0266
ENCODING 614
SWIDTH 625 0
DWIDTH 5 0
BBX 3 6 1 0
BITMAP
E0
80
E0
A0
A0
A0
ENDCHAR
STARTCHAR 0267
ENCODING 615
SWIDTH 625 0
DWIDTH 5 0
BBX 3 8 1 -2
BITMAP
E0
80
E0
A0
A0
A0
20
60
ENDCHAR
STARTCHAR 0268
ENCODING 616
SWIDTH 375 0
DWIDTH 3 0
BBX 3 6 0 0
BITMAP
40
00
C0
40
E0
40
ENDCHAR
STARTCHAR 026C
ENCODING 620
SWIDTH 375 0
DWIDTH 3 0
BBX 3 6 -1 0
BITMAP
60
20
E0
20
20
20
ENDCHAR
STARTCHAR 026D
ENCODING 621
SWIDTH 375 0
DWIDTH 3 0
BBX 3 8 0 -2
BITMAP
C0
40
40
40
40
40
40
60
ENDCHAR
STARTCHAR 026E
ENCODING 622
SWIDTH 625 0
DWIDTH 5 0
BBX 4 8 1 -2
BITMAP
80
80
F0
A0
C0
B0
50
70
ENDCHAR
STARTCHAR 026F
ENCODING 623
SWIDTH 875 0
DWIDTH 7 0
BBX 5 4 1 -1
BITMAP
A8
A8
A8
F8
ENDCHAR
STARTCHAR 0270
ENCODING 624
SWIDTH 875 0
DWIDTH 7 0
BBX 6 6 1 -2
BITMAP
A8
A8
A8
F8
08
0C
ENDCHAR
STARTCHAR 0271
ENCODING 625
SWIDTH 875 0
DWIDTH 7 0
BBX 5 6 1 -1
BITMAP
F8
A8
A8
A8
08
18
ENDCHAR
STARTCHAR 0272
ENCODING 626
SWIDTH 625 0
DWIDTH 5 0
BBX 4 6 0 -1
BITMAP
70
50
50
50
40
C0
ENDCHAR
STARTCHAR 0273
ENCODING 627
SWIDTH 625 0
DWIDTH 5 0
BBX 4 6 1 -1
BITMAP
E0
A0
A0
A0
20
30
ENDCHAR
STARTCHAR 0275
ENCODING 629
SWIDTH 625 0
DWIDTH 5 0
BBX 4 4 0 0
BITMAP
60
90
F0
70
ENDCHAR
STARTCHAR 0279
ENCODING 633
SWIDTH 375 0
DWIDTH 3 0
BBX 3 4 -1 -1
BITMAP
20
20
20
C0
ENDCHAR
STARTCHAR 027A
ENCODING 634
SWIDTH 375 0
DWIDTH 3 0
BBX 3 6 -1 -1
BITMAP
20
20
20
20
20
C0
ENDCHAR
STARTCHAR 027B
ENCODING 635
SWIDTH 375 0
DWIDTH 3 0
BBX 4 6 0 -2
BITMAP
20
20
20
E0
20
30
ENDCHAR
STARTCHAR 027D
ENCODING 637
SWIDTH 375 0
DWIDTH 3 0
BBX 3 6 1 -1
BITMAP
E0
80
80
80
80
C0
ENDCHAR
STARTCHAR 027E
ENCODING 638
SWIDTH 375 0
DWIDTH 3 0
BBX 2 4 1 0
BITMAP
C0
80
80
80
ENDCHAR
STARTCHAR 0281
ENCODING 641
SWIDTH 500 0
DWIDTH 4 0
BBX 3 4 1 0
BITMAP
A0
A0
E0
A0
ENDCHAR
STARTCHAR 0282
ENCODING 642
SWIDTH 500 0
DWIDTH 4 0
BBX 2 6 1 -1
BITMAP
C0
80
40
C0
80
80
ENDCHAR
STARTCHAR 0283
ENCODING 643
SWIDTH 375 0
DWIDTH 3 0
BBX 3 8 0 -2
BITMAP
60
40
40
40
40
40
40
C0
ENDCHAR
STARTCHAR 0284
ENCODING 644
SWIDTH 375 0
DWIDTH 3 0
BBX 4 8 0 -2
BITMAP
70
40
40
40
40
E0
40
C0
ENDCHAR
STARTCHAR 0288
ENCODING 648
SWIDTH 375 0
DWIDTH 3 0
BBX 3 7 0 -1
BITMAP
40
E0
40
40
40
40
60
ENDCHAR
STARTCHAR 0289
ENCODING 649
SWIDTH 625 0
DWIDTH 5 0
BBX 5 4 0 0
BITMAP
10
90
F8
70
ENDCHAR
STARTCHAR 028A
ENCODING 650
SWIDTH 625 0
DWIDTH 5 0
BBX 5 4 0 0
BITMAP
D8
50
50
70
ENDCHAR
STARTCHAR 028B
ENCODING 651
SWIDTH 500 0
DWIDTH 4 0
BBX 4 4 1 0
BITMAP
90
90
90
E0
ENDCHAR
STARTCHAR 028C
ENCODING 652
SWIDTH 500 0
DWIDTH 4 0
BBX 4 4 0 1
BITMAP
20
60
A0
10
ENDCHAR
STARTCHAR 028D
ENCODING 653
SWIDTH 750 0
DWIDTH 6 0
BBX 6 4 0 1
BITMAP
48
68
98
04
ENDCHAR
STARTCHAR 028E
ENCODING 654
SWIDTH 500 0
DWIDTH 4 0
BBX 4 6 0 0
BITMAP
10
60
20
60
A0
10
ENDCHAR
STARTCHAR 0290
ENCODING 656
SWIDTH 500 0
DWIDTH 4 0
BBX 4 6 0 -2
BITMAP
E0
40
80
E0
20
10
ENDCHAR
STARTCHAR 0291
ENCODING 657
SWIDTH 500 0
DWIDTH 4 0
BBX 4 5 0 -1
BITMAP
E0
A0
F0
F0
40
ENDCHAR
STARTCHAR 0292
ENCODING 658
SWIDTH 500 0
DWIDTH 4 0
BBX 4 6 0 -2
BITMAP
70
A0
60
10
90
60
ENDCHAR
STARTCHAR 0294
ENCODING 660
SWIDTH 500 0
DWIDTH 4 0
BBX 4 6 1 0
BITMAP
70
90
10
60
40
40
ENDCHAR
STARTCHAR 0295
ENCODING 661
SWIDTH 500 0
DWIDTH 4 0
BBX 3 6 0 0
BITMAP
E0
80
80
60
20
20
ENDCHAR
STARTCHAR 0298
ENCODING 664
SWIDTH 625 0
DWIDTH 5 0
BBX 5 4 0 0
BITMAP
70
A8
88
70
ENDCHAR
STARTCHAR 029D
ENCODING 669
SWIDTH 250 0
DWIDTH 2 0
BBX 3 8 -1 -2
BITMAP
20
00
20
20
20
20
E0
E0
ENDCHAR
STARTCHAR 02A1
ENCODING 673
SWIDTH 500 0
DWIDTH 4 0
BBX 4 6 1 0
BITMAP
E0
10
10
60
E0
40
ENDCHAR
STARTCHAR 02A2
ENCODING 674
SWIDTH 500 0
DWIDTH 4 0
BBX 4 6 0 0
BITMAP
E0
80
80
60
70
20
ENDCHAR
STARTCHAR 02BB
ENCODING 699
SWIDTH 1000 0
DWIDTH 8 0
BBX 1 1 6 6
BITMAP
80
ENDCHAR
STARTCHAR 02BC
ENCODING 700
SWIDTH 1000 0
DWIDTH 8 0
BBX 1 2 1 4
BITMAP
80
80
ENDCHAR
STARTCHAR 02C6
ENCODING 710
SWIDTH 500 0
DWIDTH 4 0
BBX 0 0 1 4
BITMAP
ENDCHAR
STARTCHAR 02C7
ENCODING 711
SWIDTH 500 0
DWIDTH 4 0
BBX 2 1 1 6
BITMAP
C0
ENDCHAR
STARTCHAR 02C8
ENCODING 712
SWIDTH 250 0
DWIDTH 2 0
BBX 1 3 1 2
BITMAP
80
80
80
ENDCHAR
STARTCHAR 02CC
ENCODING 716
SWIDTH 250 0
DWIDTH 2 0
BBX 1 3 1 -2
BITMAP
80
80
80
ENDCHAR
STARTCHAR 02D0
ENCODING 720
SWIDTH 250 0
DWIDTH 2 0
BBX 1 4 0 0
BITMAP
80
00
00
80
ENDCHAR
STARTCHAR 02D1
ENCODING 721
SWIDTH 250 0
DWIDTH 2 0
BBX 0 0 0 3
BITMAP
ENDCHAR
STARTCHAR 02D8
ENCODING 728
SWIDTH 500 0
DWIDTH 4 0
BBX 2 1 1 5
BITMAP
C0
ENDCHAR
STARTCHAR 02D9
ENCODING 729
SWIDTH 500 0
DWIDTH 4 0
BBX 1 1 2 5
BITMAP
80
ENDCHAR
STARTCHAR 02DB
ENCODING 731
SWIDTH 500 0
DWIDTH 4 0
BBX 2 2 1 -1
BITMAP
80
C0
ENDCHAR
STARTCHAR 02DC
ENCODING 732
SWIDTH 500 0
DWIDTH 4 0
BBX 2 1 1 5
BITMAP
C0
ENDCHAR
STARTCHAR 02DD
ENCODING 733
SWIDTH 500 0
DWIDTH 4 0
BBX 1 1 1 4
BITMAP
80
ENDCHAR
STARTCHAR 02DE
ENCODING 734
SWIDTH 500 0
DWIDTH 4 0
BBX 2 2 1 0
BITMAP
80
40
ENDCHAR
STARTCHAR 02E5
ENCODING 741
SWIDTH 500 0
DWIDTH 4 0
BBX 2 6 0 -1
BITMAP
C0
40
40
40
40
40
ENDCHAR
STARTCHAR 02E6
ENCODING 742
SWIDTH 500 0
DWIDTH 4 0
BBX 2 6 0 0
BITMAP
40
C0
40
40
40
40
ENDCHAR
STARTCHAR 02E7
ENCODING 743
SWIDTH 500 0
DWIDTH 4 0
BBX 2 7 0 -1
BITMAP
40
40
40
C0
40
40
40
ENDCHAR
STARTCHAR 02E8
ENCODING 744
SWIDTH 500 0
DWIDTH 4 0
BBX 2 6 0 -1
BITMAP
40
40
40
40
C0
40
ENDCHAR
STARTCHAR 02E9
ENCODING 745
SWIDTH 500 0
DWIDTH 4 0
BBX 2 6 0 1
BITMAP
40
40
40
40
40
C0
ENDCHAR
STARTCHAR 0300
ENCODING 768
SWIDTH 500 0
DWIDTH 4 0
BBX 1 1 1 4
BITMAP
80
ENDCHAR
STARTCHAR 0301
ENCODING 769
SWIDTH 500 0
DWIDTH 4 0
BBX 1 1 2 4
BITMAP
80
ENDCHAR
STARTCHAR 0302
ENCODING 770
SWIDTH 500 0
DWIDTH 4 0
BBX 0 0 1 4
BITMAP
ENDCHAR
STARTCHAR 0303
ENCODING 771
SWIDTH 500 0
DWIDTH 4 0
BBX 2 1 1 5
BITMAP
C0
ENDCHAR
STARTCHAR 0304
ENCODING 772
SWIDTH 500 0
DWIDTH 4 0
BBX 2 1 1 4
BITMAP
C0
ENDCHAR
STARTCHAR 0305
ENCODING 773
SWIDTH 500 0
DWIDTH 4 0
BBX 2 1 1 4
BITMAP
C0
ENDCHAR
STARTCHAR 0306
ENCODING 774
SWIDTH 500 0
DWIDTH 4 0
BBX 2 1 1 5
BITMAP
C0
ENDCHAR
STARTCHAR 0308
ENCODING 776
SWIDTH 500 0
DWIDTH 4 0
BBX 2 1 1 5
BITMAP
C0
ENDCHAR
STARTCHAR 030B
ENCODING 779
SWIDTH 500 0
DWIDTH 4 0
BBX 1 1 1 4
BITMAP
80
ENDCHAR
STARTCHAR 030C
ENCODING 780
SWIDTH 500 0
DWIDTH 4 0
BBX 2 1 1 6
BITMAP
C0
ENDCHAR
STARTCHAR 030F
ENCODING 783
SWIDTH 500 0
DWIDTH 4 0
BBX 1 1 2 4
BITMAP
80
ENDCHAR
STARTCHAR 0318
ENCODING 792
SWIDTH 500 0
DWIDTH 4 0
BBX 2 3 0 -2
BITMAP
40
C0
40
ENDCHAR
STARTCHAR 0319
ENCODING 793
SWIDTH 500 0
DWIDTH 4 0
BBX 2 3 2 -2
BITMAP
80
C0
80
ENDCHAR
STARTCHAR 031A
ENCODING 794
SWIDTH 500 0
DWIDTH 4 0
BBX 2 3 0 3
BITMAP
C0
40
40
ENDCHAR
STARTCHAR 031C
ENCODING 796
SWIDTH 500 0
DWIDTH 4 0
BBX 1 1 1 -2
BITMAP
80
ENDCHAR
STARTCHAR 031D
ENCODING 797
SWIDTH 500 0
DWIDTH 4 0
BBX 3 2 1 -1
BITMAP
40
E0
ENDCHAR
STARTCHAR 031E
ENCODING 798
SWIDTH 500 0
DWIDTH 4 0
BBX 3 2 1 -2
BITMAP
E0
40
ENDCHAR
STARTCHAR 031F
ENCODING 799
SWIDTH 500 0
DWIDTH 4 0
BBX 3 3 1 -2
BITMAP
40
E0
40
ENDCHAR
STARTCHAR 0320
ENCODING 800
SWIDTH 500 0
DWIDTH 4 0
BBX 2 1 1 -1
BITMAP
C0
ENDCHAR
STARTCHAR 0324
ENCODING 804
SWIDTH 500 0
DWIDTH 4 0
BBX 2 1 1 -1
BITMAP
C0
ENDCHAR
STARTCHAR 0325
ENCODING 805
SWIDTH 500 0
DWIDTH 4 0
BBX 2 1 1 -1
BITMAP
C0
ENDCHAR
STARTCHAR 0327
ENCODING 807
SWIDTH 500 0
DWIDTH 4 0
BBX 2 2 1 -1
BITMAP
80
40
ENDCHAR
STARTCHAR 0329
ENCODING 809
SWIDTH 500 0
DWIDTH 4 0
BBX 1 2 2 -3
BITMAP
80
80
ENDCHAR
STARTCHAR 032A
ENCODING 810
SWIDTH 500 0
DWIDTH 4 0
BBX 2 2 1 -2
BITMAP
C0
C0
ENDCHAR
STARTCHAR 032C
ENCODING 812
SWIDTH 500 0
DWIDTH 4 0
BBX 1 1 1 -1
BITMAP
80
ENDCHAR
STARTCHAR 032F
ENCODING 815
SWIDTH 500 0
DWIDTH 4 0
BBX 2 1 1 -2
BITMAP
C0
ENDCHAR
STARTCHAR 0330
ENCODING 816
SWIDTH 500 0
DWIDTH 4 0
BBX 2 1 1 -2
BITMAP
C0
ENDCHAR
STARTCHAR 0332
ENCODING 818
SWIDTH 500 0
DWIDTH 4 0
BBX 4 1 0 -1
BITMAP
F0
ENDCHAR
STARTCHAR 0334
ENCODING 820
SWIDTH 500 0
DWIDTH 4 0
BBX 2 1 1 2
BITMAP
C0
ENDCHAR
STARTCHAR 0336
ENCODING 822
SWIDTH 875 0
DWIDTH 7 0
BBX 7 1 0 2
BITMAP
FE
ENDCHAR
STARTCHAR 0339
ENCODING 825
SWIDTH 500 0
DWIDTH 4 0
BBX 1 1 2 -2
BITMAP
80
ENDCHAR
STARTCHAR 033A
ENCODING 826
SWIDTH 500 0
DWIDTH 4 0
BBX 2 2 1 -2
BITMAP
C0
C0
ENDCHAR
STARTCHAR 033B
ENCODING 827
SWIDTH 500 0
DWIDTH 4 0
BBX 2 2 1 -2
BITMAP
C0
C0
ENDCHAR
STARTCHAR 033C
ENCODING 828
SWIDTH 500 0
DWIDTH 4 0
BBX 2 1 1 -2
BITMAP
C0
ENDCHAR
STARTCHAR 033D
ENCODING 829
SWIDTH 500 0
DWIDTH 4 0
BBX 2 2 1 5
BITMAP
C0
C0
ENDCHAR
STARTCHAR 0361
ENCODING 865
SWIDTH 0 0
DWIDTH 0 0
BBX 4 1 -2 6
BITMAP
F0
ENDCHAR
STARTCHAR 0391
ENCODING 913
SWIDTH 1000 0
DWIDTH 8 0
BBX 5 5 1 1
BITMAP
20
50
50
78
88
ENDCHAR
STARTCHAR 0392
ENCODING 914
SWIDTH 1000 0
DWIDTH 8 0
BBX 5 6 2 0
BITMAP
F0
90
E0
98
88
90
ENDCHAR
STARTCHAR 0393
ENCODING 915
SWIDTH 1000 0
DWIDTH 8 0
BBX 5 6 1 0
BITMAP
F8
40
40
40
40
40
ENDCHAR
STARTCHAR 0394
ENCODING 916
SWIDTH 1000 0
DWIDTH 8 0
BBX 5 6 1 1
BITMAP
20
50
50
48
88
78
ENDCHAR
STARTCHAR 0395
ENCODING 917
SWIDTH 1000 0
DWIDTH 8 0
BBX 5 6 1 0
BITMAP
F8
40
70
40
40
F8
ENDCHAR
STARTCHAR 0396
ENCODING 918
SWIDTH 1000 0
DWIDTH 8 0
BBX 4 6 2 0
BITMAP
F0
20
20
40
80
F0
ENDCHAR
STARTCHAR 0397
ENCODING 919
SWIDTH 1000 0
DWIDTH 8 0
BBX 4 6 2 0
BITMAP
90
90
F0
90
90
90
ENDCHAR
STARTCHAR 0398
ENCODING 920
SWIDTH 1000 0
DWIDTH 8 0
BBX 4 6 2 0
BITMAP
60
90
90
F0
90
60
ENDCHAR
STARTCHAR 0399
ENCODING 921
SWIDTH 1000 0
DWIDTH 8 0
BBX 1 6 4 0
BITMAP
80
80
80
80
80
80
ENDCHAR
STARTCHAR 039A
ENCODING 922
SWIDTH 1000 0
DWIDTH 8 0
BBX 5 6 2 0
BITMAP
80
B0
C0
A0
90
88
ENDCHAR
STARTCHAR 039B
ENCODING 923
SWIDTH 1000 0
DWIDTH 8 0
BBX 5 4 1 1
BITMAP
30
50
50
88
ENDCHAR
STARTCHAR 039C
ENCODING 924
SWIDTH 1000 0
DWIDTH 8 0
BBX 6 6 1 0
BITMAP
C4
CC
D4
B4
B4
A4
ENDCHAR
STARTCHAR 039D
ENCODING 925
SWIDTH 1000 0
DWIDTH 8 0
BBX 4 6 2 0
BITMAP
90
D0
D0
D0
B0
90
ENDCHAR
STARTCHAR 039E
ENCODING 926
SWIDTH 1000 0
DWIDTH 8 0
BBX 4 6 2 0
BITMAP
F0
00
00
60
00
F0
ENDCHAR
STARTCHAR 039F
ENCODING 927
SWIDTH 1000 0
DWIDTH 8 0
BBX 6 6 1 0
BITMAP
78
CC
84
84
C4
78
ENDCHAR
STARTCHAR 03A0
ENCODING 928
SWIDTH 1000 0
DWIDTH 8 0
BBX 6 6 1 0
BITMAP
FC
48
48
48
48
48
ENDCHAR
STARTCHAR 03A1
ENCODING 929
SWIDTH 1000 0
DWIDTH 8 0
BBX 4 6 2 0
BITMAP
F0
90
90
E0
80
80
ENDCHAR
STARTCHAR 03A3
ENCODING 931
SWIDTH 1000 0
DWIDTH 8 0
BBX 5 6 1 0
BITMAP
F8
40
20
20
C0
F8
ENDCHAR
STARTCHAR 03A4
ENCODING 932
SWIDTH 1000 0
DWIDTH 8 0
BBX 6 6 1 0
BITMAP
FC
10
10
10
10
10
ENDCHAR
STARTCHAR 03A5
ENCODING 933
SWIDTH 1000 0
DWIDTH 8 0
BBX 5 6 2 0
BITMAP
D8
20
20
20
20
20
ENDCHAR
STARTCHAR 03A6
ENCODING 934
SWIDTH 1000 0
DWIDTH 8 0
BBX 5 6 2 0
BITMAP
20
F0
A8
A8
B0
60
ENDCHAR
STARTCHAR 03A7
ENCODING 935
SWIDTH 1000 0
DWIDTH 8 0
BBX 4 6 2 0
BITMAP
90
60
40
60
90
10
ENDCHAR
STARTCHAR 03A8
ENCODING 936
SWIDTH 1000 0
DWIDTH 8 0
BBX 7 6 1 0
BITMAP
D6
54
54
54
38
10
ENDCHAR
STARTCHAR 03A9
ENCODING 937
SWIDTH 1000 0
DWIDTH 8 0
BBX 6 6 1 0
BITMAP
78
CC
84
84
48
CC
ENDCHAR
STARTCHAR 03B1
ENCODING 945
SWIDTH 1000 0
DWIDTH 8 0
BBX 5 4 1 0
BITMAP
60
D0
90
F8
ENDCHAR
STARTCHAR 03B2
ENCODING 946
SWIDTH 1000 0
DWIDTH 8 0
BBX 5 6 1 -1
BITMAP
38
48
30
50
50
B0
ENDCHAR
STARTCHAR 03B3
ENCODING 947
SWIDTH 1000 0
DWIDTH 8 0
BBX 4 5 2 -1
BITMAP
90
60
40
40
40
ENDCHAR
STARTCHAR 03B4
ENCODING 948
SWIDTH 1000 0
DWIDTH 8 0
BBX 4 6 2 0
BITMAP
70
40
A0
A0
A0
C0
ENDCHAR
STARTCHAR 03B5
ENCODING 949
SWIDTH 1000 0
DWIDTH 8 0
BBX 3 4 2 0
BITMAP
60
60
80
E0
ENDCHAR
STARTCHAR 03B6
ENCODING 950
SWIDTH 1000 0
DWIDTH 8 0
BBX 4 7 2 0
BITMAP
50
60
80
80
80
60
60
ENDCHAR
STARTCHAR 03B7
ENCODING 951
SWIDTH 1000 0
DWIDTH 8 0
BBX 4 5 2 -1
BITMAP
F0
D0
A0
A0
20
ENDCHAR
STARTCHAR 03B8
ENCODING 952
SWIDTH 1000 0
DWIDTH 8 0
BBX 4 6 2 0
BITMAP
60
50
90
F0
A0
E0
ENDCHAR
STARTCHAR 03B9
ENCODING 953
SWIDTH 1000 0
DWIDTH 8 0
BBX 2 4 3 1
BITMAP
80
80
80
C0
ENDCHAR
STARTCHAR 03BA
ENCODING 954
SWIDTH 1000 0
DWIDTH 8 0
BBX 4 4 2 0
BITMAP
90
60
C0
20
ENDCHAR
STARTCHAR 03BB
ENCODING 955
SWIDTH 1000 0
DWIDTH 8 0
BBX 4 6 1 0
BITMAP
60
20
20
60
A0
30
ENDCHAR
STARTCHAR 03BC
ENCODING 956
SWIDTH 1000 0
DWIDTH 8 0
BBX 5 4 1 0
BITMAP
48
50
50
A8
ENDCHAR
STARTCHAR 03BD
ENCODING 957
SWIDTH 1000 0
DWIDTH 8 0
BBX 4 3 2 0
BITMAP
D0
50
60
ENDCHAR
STARTCHAR 03BE
ENCODING 958
SWIDTH 1000 0
DWIDTH 8 0
BBX 3 7 2 0
BITMAP
60
40
60
80
80
60
60
ENDCHAR
STARTCHAR 03BF
ENCODING 959
SWIDTH 1000 0
DWIDTH 8 0
BBX 4 4 2 0
BITMAP
70
90
90
E0
ENDCHAR
STARTCHAR 03C0
ENCODING 960
SWIDTH 1000 0
DWIDTH 8 0
BBX 4 4 2 1
BITMAP
F0
A0
A0
B0
ENDCHAR
STARTCHAR 03C1
ENCODING 961
SWIDTH 1000 0
DWIDTH 8 0
BBX 5 4 1 -1
BITMAP
78
48
48
B0
ENDCHAR
STARTCHAR 03C2
ENCODING 962
SWIDTH 500 0
DWIDTH 4 0
BBX 4 6 0 -2
BITMAP
70
50
40
20
20
E0
ENDCHAR
STARTCHAR 03C3
ENCODING 963
SWIDTH 1000 0
DWIDTH 8 0
BBX 4 4 2 0
BITMAP
F0
90
90
E0
ENDCHAR
STARTCHAR 03C4
ENCODING 964
SWIDTH 1000 0
DWIDTH 8 0
BBX 4 4 2 1
BITMAP
F0
40
40
60
ENDCHAR
STARTCHAR 03C5
ENCODING 965
SWIDTH 1000 0
DWIDTH 8 0
BBX 4 4 2 0
BITMAP
90
90
90
E0
ENDCHAR
STARTCHAR 03C6
ENCODING 966
SWIDTH 1000 0
DWIDTH 8 0
BBX 4 5 2 0
BITMAP
20
D0
D0
D0
60
ENDCHAR
STARTCHAR 03C7
ENCODING 967
SWIDTH 1000 0
DWIDTH 8 0
BBX 4 5 2 -1
BITMAP
D0
20
40
C0
30
ENDCHAR
STARTCHAR 03C8
ENCODING 968
SWIDTH 1000 0
DWIDTH 8 0
BBX 4 6 2 0
BITMAP
20
B0
D0
D0
60
40
ENDCHAR
STARTCHAR 03C9
ENCODING 969
SWIDTH 1000 0
DWIDTH 8 0
BBX 5 4 2 1
BITMAP
88
A8
C8
F0
ENDCHAR
STARTCHAR 0401
ENCODING 1025
SWIDTH 1000 0
DWIDTH 8 0
BBX 5 7 1 0
BITMAP
28
F8
40
70
40
40
F8
ENDCHAR
STARTCHAR 0410
ENCODING 1040
SWIDTH 1000 0
DWIDTH 8 0
BBX 5 5 1 1
BITMAP
20
50
50
78
88
ENDCHAR
STARTCHAR 0411
ENCODING 1041
SWIDTH 1000 0
DWIDTH 8 0
BBX 5 6 1 0
BITMAP
F8
40
78
48
48
48
ENDCHAR
STARTCHAR 0412
ENCODING 1042
SWIDTH 1000 0
DWIDTH 8 0
BBX 5 6 2 0
BITMAP
F0
90
E0
98
88
90
ENDCHAR
STARTCHAR 0413
ENCODING 1043
SWIDTH 1000 0
DWIDTH 8 0
BBX 5 6 1 0
BITMAP
F8
40
40
40
40
40
ENDCHAR
STARTCHAR 0414
ENCODING 1044
SWIDTH 1000 0
DWIDTH 8 0
BBX 6 6 1 -1
BITMAP
7C
48
48
48
88
FC
ENDCHAR
STARTCHAR 0415
ENCODING 1045
SWIDTH 1000 0
DWIDTH 8 0
BBX 5 6 1 0
BITMAP
F8
40
70
40
40
F8
ENDCHAR
STARTCHAR 0416
ENCODING 1046
SWIDTH 1000 0
DWIDTH 8 0
BBX 7 6 1 0
BITMAP
92
54
58
78
54
92
ENDCHAR
STARTCHAR 0417
ENCODING 1047
SWIDTH 1000 0
DWIDTH 8 0
BBX 4 6 2 0
BITMAP
F0
10
60
30
10
E0
ENDCHAR
STARTCHAR 0418
ENCODING 1048
SWIDTH 1000 0
DWIDTH 8 0
BBX 4 6 2 0
BITMAP
90
90
F0
D0
90
90
ENDCHAR
STARTCHAR 0419
ENCODING 1049
SWIDTH 1000 0
DWIDTH 8 0
BBX 4 7 2 0
BITMAP
60
90
90
F0
D0
90
90
ENDCHAR
STARTCHAR 041A
ENCODING 1050
SWIDTH 1000 0
DWIDTH 8 0
BBX 5 6 2 1
BITMAP
98
A0
A0
E0
90
88
ENDCHAR
STARTCHAR 041B
ENCODING 1051
SWIDTH 1000 0
DWIDTH 8 0
BBX 6 6 0 0
BITMAP
3C
24
24
24
A4
C4
ENDCHAR
STARTCHAR 041C
ENCODING 1052
SWIDTH 1000 0
DWIDTH 8 0
BBX 6 6 1 0
BITMAP
48
58
D8
B8
A4
84
ENDCHAR
STARTCHAR 041D
ENCODING 1053
SWIDTH 1000 0
DWIDTH 8 0
BBX 4 6 2 0
BITMAP
90
90
F0
90
90
90
ENDCHAR
STARTCHAR 041E
ENCODING 1054
SWIDTH 1000 0
DWIDTH 8 0
BBX 6 6 1 0
BITMAP
78
CC
84
84
C4
78
ENDCHAR
STARTCHAR 041F
ENCODING 1055
SWIDTH 1000 0
DWIDTH 8 0
BBX 6 6 1 0
BITMAP
FC
48
48
48
48
48
ENDCHAR
STARTCHAR 0420
ENCODING 1056
SWIDTH 1000 0
DWIDTH 8 0
BBX 4 6 2 0
BITMAP
F0
90
90
E0
80
80
ENDCHAR
STARTCHAR 0421
ENCODING 1057
SWIDTH 1000 0
DWIDTH 8 0
BBX 5 6 2 0
BITMAP
78
80
80
80
C0
78
ENDCHAR
STARTCHAR 0422
ENCODING 1058
SWIDTH 1000 0
DWIDTH 8 0
BBX 6 6 1 0
BITMAP
FC
10
10
10
10
10
ENDCHAR
STARTCHAR 0423
ENCODING 1059
SWIDTH 1000 0
DWIDTH 8 0
BBX 4 6 2 0
BITMAP
80
B0
60
20
40
C0
ENDCHAR
STARTCHAR 0424
ENCODING 1060
SWIDTH 1000 0
DWIDTH 8 0
BBX 5 6 2 0
BITMAP
20
F0
A8
A8
B0
60
ENDCHAR
STARTCHAR 0425
ENCODING 1061
SWIDTH 1000 0
DWIDTH 8 0
BBX 4 6 2 0
BITMAP
90
60
40
60
90
10
ENDCHAR
STARTCHAR 0426
ENCODING 1062
SWIDTH 1000 0
DWIDTH 8 0
BBX 6 6 1 -1
BITMAP
48
48
48
48
48
FC
ENDCHAR
STARTCHAR 0427
ENCODING 1063
SWIDTH 1000 0
DWIDTH 8 0
BBX 4 6 2 0
BITMAP
90
90
90
F0
10
10
ENDCHAR
STARTCHAR 0428
ENCODING 1064
SWIDTH 1000 0
DWIDTH 8 0
BBX 6 6 1 0
BITMAP
94
94
94
94
94
94
ENDCHAR
STARTCHAR 0429
ENCODING 1065
SWIDTH 1000 0
DWIDTH 8 0
BBX 6 7 1 -1
BITMAP
94
94
94
94
94
94
68
ENDCHAR
STARTCHAR 042A
ENCODING 1066
SWIDTH 1000 0
DWIDTH 8 0
BBX 7 6 1 0
BITMAP
E0
20
3C
22
22
24
ENDCHAR
STARTCHAR 042B
ENCODING 1067
SWIDTH 1000 0
DWIDTH 8 0
BBX 6 6 1 0
BITMAP
84
84
E4
94
94
A4
ENDCHAR
STARTCHAR 042C
ENCODING 1068
SWIDTH 1000 0
DWIDTH 8 0
BBX 5 6 2 0
BITMAP
80
80
F0
88
88
90
ENDCHAR
STARTCHAR 042D
ENCODING 1069
SWIDTH 1000 0
DWIDTH 8 0
BBX 5 6 1 0
BITMAP
F0
08
78
08
08
F0
ENDCHAR
STARTCHAR 042E
ENCODING 1070
SWIDTH 1000 0
DWIDTH 8 0
BBX 6 6 1 0
BITMAP
98
A4
E4
A4
A4
98
ENDCHAR
STARTCHAR 042F
ENCODING 1071
SWIDTH 1000 0
DWIDTH 8 0
BBX 4 6 2 0
BITMAP
F0
90
F0
50
90
10
ENDCHAR
STARTCHAR 0430
ENCODING 1072
SWIDTH 1000 0
DWIDTH 8 0
BBX 4 4 2 0
BITMAP
E0
60
A0
F0
ENDCHAR
STARTCHAR 0431
ENCODING 1073
SWIDTH 1000 0
DWIDTH 8 0
BBX 4 6 2 1
BITMAP
10
E0
E0
90
90
60
ENDCHAR
STARTCHAR 0432
ENCODING 1074
SWIDTH 1000 0
DWIDTH 8 0
BBX 4 4 2 0
BITMAP
F0
E0
90
90
ENDCHAR
STARTCHAR 0433
ENCODING 1075
SWIDTH 1000 0
DWIDTH 8 0
BBX 4 4 2 0
BITMAP
F0
40
40
40
ENDCHAR
STARTCHAR 0434
ENCODING 1076
SWIDTH 1000 0
DWIDTH 8 0
BBX 4 4 2 -1
BITMAP
E0
A0
A0
F0
ENDCHAR
STARTCHAR 0435
ENCODING 1077
SWIDTH 1000 0
DWIDTH 8 0
BBX 4 4 2 0
BITMAP
60
F0
80
60
ENDCHAR
STARTCHAR 0436
ENCODING 1078
SWIDTH 1000 0
DWIDTH 8 0
BBX 7 4 1 0
BITMAP
92
5C
74
10
ENDCHAR
STARTCHAR 0437
ENCODING 1079
SWIDTH 1000 0
DWIDTH 8 0
BBX 3 4 2 0
BITMAP
E0
20
20
E0
ENDCHAR
STARTCHAR 0438
ENCODING 1080
SWIDTH 1000 0
DWIDTH 8 0
BBX 4 4 2 0
BITMAP
90
B0
D0
90
ENDCHAR
STARTCHAR 0439
ENCODING 1081
SWIDTH 1000 0
DWIDTH 8 0
BBX 4 6 2 0
BITMAP
60
60
90
B0
D0
90
ENDCHAR
STARTCHAR 043A
ENCODING 1082
SWIDTH 1000 0
DWIDTH 8 0
BBX 4 4 3 0
BITMAP
80
E0
A0
90
ENDCHAR
STARTCHAR 043B
ENCODING 1083
SWIDTH 1000 0
DWIDTH 8 0
BBX 5 4 0 0
BITMAP
78
48
48
C8
ENDCHAR
STARTCHAR 043C
ENCODING 1084
SWIDTH 1000 0
DWIDTH 8 0
BBX 4 4 2 0
BITMAP
90
D0
F0
90
ENDCHAR
STARTCHAR 043D
ENCODING 1085
SWIDTH 1000 0
DWIDTH 8 0
BBX 4 4 2 0
BITMAP
90
F0
90
90
ENDCHAR
STARTCHAR 043E
ENCODING 1086
SWIDTH 1000 0
DWIDTH 8 0
BBX 4 4 2 0
BITMAP
60
90
90
60
ENDCHAR
STARTCHAR 043F
ENCODING 1087
SWIDTH 1000 0
DWIDTH 8 0
BBX 6 4 1 0
BITMAP
FC
48
48
48
ENDCHAR
STARTCHAR 0440
ENCODING 1088
SWIDTH 1000 0
DWIDTH 8 0
BBX 4 5 2 0
BITMAP
F0
90
F0
80
80
ENDCHAR
STARTCHAR 0441
ENCODING 1089
SWIDTH 1000 0
DWIDTH 8 0
BBX 4 4 2 0
BITMAP
70
80
80
60
ENDCHAR
STARTCHAR 0442
ENCODING 1090
SWIDTH 1000 0
DWIDTH 8 0
BBX 3 4 2 0
BITMAP
E0
20
20
20
ENDCHAR
STARTCHAR 0443
ENCODING 1091
SWIDTH 1000 0
DWIDTH 8 0
BBX 4 5 2 -1
BITMAP
90
60
20
40
C0
ENDCHAR
STARTCHAR 0444
ENCODING 1092
SWIDTH 1000 0
DWIDTH 8 0
BBX 5 7 2 -1
BITMAP
20
20
F8
A8
A8
F8
20
ENDCHAR
STARTCHAR 0445
ENCODING 1093
SWIDTH 1000 0
DWIDTH 8 0
BBX 4 4 2 0
BITMAP
80
60
60
90
ENDCHAR
STARTCHAR 0446
ENCODING 1094
SWIDTH 1000 0
DWIDTH 8 0
BBX 5 4 1 -1
BITMAP
50
50
50
F8
ENDCHAR
STARTCHAR 0447
ENCODING 1095
SWIDTH 1000 0
DWIDTH 8 0
BBX 4 4 1 0
BITMAP
90
90
70
10
ENDCHAR
STARTCHAR 0448
ENCODING 1096
SWIDTH 1000 0
DWIDTH 8 0
BBX 4 4 2 0
BITMAP
B0
B0
B0
B0
ENDCHAR
STARTCHAR 0449
ENCODING 1097
SWIDTH 1000 0
DWIDTH 8 0
BBX 4 5 2 -1
BITMAP
B0
B0
B0
B0
40
ENDCHAR
STARTCHAR 044A
ENCODING 1098
SWIDTH 1000 0
DWIDTH 8 0
BBX 5 4 2 0
BITMAP
C0
78
48
48
ENDCHAR
STARTCHAR 044B
ENCODING 1099
SWIDTH 1000 0
DWIDTH 8 0
BBX 4 4 2 0
BITMAP
90
F0
B0
B0
ENDCHAR
STARTCHAR 044C
ENCODING 1100
SWIDTH 1000 0
DWIDTH 8 0
BBX 4 4 3 0
BITMAP
80
F0
90
90
ENDCHAR
STARTCHAR 044D
ENCODING 1101
SWIDTH 1000 0
DWIDTH 8 0
BBX 4 4 2 0
BITMAP
E0
F0
10
E0
ENDCHAR
STARTCHAR 044E
ENCODING 1102
SWIDTH 1000 0
DWIDTH 8 0
BBX 6 4 2 0
BITMAP
B8
C4
C4
B8
ENDCHAR
STARTCHAR 044F
ENCODING 1103
SWIDTH 1000 0
DWIDTH 8 0
BBX 4 4 1 0
BITMAP
F0
F0
50
90
ENDCHAR
STARTCHAR 0451
ENCODING 1105
SWIDTH 1000 0
DWIDTH 8 0
BBX 4 6 2 0
BITMAP
50
00
60
F0
80
60
ENDCHAR
STARTCHAR 1E3E
ENCODING 7742
SWIDTH 1000 0
DWIDTH 8 0
BBX 5 7 1 1
BITMAP
20
88
D8
E8
E8
E8
A8
ENDCHAR
STARTCHAR 1E3F
ENCODING 7743
SWIDTH 875 0
DWIDTH 7 0
BBX 5 4 1 2
BITMAP
F8
A8
A8
A8
ENDCHAR
STARTCHAR 1F70
ENCODING 8048
SWIDTH 625 0
DWIDTH 5 0
BBX 5 6 0 0
BITMAP
40
00
70
90
90
78
ENDCHAR
STARTCHAR 1F71
ENCODING 8049
SWIDTH 625 0
DWIDTH 5 0
BBX 5 6 0 0
BITMAP
20
00
70
90
90
78
ENDCHAR
STARTCHAR 1F72
ENCODING 8050
SWIDTH 500 0
DWIDTH 4 0
BBX 3 6 1 0
BITMAP
80
00
C0
80
80
E0
ENDCHAR
STARTCHAR 1F73
ENCODING 8051
SWIDTH 500 0
DWIDTH 4 0
BBX 3 4 1 2
BITMAP
C0
80
80
E0
ENDCHAR
STARTCHAR 2002
ENCODING 8194
SWIDTH 500 0
DWIDTH 4 0
BBX 0 0 0 0
BITMAP
ENDCHAR
STARTCHAR 2003
ENCODING 8195
SWIDTH 1000 0
DWIDTH 8 0
BBX 0 0 0 0
BITMAP
ENDCHAR
STARTCHAR 2010
ENCODING 8208
SWIDTH 250 0
DWIDTH 2 0
BBX 2 1 0 2
BITMAP
C0
ENDCHAR
STARTCHAR 2011
ENCODING 8209
SWIDTH 250 0
DWIDTH 2 0
BBX 2 1 0 2
BITMAP
C0
ENDCHAR
STARTCHAR 2012
ENCODING 8210
SWIDTH 250 0
DWIDTH 2 0
BBX 2 1 0 2
BITMAP
C0
ENDCHAR
STARTCHAR 2013
ENCODING 8211
SWIDTH 500 0
DWIDTH 4 0
BBX 4 1 0 2
BITMAP
F0
ENDCHAR
STARTCHAR 2014
ENCODING 8212
SWIDTH 875 0
DWIDTH 7 0
BBX 7 1 0 2
BITMAP
FE
ENDCHAR
STARTCHAR 2015
ENCODING 8213
SWIDTH 1000 0
DWIDTH 8 0
BBX 8 1 0 2
BITMAP
FF
ENDCHAR
STARTCHAR 2016
ENCODING 8214
SWIDTH 1000 0
DWIDTH 8 0
BBX 2 8 3 0
BITMAP
C0
C0
C0
C0
C0
C0
C0
C0
ENDCHAR
STARTCHAR 2018
ENCODING 8216
SWIDTH 1000 0
DWIDTH 8 0
BBX 1 1 6 6
BITMAP
80
ENDCHAR
STARTCHAR 2019
ENCODING 8217
SWIDTH 1000 0
DWIDTH 8 0
BBX 1 2 1 4
BITMAP
80
80
ENDCHAR
STARTCHAR 201C
ENCODING 8220
SWIDTH 1000 0
DWIDTH 8 0
BBX 2 2 5 5
BITMAP
80
C0
ENDCHAR
STARTCHAR 201D
ENCODING 8221
SWIDTH 1000 0
DWIDTH 8 0
BBX 2 2 1 4
BITMAP
C0
C0
ENDCHAR
STARTCHAR 2020
ENCODING 8224
SWIDTH 1000 0
DWIDTH 8 0
BBX 3 8 3 -1
BITMAP
40
40
E0
40
40
40
40
40
ENDCHAR
STARTCHAR 2021
ENCODING 8225
SWIDTH 1000 0
DWIDTH 8 0
BBX 4 6 2 0
BITMAP
F0
40
40
40
40
F0
ENDCHAR
STARTCHAR 2022
ENCODING 8226
SWIDTH 375 0
DWIDTH 3 0
BBX 1 1 1 2
BITMAP
80
ENDCHAR
STARTCHAR 2025
ENCODING 8229
SWIDTH 1000 0
DWIDTH 8 0
BBX 5 1 1 3
BITMAP
88
ENDCHAR
STARTCHAR 2026
ENCODING 8230
SWIDTH 1000 0
DWIDTH 8 0
BBX 6 1 1 3
BITMAP
94
ENDCHAR
STARTCHAR 2030
ENCODING 8240
SWIDTH 1000 0
DWIDTH 8 0
BBX 8 7 0 -1
BITMAP
08
F0
B0
E0
3F
5D
5F
ENDCHAR
STARTCHAR 2032
ENCODING 8242
SWIDTH 250 0
DWIDTH 2 0
BBX 1 2 0 5
BITMAP
80
80
ENDCHAR
STARTCHAR 2033
ENCODING 8243
SWIDTH 375 0
DWIDTH 3 0
BBX 3 3 0 4
BITMAP
20
C0
80
ENDCHAR
STARTCHAR 203B
ENCODING 8251
SWIDTH 1000 0
DWIDTH 8 0
BBX 6 6 1 0
BITMAP
A4
48
30
B4
48
A4
ENDCHAR
STARTCHAR 203C
ENCODING 8252
SWIDTH 500 0
DWIDTH 4 0
BBX 2 6 1 0
BITMAP
40
40
40
40
00
C0
ENDCHAR
STARTCHAR 203E
ENCODING 8254
SWIDTH 500 0
DWIDTH 4 0
BBX 2 1 1 4
BITMAP
C0
ENDCHAR
STARTCHAR 203F
ENCODING 8255
SWIDTH 500 0
DWIDTH 4 0
BBX 3 1 0 -1
BITMAP
E0
ENDCHAR
STARTCHAR 2042
ENCODING 8258
SWIDTH 1000 0
DWIDTH 8 0
BBX 4 5 2 1
BITMAP
60
00
90
90
90
ENDCHAR
STARTCHAR 2047
ENCODING 8263
SWIDTH 1000 0
DWIDTH 8 0
BBX 7 6 0 0
BITMAP
FE
9A
12
04
00
44
ENDCHAR
STARTCHAR 2048
ENCODING 8264
SWIDTH 750 0
DWIDTH 6 0
BBX 5 6 0 0
BITMAP
F8
98
18
08
00
48
ENDCHAR
STARTCHAR 2049
ENCODING 8265
SWIDTH 750 0
DWIDTH 6 0
BBX 4 6 1 0
BITMAP
30
50
10
20
00
A0
ENDCHAR
STARTCHAR 2051
ENCODING 8273
SWIDTH 1000 0
DWIDTH 8 0
BBX 2 6 3 0
BITMAP
C0
C0
00
00
C0
C0
ENDCHAR
STARTCHAR 205A
ENCODING 8282
SWIDTH 1000 0
DWIDTH 8 0
BBX 1 5 3 1
BITMAP
80
00
00
00
80
ENDCHAR
STARTCHAR 205D
ENCODING 8285
SWIDTH 1000 0
DWIDTH 8 0
BBX 1 6 4 0
BITMAP
80
00
80
00
00
80
ENDCHAR
STARTCHAR 20AC
ENCODING 8364
SWIDTH 625 0
DWIDTH 5 0
BBX 4 6 0 1
BITMAP
70
80
E0
E0
80
70
ENDCHAR
STARTCHAR 2103
ENCODING 8451
SWIDTH 1000 0
DWIDTH 8 0
BBX 6 7 1 0
BITMAP
80
BC
60
40
40
64
38
ENDCHAR
STARTCHAR 210F
ENCODING 8463
SWIDTH 500 0
DWIDTH 4 0
BBX 4 6 0 0
BITMAP
40
40
70
50
90
90
ENDCHAR
STARTCHAR 2113
ENCODING 8467
SWIDTH 1000 0
DWIDTH 8 0
BBX 4 6 2 0
BITMAP
30
50
50
A0
40
60
ENDCHAR
STARTCHAR 2116
ENCODING 8470
SWIDTH 1000 0
DWIDTH 8 0
BBX 7 6 1 -1
BITMAP
A0
A0
EC
AC
AC
AE
ENDCHAR
STARTCHAR 2121
ENCODING 8481
SWIDTH 1000 0
DWIDTH 8 0
BBX 7 6 1 0
BITMAP
C0
68
68
78
68
6A
ENDCHAR
STARTCHAR 2127
ENCODING 8487
SWIDTH 875 0
DWIDTH 7 0
BBX 5 6 1 0
BITMAP
D8
90
88
88
88
70
ENDCHAR
STARTCHAR 212B
ENCODING 8491
SWIDTH 1000 0
DWIDTH 8 0
BBX 4 6 2 0
BITMAP
60
00
E0
A0
F0
10
ENDCHAR
STARTCHAR 2135
ENCODING 8501
SWIDTH 750 0
DWIDTH 6 0
BBX 4 6 1 0
BITMAP
90
90
E0
A0
90
90
ENDCHAR
STARTCHAR 2153
ENCODING 8531
SWIDTH 750 0
DWIDTH 6 0
BBX 6 6 0 -1
BITMAP
C0
48
50
2C
44
0C
ENDCHAR
STARTCHAR 2154
ENCODING 8532
SWIDTH 750 0
DWIDTH 6 0
BBX 6 6 0 -1
BITMAP
C0
50
90
E8
44
4C
ENDCHAR
STARTCHAR 2155
ENCODING 8533
SWIDTH 750 0
DWIDTH 6 0
BBX 6 6 0 -1
BITMAP
C4
48
50
2C
4C
0C
ENDCHAR
STARTCHAR 2160
ENCODING 8544
SWIDTH 1000 0
DWIDTH 8 0
BBX 1 6 4 0
BITMAP
80
80
80
80
80
80
ENDCHAR
STARTCHAR 2161
ENCODING 8545
SWIDTH 1000 0
DWIDTH 8 0
BBX 6 6 1 0
BITMAP
FC
48
48
48
48
FC
ENDCHAR
STARTCHAR 2162
ENCODING 8546
SWIDTH 1000 0
DWIDTH 8 0
BBX 4 6 2 0
BITMAP
F0
B0
B0
B0
B0
B0
ENDCHAR
STARTCHAR 2163
ENCODING 8547
SWIDTH 1000 0
DWIDTH 8 0
BBX 6 6 2 -1
BITMAP
E0
A4
A8
98
98
90
ENDCHAR
STARTCHAR 2164
ENCODING 8548
SWIDTH 1000 0
DWIDTH 8 0
BBX 5 4 1 1
BITMAP
88
50
30
30
ENDCHAR
STARTCHAR 2165
ENCODING 8549
SWIDTH 1000 0
DWIDTH 8 0
BBX 6 6 0 -1
BITMAP
9C
94
A4
64
64
44
ENDCHAR
STARTCHAR 2166
ENCODING 8550
SWIDTH 1000 0
DWIDTH 8 0
BBX 7 6 0 -1
BITMAP
1E
96
56
66
66
26
ENDCHAR
STARTCHAR 2167
ENCODING 8551
SWIDTH 1000 0
DWIDTH 8 0
BBX 7 6 0 -1
BITMAP
BE
AE
AE
6E
4E
4E
ENDCHAR
STARTCHAR 2168
ENCODING 8552
SWIDTH 1000 0
DWIDTH 8 0
BBX 6 6 1 0
BITMAP
E4
98
90
88
B8
A4
ENDCHAR
STARTCHAR 2169
ENCODING 8553
SWIDTH 1000 0
DWIDTH 8 0
BBX 4 6 2 0
BITMAP
90
60
40
60
90
10
ENDCHAR
STARTCHAR 216A
ENCODING 8554
SWIDTH 1000 0
DWIDTH 8 0
BBX 6 6 1 0
BITMAP
BC
64
44
64
A4
94
ENDCHAR
STARTCHAR 216B
ENCODING 8555
SWIDTH 1000 0
DWIDTH 8 0
BBX 6 6 1 0
BITMAP
BC
CC
4C
CC
AC
2C
ENDCHAR
STARTCHAR 2170
ENCODING 8560
SWIDTH 1000 0
DWIDTH 8 0
BBX 1 6 4 0
BITMAP
80
00
80
80
80
80
ENDCHAR
STARTCHAR 2171
ENCODING 8561
SWIDTH 1000 0
DWIDTH 8 0
BBX 3 6 3 0
BITMAP
A0
00
A0
A0
A0
A0
ENDCHAR
STARTCHAR 2172
ENCODING 8562
SWIDTH 1000 0
DWIDTH 8 0
BBX 4 6 2 0
BITMAP
B0
00
B0
B0
B0
B0
ENDCHAR
STARTCHAR 2173
ENCODING 8563
SWIDTH 1000 0
DWIDTH 8 0
BBX 5 6 2 -1
BITMAP
80
00
A0
A8
90
90
ENDCHAR
STARTCHAR 2174
ENCODING 8564
SWIDTH 1000 0
DWIDTH 8 0
BBX 4 3 2 0
BITMAP
90
A0
60
ENDCHAR
STARTCHAR 2175
ENCODING 8565
SWIDTH 1000 0
DWIDTH 8 0
BBX 6 6 0 -1
BITMAP
04
00
1C
A4
64
44
ENDCHAR
STARTCHAR 2176
ENCODING 8566
SWIDTH 1000 0
DWIDTH 8 0
BBX 7 7 0 -1
BITMAP
0A
00
BA
AA
4A
4A
04
ENDCHAR
STARTCHAR 2177
ENCODING 8567
SWIDTH 1000 0
DWIDTH 8 0
BBX 7 6 0 -1
BITMAP
0E
00
3E
AE
6E
4E
ENDCHAR
STARTCHAR 2178
ENCODING 8568
SWIDTH 1000 0
DWIDTH 8 0
BBX 5 6 2 0
BITMAP
80
00
80
98
90
A8
ENDCHAR
STARTCHAR 2179
ENCODING 8569
SWIDTH 1000 0
DWIDTH 8 0
BBX 4 4 2 0
BITMAP
80
60
60
90
ENDCHAR
STARTCHAR 217A
ENCODING 8570
SWIDTH 1000 0
DWIDTH 8 0
BBX 5 6 1 0
BITMAP
08
00
88
48
C8
28
ENDCHAR
STARTCHAR 217B
ENCODING 8571
SWIDTH 1000 0
DWIDTH 8 0
BBX 7 6 0 0
BITMAP
0A
00
BA
4A
CA
AA
ENDCHAR
STARTCHAR 2190
ENCODING 8592
SWIDTH 1000 0
DWIDTH 8 0
BBX 7 3 0 1
BITMAP
40
FE
40
ENDCHAR
STARTCHAR 2191
ENCODING 8593
SWIDTH 1000 0
DWIDTH 8 0
BBX 3 7 3 -1
BITMAP
40
E0
40
40
40
40
40
ENDCHAR
STARTCHAR 2192
ENCODING 8594
SWIDTH 1000 0
DWIDTH 8 0
BBX 7 3 1 1
BITMAP
04
FE
04
ENDCHAR
STARTCHAR 2193
ENCODING 8595
SWIDTH 1000 0
DWIDTH 8 0
BBX 3 8 3 -1
BITMAP
40
40
40
40
40
40
E0
40
ENDCHAR
STARTCHAR 2194
ENCODING 8596
SWIDTH 750 0
DWIDTH 6 0
BBX 5 3 0 0
BITMAP
40
F8
48
ENDCHAR
STARTCHAR 2196
ENCODING 8598
SWIDTH 1000 0
DWIDTH 8 0
BBX 6 6 1 0
BITMAP
E0
C0
20
10
08
04
ENDCHAR
STARTCHAR 2197
ENCODING 8599
SWIDTH 1000 0
DWIDTH 8 0
BBX 6 6 1 0
BITMAP
1C
0C
10
20
40
80
ENDCHAR
STARTCHAR 2198
ENCODING 8600
SWIDTH 1000 0
DWIDTH 8 0
BBX 6 6 1 0
BITMAP
80
40
20
10
0C
0C
ENDCHAR
STARTCHAR 2199
ENCODING 8601
SWIDTH 1000 0
DWIDTH 8 0
BBX 6 6 1 0
BITMAP
04
08
10
20
C0
C0
ENDCHAR
STARTCHAR 21C4
ENCODING 8644
SWIDTH 1000 0
DWIDTH 8 0
BBX 8 6 0 0
BITMAP
02
7F
00
00
FE
40
ENDCHAR
STARTCHAR 21D2
ENCODING 8658
SWIDTH 750 0
DWIDTH 6 0
BBX 4 2 1 2
BITMAP
20
F0
ENDCHAR
STARTCHAR 21D4
ENCODING 8660
SWIDTH 750 0
DWIDTH 6 0
BBX 5 3 0 2
BITMAP
50
F8
50
ENDCHAR
STARTCHAR 21E6
ENCODING 8678
SWIDTH 1000 0
DWIDTH 8 0
BBX 6 2 1 2
BITMAP
40
FC
ENDCHAR
STARTCHAR 21E7
ENCODING 8679
SWIDTH 1000 0
DWIDTH 8 0
BBX 2 5 3 1
BITMAP
80
C0
80
80
80
ENDCHAR
STARTCHAR 21E8
ENCODING 8680
SWIDTH 1000 0
DWIDTH 8 0
BBX 5 2 2 2
BITMAP
10
F8
ENDCHAR
STARTCHAR 21E9
ENCODING 8681
SWIDTH 1000 0
DWIDTH 8 0
BBX 2 6 3 -1
BITMAP
80
80
80
80
C0
80
ENDCHAR
STARTCHAR 2200
ENCODING 8704
SWIDTH 750 0
DWIDTH 6 0
BBX 5 5 0 0
BITMAP
80
88
78
50
30
ENDCHAR
STARTCHAR 2202
ENCODING 8706
SWIDTH 625 0
DWIDTH 5 0
BBX 4 6 0 0
BITMAP
30
10
70
90
90
E0
ENDCHAR
STARTCHAR 2203
ENCODING 8707
SWIDTH 750 0
DWIDTH 6 0
BBX 5 6 0 0
BITMAP
F8
08
08
F8
08
F8
ENDCHAR
STARTCHAR 2205
ENCODING 8709
SWIDTH 750 0
DWIDTH 6 0
BBX 5 5 1 1
BITMAP
70
A8
C8
98
70
ENDCHAR
STARTCHAR 2207
ENCODING 8711
SWIDTH 750 0
DWIDTH 6 0
BBX 5 6 0 -1
BITMAP
78
88
48
50
30
20
ENDCHAR
STARTCHAR 2208
ENCODING 8712
SWIDTH 625 0
DWIDTH 5 0
BBX 5 4 0 1
BITMAP
38
C0
78
78
ENDCHAR
STARTCHAR 2209
ENCODING 8713
SWIDTH 625 0
DWIDTH 5 0
BBX 5 4 0 0
BITMAP
78
A0
78
78
ENDCHAR
STARTCHAR 220B
ENCODING 8715
SWIDTH 625 0
DWIDTH 5 0
BBX 4 4 1 1
BITMAP
E0
10
F0
E0
ENDCHAR
STARTCHAR 2212
ENCODING 8722
SWIDTH 625 0
DWIDTH 5 0
BBX 4 1 1 2
BITMAP
F0
ENDCHAR
STARTCHAR 2213
ENCODING 8723
SWIDTH 625 0
DWIDTH 5 0
BBX 5 6 1 -1
BITMAP
F8
20
20
F8
20
20
ENDCHAR
STARTCHAR 2219
ENCODING 8729
SWIDTH 250 0
DWIDTH 2 0
BBX 1 1 1 2
BITMAP
80
ENDCHAR
STARTCHAR 221A
ENCODING 8730
SWIDTH 500 0
DWIDTH 4 0
BBX 4 6 0 1
BITMAP
10
20
20
20
C0
40
ENDCHAR
STARTCHAR 221D
ENCODING 8733
SWIDTH 625 0
DWIDTH 5 0
BBX 4 3 1 1
BITMAP
F0
C0
F0
ENDCHAR
STARTCHAR 221E
ENCODING 8734
SWIDTH 625 0
DWIDTH 5 0
BBX 5 3 0 1
BITMAP
D8
A8
D8
ENDCHAR
STARTCHAR 221F
ENCODING 8735
SWIDTH 625 0
DWIDTH 5 0
BBX 5 5 1 1
BITMAP
80
80
80
80
F8
ENDCHAR
STARTCHAR 2220
ENCODING 8736
SWIDTH 625 0
DWIDTH 5 0
BBX 5 5 0 1
BITMAP
20
40
40
80
78
ENDCHAR
STARTCHAR 2225
ENCODING 8741
SWIDTH 625 0
DWIDTH 5 0
BBX 5 7 0 -1
BITMAP
18
30
30
50
60
60
A0
ENDCHAR
STARTCHAR 2226
ENCODING 8742
SWIDTH 625 0
DWIDTH 5 0
BBX 4 7 1 -1
BITMAP
10
60
E0
60
A0
C0
40
ENDCHAR
STARTCHAR 2227
ENCODING 8743
SWIDTH 625 0
DWIDTH 5 0
BBX 4 4 1 1
BITMAP
C0
A0
A0
10
ENDCHAR
STARTCHAR 2228
ENCODING 8744
SWIDTH 625 0
DWIDTH 5 0
BBX 5 5 0 0
BITMAP
08
90
50
60
20
ENDCHAR
STARTCHAR 2229
ENCODING 8745
SWIDTH 625 0
DWIDTH 5 0
BBX 4 5 1 0
BITMAP
60
90
90
90
90
ENDCHAR
STARTCHAR 222A
ENCODING 8746
SWIDTH 625 0
DWIDTH 5 0
BBX 4 5 1 0
BITMAP
90
90
90
90
60
ENDCHAR
STARTCHAR 222B
ENCODING 8747
SWIDTH 625 0
DWIDTH 5 0
BBX 4 7 0 -1
BITMAP
30
20
20
40
40
40
C0
ENDCHAR
STARTCHAR 222C
ENCODING 8748
SWIDTH 875 0
DWIDTH 7 0
BBX 7 7 0 -1
BITMAP
36
28
28
48
48
48
D8
ENDCHAR
STARTCHAR 222E
ENCODING 8750
SWIDTH 625 0
DWIDTH 5 0
BBX 4 7 0 -1
BITMAP
10
20
20
60
40
40
C0
ENDCHAR
STARTCHAR 2234
ENCODING 8756
SWIDTH 625 0
DWIDTH 5 0
BBX 4 3 1 1
BITMAP
40
00
90
ENDCHAR
STARTCHAR 2235
ENCODING 8757
SWIDTH 625 0
DWIDTH 5 0
BBX 4 3 1 1
BITMAP
90
00
40
ENDCHAR
STARTCHAR 223C
ENCODING 8764
SWIDTH 500 0
DWIDTH 4 0
BBX 2 1 1 5
BITMAP
C0
ENDCHAR
STARTCHAR 223D
ENCODING 8765
SWIDTH 625 0
DWIDTH 5 0
BBX 5 3 0 1
BITMAP
D8
A8
C8
ENDCHAR
STARTCHAR 2243
ENCODING 8771
SWIDTH 625 0
DWIDTH 5 0
BBX 5 3 0 1
BITMAP
78
00
F8
ENDCHAR
STARTCHAR 2245
ENCODING 8773
SWIDTH 625 0
DWIDTH 5 0
BBX 5 3 0 2
BITMAP
78
00
F8
ENDCHAR
STARTCHAR 2248
ENCODING 8776
SWIDTH 625 0
DWIDTH 5 0
BBX 4 3 1 1
BITMAP
F0
00
F0
ENDCHAR
STARTCHAR 2252
ENCODING 8786
SWIDTH 625 0
DWIDTH 5 0
BBX 4 5 1 0
BITMAP
80
00
F0
00
20
ENDCHAR
STARTCHAR 2260
ENCODING 8800
SWIDTH 625 0
DWIDTH 5 0
BBX 4 2 1 2
BITMAP
F0
80
ENDCHAR
STARTCHAR 2261
ENCODING 8801
SWIDTH 625 0
DWIDTH 5 0
BBX 4 3 1 1
BITMAP
F0
F0
F0
ENDCHAR
STARTCHAR 2262
ENCODING 8802
SWIDTH 625 0
DWIDTH 5 0
BBX 4 4 1 0
BITMAP
20
F0
F0
F0
ENDCHAR
STARTCHAR 2266
ENCODING 8806
SWIDTH 625 0
DWIDTH 5 0
BBX 4 5 1 1
BITMAP
60
80
70
F0
F0
ENDCHAR
STARTCHAR 2267
ENCODING 8807
SWIDTH 625 0
DWIDTH 5 0
BBX 4 5 1 1
BITMAP
E0
20
C0
F0
F0
ENDCHAR
STARTCHAR 226A
ENCODING 8810
SWIDTH 625 0
DWIDTH 5 0
BBX 5 4 0 0
BITMAP
08
50
A0
50
ENDCHAR
STARTCHAR 226B
ENCODING 8811
SWIDTH 625 0
DWIDTH 5 0
BBX 4 4 1 0
BITMAP
40
A0
50
A0
ENDCHAR
STARTCHAR 2276
ENCODING 8822
SWIDTH 625 0
DWIDTH 5 0
BBX 4 5 1 1
BITMAP
60
80
F0
70
E0
ENDCHAR
STARTCHAR 2277
ENCODING 8823
SWIDTH 625 0
DWIDTH 5 0
BBX 5 5 0 1
BITMAP
60
10
70
E0
78
ENDCHAR
STARTCHAR 2282
ENCODING 8834
SWIDTH 625 0
DWIDTH 5 0
BBX 4 4 1 1
BITMAP
70
80
80
F0
ENDCHAR
STARTCHAR 2283
ENCODING 8835
SWIDTH 625 0
DWIDTH 5 0
BBX 4 4 1 1
BITMAP
E0
10
10
E0
ENDCHAR
STARTCHAR 2284
ENCODING 8836
SWIDTH 625 0
DWIDTH 5 0
BBX 4 4 1 0
BITMAP
F0
A0
C0
F0
ENDCHAR
STARTCHAR 2285
ENCODING 8837
SWIDTH 625 0
DWIDTH 5 0
BBX 4 6 1 -1
BITMAP
20
E0
50
90
E0
80
ENDCHAR
STARTCHAR 2286
ENCODING 8838
SWIDTH 625 0
DWIDTH 5 0
BBX 4 4 1 1
BITMAP
F0
80
F0
F0
ENDCHAR
STARTCHAR 2287
ENCODING 8839
SWIDTH 625 0
DWIDTH 5 0
BBX 4 4 1 1
BITMAP
E0
10
F0
F0
ENDCHAR
STARTCHAR 228A
ENCODING 8842
SWIDTH 625 0
DWIDTH 5 0
BBX 4 5 1 -1
BITMAP
F0
80
80
F0
40
ENDCHAR
STARTCHAR 228B
ENCODING 8843
SWIDTH 625 0
DWIDTH 5 0
BBX 4 5 1 -1
BITMAP
E0
10
10
F0
40
ENDCHAR
STARTCHAR 2295
ENCODING 8853
SWIDTH 875 0
DWIDTH 7 0
BBX 7 6 0 0
BITMAP
38
54
92
FE
D2
7C
ENDCHAR
STARTCHAR 2296
ENCODING 8854
SWIDTH 875 0
DWIDTH 7 0
BBX 6 6 0 0
BITMAP
78
C4
84
FC
C4
78
ENDCHAR
STARTCHAR 2297
ENCODING 8855
SWIDTH 875 0
DWIDTH 7 0
BBX 6 6 0 0
BITMAP
78
C4
BC
B4
CC
38
ENDCHAR
STARTCHAR 22A5
ENCODING 8869
SWIDTH 625 0
DWIDTH 5 0
BBX 5 5 1 1
BITMAP
20
20
20
20
F8
ENDCHAR
STARTCHAR 22BF
ENCODING 8895
SWIDTH 625 0
DWIDTH 5 0
BBX 5 5 0 1
BITMAP
08
38
48
88
F8
ENDCHAR
STARTCHAR 22DA
ENCODING 8922
SWIDTH 625 0
DWIDTH 5 0
BBX 5 6 0 0
BITMAP
18
E0
38
78
C0
30
ENDCHAR
STARTCHAR 22DB
ENCODING 8923
SWIDTH 625 0
DWIDTH 5 0
BBX 4 6 1 0
BITMAP
80
70
E0
F0
30
E0
ENDCHAR
STARTCHAR 2305
ENCODING 8965
SWIDTH 625 0
DWIDTH 5 0
BBX 5 4 0 -1
BITMAP
F8
20
50
40
ENDCHAR
STARTCHAR 2306
ENCODING 8966
SWIDTH 625 0
DWIDTH 5 0
BBX 5 5 0 0
BITMAP
F8
F8
20
50
40
ENDCHAR
STARTCHAR 2312
ENCODING 8978
SWIDTH 1000 0
DWIDTH 8 0
BBX 6 1 1 4
BITMAP
FC
ENDCHAR
STARTCHAR 2318
ENCODING 8984
SWIDTH 1000 0
DWIDTH 8 0
BBX 8 8 0 -1
BITMAP
E7
A5
FF
24
24
FE
A5
E7
ENDCHAR
STARTCHAR 23BE
ENCODING 9150
SWIDTH 1000 0
DWIDTH 8 0
BBX 5 9 4 -2
BITMAP
F8
80
80
80
80
80
80
80
80
ENDCHAR
STARTCHAR 23BF
ENCODING 9151
SWIDTH 1000 0
DWIDTH 8 0
BBX 5 9 4 -1
BITMAP
80
80
80
80
80
80
80
80
F8
ENDCHAR
STARTCHAR 23C0
ENCODING 9152
SWIDTH 1000 0
DWIDTH 8 0
BBX 7 8 1 0
BITMAP
10
7C
92
92
92
92
54
38
ENDCHAR
STARTCHAR 23C1
ENCODING 9153
SWIDTH 1000 0
DWIDTH 8 0
BBX 9 9 0 -2
BITMAP
FF80
0800
3E00
4900
4900
4900
4A00
3C00
0800
ENDCHAR
STARTCHAR 23C2
ENCODING 9154
SWIDTH 1000 0
DWIDTH 8 0
BBX 9 9 0 -1
BITMAP
0800
1C00
2A00
4900
4900
4900
2A00
1C00
FF80
ENDCHAR
STARTCHAR 23C3
ENCODING 9155
SWIDTH 1000 0
DWIDTH 8 0
BBX 7 8 1 -1
BITMAP
10
10
78
58
94
94
FE
10
ENDCHAR
STARTCHAR 23C4
ENCODING 9156
SWIDTH 1000 0
DWIDTH 8 0
BBX 9 8 0 -2
BITMAP
FF80
0800
1C00
2C00
4A00
4A00
7F00
0800
ENDCHAR
STARTCHAR 23C5
ENCODING 9157
SWIDTH 1000 0
DWIDTH 8 0
BBX 9 8 0 0
BITMAP
0800
0800
3C00
2C00
4A00
4A00
7F00
FF80
ENDCHAR
STARTCHAR 23C6
ENCODING 9158
SWIDTH 1000 0
DWIDTH 8 0
BBX 7 8 1 0
BITMAP
10
10
10
F0
1E
10
10
10
ENDCHAR
STARTCHAR 23C7
ENCODING 9159
SWIDTH 1000 0
DWIDTH 8 0
BBX 9 9 0 -2
BITMAP
FF80
0800
0800
0800
7800
0F00
0800
0800
0800
ENDCHAR
STARTCHAR 23C8
ENCODING 9160
SWIDTH 1000 0
DWIDTH 8 0
BBX 9 9 0 -1
BITMAP
0800
0800
0800
6800
1F00
0800
0800
0800
FF80
ENDCHAR
STARTCHAR 23C9
ENCODING 9161
SWIDTH 1000 0
DWIDTH 8 0
BBX 9 9 0 -2
BITMAP
FF80
0800
0800
0800
0800
0800
0800
0800
0800
ENDCHAR
STARTCHAR 23CA
ENCODING 9162
SWIDTH 1000 0
DWIDTH 8 0
BBX 9 9 0 -1
BITMAP
0800
0800
0800
0800
0800
0800
0800
0800
FF80
ENDCHAR
STARTCHAR 23CB
ENCODING 9163
SWIDTH 1000 0
DWIDTH 8 0
BBX 5 9 -1 -2
BITMAP
F8
08
08
08
08
08
08
08
08
ENDCHAR
STARTCHAR 23CC
ENCODING 9164
SWIDTH 1000 0
DWIDTH 8 0
BBX 5 9 -1 -1
BITMAP
08
08
08
08
08
08
08
08
F8
ENDCHAR
STARTCHAR 23CE
ENCODING 9166
SWIDTH 1000 0
DWIDTH 8 0
BBX 6 6 1 -1
BITMAP
1C
14
34
F4
BC
60
ENDCHAR
STARTCHAR 2423
ENCODING 9251
SWIDTH 1000 0
DWIDTH 8 0
BBX 6 2 1 1
BITMAP
84
FC
ENDCHAR
STARTCHAR 2460
ENCODING 9312
SWIDTH 1000 0
DWIDTH 8 0
BBX 7 7 1 0
BITMAP
78
B4
92
92
92
94
78
ENDCHAR
STARTCHAR 2461
ENCODING 9313
SWIDTH 1000 0
DWIDTH 8 0
BBX 7 8 1 0
BITMAP
38
C4
BE
8A
92
A2
BC
78
ENDCHAR
STARTCHAR 2462
ENCODING 9314
SWIDTH 1000 0
DWIDTH 8 0
BBX 8 8 0 -1
BITMAP
38
5E
85
89
85
BD
42
3C
ENDCHAR
STARTCHAR 2463
ENCODING 9315
SWIDTH 1000 0
DWIDTH 8 0
BBX 8 6 0 0
BITMAP
7E
8B
B9
C9
BE
7C
ENDCHAR
STARTCHAR 2464
ENCODING 9316
SWIDTH 1000 0
DWIDTH 8 0
BBX 8 8 0 -2
BITMAP
3C
5A
A1
9D
85
B9
42
3C
ENDCHAR
STARTCHAR 2465
ENCODING 9317
SWIDTH 1000 0
DWIDTH 8 0
BBX 8 8 0 -1
BITMAP
38
5E
A1
BD
A5
9D
42
3C
ENDCHAR
STARTCHAR 2466
ENCODING 9318
SWIDTH 1000 0
DWIDTH 8 0
BBX 7 8 1 -2
BITMAP
7C
BC
8A
92
92
92
44
38
ENDCHAR
STARTCHAR 2467
ENCODING 9319
SWIDTH 1000 0
DWIDTH 8 0
BBX 8 8 0 -1
BITMAP
38
5E
99
99
A5
BD
42
3C
ENDCHAR
STARTCHAR 2468
ENCODING 9320
SWIDTH 1000 0
DWIDTH 8 0
BBX 8 8 0 -1
BITMAP
38
5E
A5
A5
BD
99
42
3C
ENDCHAR
STARTCHAR 2469
ENCODING 9321
SWIDTH 1000 0
DWIDTH 8 0
BBX 8 7 0 0
BITMAP
3C
EE
AD
AD
AD
AE
7C
ENDCHAR
STARTCHAR 246A
ENCODING 9322
SWIDTH 1000 0
DWIDTH 8 0
BBX 8 7 0 0
BITMAP
3C
E6
A5
A5
A5
A6
7C
ENDCHAR
STARTCHAR 246B
ENCODING 9323
SWIDTH 1000 0
DWIDTH 8 0
BBX 7 8 0 0
BITMAP
38
44
AE
A6
AA
AA
6C
3C
ENDCHAR
STARTCHAR 246C
ENCODING 9324
SWIDTH 1000 0
DWIDTH 8 0
BBX 8 7 0 0
BITMAP
3C
EE
AD
A9
A5
AE
7C
ENDCHAR
STARTCHAR 246D
ENCODING 9325
SWIDTH 1000 0
DWIDTH 8 0
BBX 8 6 0 0
BITMAP
7E
A7
AD
B5
AE
7C
ENDCHAR
STARTCHAR 246E
ENCODING 9326
SWIDTH 1000 0
DWIDTH 8 0
BBX 8 6 0 0
BITMAP
7E
AF
B1
AD
AE
7C
ENDCHAR
STARTCHAR 246F
ENCODING 9327
SWIDTH 1000 0
DWIDTH 8 0
BBX 8 7 0 0
BITMAP
3C
EE
A9
B5
AD
AE
7C
ENDCHAR
STARTCHAR 2470
ENCODING 9328
SWIDTH 1000 0
DWIDTH 8 0
BBX 8 6 0 0
BITMAP
7E
AF
A5
A5
A6
7C
ENDCHAR
STARTCHAR 2471
ENCODING 9329
SWIDTH 1000 0
DWIDTH 8 0
BBX 8 7 0 0
BITMAP
3C
EE
AD
A9
AD
AE
7C
ENDCHAR
STARTCHAR 2472
ENCODING 9330
SWIDTH 1000 0
DWIDTH 8 0
BBX 8 7 0 0
BITMAP
3C
EE
AD
AD
A5
AE
7C
ENDCHAR
STARTCHAR 2473
ENCODING 9331
SWIDTH 1000 0
DWIDTH 8 0
BBX 7 8 1 0
BITMAP
38
C4
FE
B6
D6
D6
7C
38
ENDCHAR
STARTCHAR 24D0
ENCODING 9424
SWIDTH 1000 0
DWIDTH 8 0
BBX 8 8 0 -1
BITMAP
38
C6
BB
89
B9
BD
42
3C
ENDCHAR
STARTCHAR 24D1
ENCODING 9425
SWIDTH 1000 0
DWIDTH 8 0
BBX 8 8 0 -1
BITMAP
1C
62
91
9D
95
9D
42
3C
ENDCHAR
STARTCHAR 24D2
ENCODING 9426
SWIDTH 1000 0
DWIDTH 8 0
BBX 8 8 0 -1
BITMAP
38
46
99
91
91
99
42
3C
ENDCHAR
STARTCHAR 24D3
ENCODING 9427
SWIDTH 1000 0
DWIDTH 8 0
BBX 8 8 0 -1
BITMAP
38
C6
8B
B9
A9
B9
42
3C
ENDCHAR
STARTCHAR 24D4
ENCODING 9428
SWIDTH 1000 0
DWIDTH 8 0
BBX 8 7 0 -1
BITMAP
3C
C2
B9
B9
B9
42
3C
ENDCHAR
STARTCHAR 24D5
ENCODING 9429
SWIDTH 1000 0
DWIDTH 8 0
BBX 8 7 1 0
BITMAP
38
DE
91
91
91
92
7C
ENDCHAR
STARTCHAR 24D6
ENCODING 9430
SWIDTH 1000 0
DWIDTH 8 0
BBX 8 8 0 -1
BITMAP
38
46
9D
99
9D
BD
42
3C
ENDCHAR
STARTCHAR 24D7
ENCODING 9431
SWIDTH 1000 0
DWIDTH 8 0
BBX 6 7 1 0
BITMAP
70
A8
A4
B4
B4
B8
78
ENDCHAR
STARTCHAR 24D8
ENCODING 9432
SWIDTH 1000 0
DWIDTH 8 0
BBX 7 7 1 0
BITMAP
38
D4
82
92
92
94
7C
ENDCHAR
STARTCHAR 24D9
ENCODING 9433
SWIDTH 1000 0
DWIDTH 8 0
BBX 8 8 0 -1
BITMAP
1C
6E
81
89
89
89
5A
3C
ENDCHAR
STARTCHAR 24DA
ENCODING 9434
SWIDTH 1000 0
DWIDTH 8 0
BBX 8 8 0 -1
BITMAP
1C
62
91
95
99
95
42
3C
ENDCHAR
STARTCHAR 24DB
ENCODING 9435
SWIDTH 1000 0
DWIDTH 8 0
BBX 7 7 1 0
BITMAP
38
D4
92
92
92
94
7C
ENDCHAR
STARTCHAR 24DC
ENCODING 9436
SWIDTH 1000 0
DWIDTH 8 0
BBX 7 7 0 0
BITMAP
3C
44
BE
AE
AE
84
78
ENDCHAR
STARTCHAR 24DD
ENCODING 9437
SWIDTH 1000 0
DWIDTH 8 0
BBX 6 7 1 0
BITMAP
78
88
B4
B4
B4
88
78
ENDCHAR
STARTCHAR 24DE
ENCODING 9438
SWIDTH 1000 0
DWIDTH 8 0
BBX 8 8 0 -1
BITMAP
38
46
99
A5
A5
99
42
3C
ENDCHAR
STARTCHAR 24DF
ENCODING 9439
SWIDTH 1000 0
DWIDTH 8 0
BBX 8 7 0 0
BITMAP
3C
42
9D
95
9D
92
7C
ENDCHAR
STARTCHAR 24E0
ENCODING 9440
SWIDTH 1000 0
DWIDTH 8 0
BBX 8 7 0 0
BITMAP
3C
C6
B9
A9
B9
8A
7C
ENDCHAR
STARTCHAR 24E1
ENCODING 9441
SWIDTH 1000 0
DWIDTH 8 0
BBX 8 7 0 -1
BITMAP
3C
C6
9D
91
91
82
7C
ENDCHAR
STARTCHAR 24E2
ENCODING 9442
SWIDTH 1000 0
DWIDTH 8 0
BBX 6 8 1 -1
BITMAP
30
C8
A4
B4
94
14
88
70
ENDCHAR
STARTCHAR 24E3
ENCODING 9443
SWIDTH 1000 0
DWIDTH 8 0
BBX 8 7 0 -1
BITMAP
7E
92
91
91
99
42
3C
ENDCHAR
STARTCHAR 24E4
ENCODING 9444
SWIDTH 1000 0
DWIDTH 8 0
BBX 6 8 1 -1
BITMAP
30
C8
F4
B4
B4
B4
88
70
ENDCHAR
STARTCHAR 24E5
ENCODING 9445
SWIDTH 1000 0
DWIDTH 8 0
BBX 8 7 0 -1
BITMAP
3C
C2
81
99
91
42
3C
ENDCHAR
STARTCHAR 24E6
ENCODING 9446
SWIDTH 1000 0
DWIDTH 8 0
BBX 8 7 0 -1
BITMAP
3C
C2
A1
AD
99
42
3C
ENDCHAR
STARTCHAR 24E7
ENCODING 9447
SWIDTH 1000 0
DWIDTH 8 0
BBX 8 7 0 0
BITMAP
3C
42
81
99
89
42
3C
ENDCHAR
STARTCHAR 24E8
ENCODING 9448
SWIDTH 1000 0
DWIDTH 8 0
BBX 8 7 0 0
BITMAP
3C
42
81
99
89
92
7C
ENDCHAR
STARTCHAR 24E9
ENCODING 9449
SWIDTH 1000 0
DWIDTH 8 0
BBX 6 7 1 0
BITMAP
78
88
B4
A4
A4
88
78
ENDCHAR
STARTCHAR 24EB
ENCODING 9451
SWIDTH 1000 0
DWIDTH 8 0
BBX 8 7 0 0
BITMAP
3C
5A
DB
DB
DB
5A
3C
ENDCHAR
STARTCHAR 24EC
ENCODING 9452
SWIDTH 1000 0
DWIDTH 8 0
BBX 7 7 0 0
BITMAP
38
7C
DA
DA
DE
54
38
ENDCHAR
STARTCHAR 24ED
ENCODING 9453
SWIDTH 1000 0
DWIDTH 8 0
BBX 7 7 0 0
BITMAP
38
64
EE
F6
FA
6C
38
ENDCHAR
STARTCHAR 24EE
ENCODING 9454
SWIDTH 1000 0
DWIDTH 8 0
BBX 8 6 0 0
BITMAP
7E
DB
D3
DB
5A
3C
ENDCHAR
STARTCHAR 24EF
ENCODING 9455
SWIDTH 1000 0
DWIDTH 8 0
BBX 7 6 0 0
BITMAP
7C
EE
EA
FA
6C
38
ENDCHAR
STARTCHAR 24F0
ENCODING 9456
SWIDTH 1000 0
DWIDTH 8 0
BBX 7 7 0 0
BITMAP
38
74
EE
EA
EA
6C
38
ENDCHAR
STARTCHAR 24F1
ENCODING 9457
SWIDTH 1000 0
DWIDTH 8 0
BBX 8 6 0 0
BITMAP
7C
DF
DB
DB
5A
3C
ENDCHAR
STARTCHAR 24F2
ENCODING 9458
SWIDTH 1000 0
DWIDTH 8 0
BBX 7 7 0 0
BITMAP
38
64
EE
F6
FA
7C
38
ENDCHAR
STARTCHAR 24F3
ENCODING 9459
SWIDTH 1000 0
DWIDTH 8 0
BBX 7 7 0 0
BITMAP
38
64
EA
EE
FA
6C
38
ENDCHAR
STARTCHAR 24F4
ENCODING 9460
SWIDTH 1000 0
DWIDTH 8 0
BBX 7 7 1 0
BITMAP
38
7C
DA
DA
BA
BC
78
ENDCHAR
STARTCHAR 24F5
ENCODING 9461
SWIDTH 1000 0
DWIDTH 8 0
BBX 8 8 0 -1
BITMAP
3C
6A
89
89
89
C9
66
3C
ENDCHAR
STARTCHAR 24F6
ENCODING 9462
SWIDTH 1000 0
DWIDTH 8 0
BBX 7 9 1 -1
BITMAP
38
C4
BE
0A
12
22
BE
4C
78
ENDCHAR
STARTCHAR 24F7
ENCODING 9463
SWIDTH 1000 0
DWIDTH 8 0
BBX 8 8 0 -1
BITMAP
7C
FE
9B
8B
87
BD
C6
7C
ENDCHAR
STARTCHAR 24F8
ENCODING 9464
SWIDTH 1000 0
DWIDTH 8 0
BBX 8 7 0 -1
BITMAP
7C
8A
BB
CB
BF
C6
7C
ENDCHAR
STARTCHAR 24F9
ENCODING 9465
SWIDTH 1000 0
DWIDTH 8 0
BBX 8 7 0 -1
BITMAP
7C
9A
A3
9F
BF
C6
7C
ENDCHAR
STARTCHAR 24FA
ENCODING 9466
SWIDTH 1000 0
DWIDTH 8 0
BBX 8 8 0 -1
BITMAP
7C
FE
9B
BF
A7
99
C6
7C
ENDCHAR
STARTCHAR 24FB
ENCODING 9467
SWIDTH 1000 0
DWIDTH 8 0
BBX 7 8 1 -1
BITMAP
38
C4
BA
12
12
12
DC
68
ENDCHAR
STARTCHAR 24FC
ENCODING 9468
SWIDTH 1000 0
DWIDTH 8 0
BBX 8 8 0 -1
BITMAP
7C
FE
9B
9B
A7
BD
C6
7C
ENDCHAR
STARTCHAR 24FD
ENCODING 9469
SWIDTH 1000 0
DWIDTH 8 0
BBX 8 8 0 -1
BITMAP
7C
FE
9F
97
9F
99
C6
7C
ENDCHAR
STARTCHAR 24FE
ENCODING 9470
SWIDTH 1000 0
DWIDTH 8 0
BBX 8 8 1 -1
BITMAP
7C
FE
2F
2F
2F
2D
CA
74
ENDCHAR
STARTCHAR 2500
ENCODING 9472
SWIDTH 1000 0
DWIDTH 8 0
BBX 8 1 0 2
BITMAP
FF
ENDCHAR
STARTCHAR 2501
ENCODING 9473
SWIDTH 1000 0
DWIDTH 8 0
BBX 8 1 0 3
BITMAP
FF
ENDCHAR
STARTCHAR 2502
ENCODING 9474
SWIDTH 1000 0
DWIDTH 8 0
BBX 1 8 4 0
BITMAP
80
80
80
80
80
80
80
80
ENDCHAR
STARTCHAR 2503
ENCODING 9475
SWIDTH 1000 0
DWIDTH 8 0
BBX 1 8 4 -1
BITMAP
80
80
80
80
80
80
80
80
ENDCHAR
STARTCHAR 250C
ENCODING 9484
SWIDTH 1000 0
DWIDTH 8 0
BBX 5 5 4 -2
BITMAP
F8
80
80
80
80
ENDCHAR
STARTCHAR 250F
ENCODING 9487
SWIDTH 1000 0
DWIDTH 8 0
BBX 4 5 4 -1
BITMAP
F0
80
80
80
80
ENDCHAR
STARTCHAR 2510
ENCODING 9488
SWIDTH 1000 0
DWIDTH 8 0
BBX 5 5 -1 -2
BITMAP
F8
08
08
08
08
ENDCHAR
STARTCHAR 2513
ENCODING 9491
SWIDTH 1000 0
DWIDTH 8 0
BBX 4 5 0 -1
BITMAP
F0
10
10
10
10
ENDCHAR
STARTCHAR 2514
ENCODING 9492
SWIDTH 1000 0
DWIDTH 8 0
BBX 5 5 4 2
BITMAP
80
80
80
80
F8
ENDCHAR
STARTCHAR 2517
ENCODING 9495
SWIDTH 1000 0
DWIDTH 8 0
BBX 4 4 4 3
BITMAP
80
80
80
F0
ENDCHAR
STARTCHAR 2518
ENCODING 9496
SWIDTH 1000 0
DWIDTH 8 0
BBX 5 5 -1 2
BITMAP
08
08
08
08
F8
ENDCHAR
STARTCHAR 251B
ENCODING 9499
SWIDTH 1000 0
DWIDTH 8 0
BBX 4 4 0 3
BITMAP
10
10
10
F0
ENDCHAR
STARTCHAR 251C
ENCODING 9500
SWIDTH 1000 0
DWIDTH 8 0
BBX 5 9 4 -2
BITMAP
80
80
80
80
F8
80
80
80
80
ENDCHAR
STARTCHAR 251D
ENCODING 9501
SWIDTH 1000 0
DWIDTH 8 0
BBX 4 9 4 -1
BITMAP
80
80
80
80
F0
80
80
80
80
ENDCHAR
STARTCHAR 2520
ENCODING 9504
SWIDTH 1000 0
DWIDTH 8 0
BBX 5 8 4 -1
BITMAP
80
80
80
80
F8
80
80
80
ENDCHAR
STARTCHAR 2523
ENCODING 9507
SWIDTH 1000 0
DWIDTH 8 0
BBX 4 8 4 -1
BITMAP
80
80
80
F0
80
80
80
80
ENDCHAR
STARTCHAR 2524
ENCODING 9508
SWIDTH 1000 0
DWIDTH 8 0
BBX 5 9 -1 -2
BITMAP
08
08
08
08
F8
08
08
08
08
ENDCHAR
STARTCHAR 2525
ENCODING 9509
SWIDTH 1000 0
DWIDTH 8 0
BBX 4 9 0 -1
BITMAP
10
10
10
10
F0
10
10
10
10
ENDCHAR
STARTCHAR 2528
ENCODING 9512
SWIDTH 1000 0
DWIDTH 8 0
BBX 5 8 -1 -1
BITMAP
08
08
08
08
F8
08
08
08
ENDCHAR
STARTCHAR 252B
ENCODING 9515
SWIDTH 1000 0
DWIDTH 8 0
BBX 4 8 0 -1
BITMAP
10
10
10
F0
10
10
10
10
ENDCHAR
STARTCHAR 252C
ENCODING 9516
SWIDTH 1000 0
DWIDTH 8 0
BBX 9 5 0 -2
BITMAP
FF80
0800
0800
0800
0800
ENDCHAR
STARTCHAR 252F
ENCODING 9519
SWIDTH 1000 0
DWIDTH 8 0
BBX 8 5 0 -1
BITMAP
FF
08
08
08
08
ENDCHAR
STARTCHAR 2530
ENCODING 9520
SWIDTH 1000 0
DWIDTH 8 0
BBX 9 4 0 -1
BITMAP
FF80
0800
0800
0800
ENDCHAR
STARTCHAR 2533
ENCODING 9523
SWIDTH 1000 0
DWIDTH 8 0
BBX 8 5 0 -1
BITMAP
FF
08
08
08
08
ENDCHAR
STARTCHAR 2534
ENCODING 9524
SWIDTH 1000 0
DWIDTH 8 0
BBX 9 5 0 2
BITMAP
0800
0800
0800
0800
FF80
ENDCHAR
STARTCHAR 2537
ENCODING 9527
SWIDTH 1000 0
DWIDTH 8 0
BBX 8 5 0 3
BITMAP
08
08
08
08
FF
ENDCHAR
STARTCHAR 2538
ENCODING 9528
SWIDTH 1000 0
DWIDTH 8 0
BBX 9 5 0 2
BITMAP
0800
0800
0800
0800
FF80
ENDCHAR
STARTCHAR 253B
ENCODING 9531
SWIDTH 1000 0
DWIDTH 8 0
BBX 8 4 0 3
BITMAP
08
08
08
FF
ENDCHAR
STARTCHAR 253C
ENCODING 9532
SWIDTH 1000 0
DWIDTH 8 0
BBX 9 9 0 -2
BITMAP
0800
0800
0800
0800
FF80
0800
0800
0800
0800
ENDCHAR
STARTCHAR 253F
ENCODING 9535
SWIDTH 1000 0
DWIDTH 8 0
BBX 8 9 0 -1
BITMAP
08
08
08
08
FF
08
08
08
08
ENDCHAR
STARTCHAR 2542
ENCODING 9538
SWIDTH 1000 0
DWIDTH 8 0
BBX 9 8 0 -1
BITMAP
0800
0800
0800
0800
FF80
0800
0800
0800
ENDCHAR
STARTCHAR 254B
ENCODING 9547
SWIDTH 1000 0
DWIDTH 8 0
BBX 8 8 0 -1
BITMAP
08
08
08
FF
08
08
08
08
ENDCHAR
STARTCHAR 25A0
ENCODING 9632
SWIDTH 1000 0
DWIDTH 8 0
BBX 6 6 1 0
BITMAP
FC
FC
FC
FC
FC
FC
ENDCHAR
STARTCHAR 25A1
ENCODING 9633
SWIDTH 1000 0
DWIDTH 8 0
BBX 6 6 1 0
BITMAP
FC
84
84
84
84
FC
ENDCHAR
STARTCHAR 25B1
ENCODING 9649
SWIDTH 1000 0
DWIDTH 8 0
BBX 6 3 1 2
BITMAP
7C
84
F8
ENDCHAR
STARTCHAR 25B2
ENCODING 9650
SWIDTH 1000 0
DWIDTH 8 0
BBX 6 6 1 1
BITMAP
20
30
30
78
78
FC
ENDCHAR
STARTCHAR 25B3
ENCODING 9651
SWIDTH 1000 0
DWIDTH 8 0
BBX 6 6 1 1
BITMAP
30
50
48
88
84
FC
ENDCHAR
STARTCHAR 25B6
ENCODING 9654
SWIDTH 1000 0
DWIDTH 8 0
BBX 6 6 1 0
BITMAP
C0
E0
F8
FC
E0
80
ENDCHAR
STARTCHAR 25B7
ENCODING 9655
SWIDTH 1000 0
DWIDTH 8 0
BBX 6 6 1 0
BITMAP
C0
B0
8C
84
98
E0
ENDCHAR
STARTCHAR 25BC
ENCODING 9660
SWIDTH 1000 0
DWIDTH 8 0
BBX 6 6 1 -1
BITMAP
FC
78
78
30
30
20
ENDCHAR
STARTCHAR 25BD
ENCODING 9661
SWIDTH 1000 0
DWIDTH 8 0
BBX 6 6 1 -1
BITMAP
FC
84
88
48
50
30
ENDCHAR
STARTCHAR 25C0
ENCODING 9664
SWIDTH 1000 0
DWIDTH 8 0
BBX 6 6 1 0
BITMAP
0C
1C
7C
FC
1C
04
ENDCHAR
STARTCHAR 25C1
ENCODING 9665
SWIDTH 1000 0
DWIDTH 8 0
BBX 6 6 1 0
BITMAP
0C
34
C4
84
64
1C
ENDCHAR
STARTCHAR 25C6
ENCODING 9670
SWIDTH 1000 0
DWIDTH 8 0
BBX 6 6 1 0
BITMAP
30
78
FC
FC
78
30
ENDCHAR
STARTCHAR 25C7
ENCODING 9671
SWIDTH 1000 0
DWIDTH 8 0
BBX 7 7 0 0
BITMAP
38
44
82
82
44
28
10
ENDCHAR
STARTCHAR 25C9
ENCODING 9673
SWIDTH 1000 0
DWIDTH 8 0
BBX 6 6 1 0
BITMAP
78
FC
FC
FC
F4
78
ENDCHAR
STARTCHAR 25CB
ENCODING 9675
SWIDTH 1000 0
DWIDTH 8 0
BBX 6 6 1 0
BITMAP
78
CC
84
84
0C
F8
ENDCHAR
STARTCHAR 25CE
ENCODING 9678
SWIDTH 1000 0
DWIDTH 8 0
BBX 6 6 1 0
BITMAP
78
FC
CC
CC
F4
78
ENDCHAR
STARTCHAR 25CF
ENCODING 9679
SWIDTH 1000 0
DWIDTH 8 0
BBX 7 7 1 0
BITMAP
38
7C
FE
FE
FE
7C
38
ENDCHAR
STARTCHAR 25D0
ENCODING 9680
SWIDTH 1000 0
DWIDTH 8 0
BBX 6 7 1 0
BITMAP
78
E4
E4
E4
E4
68
10
ENDCHAR
STARTCHAR 25D1
ENCODING 9681
SWIDTH 1000 0
DWIDTH 8 0
BBX 6 7 1 0
BITMAP
78
9C
9C
9C
9C
58
20
ENDCHAR
STARTCHAR 25D2
ENCODING 9682
SWIDTH 1000 0
DWIDTH 8 0
BBX 7 6 0 0
BITMAP
3C
42
82
7E
7E
3C
ENDCHAR
STARTCHAR 25D3
ENCODING 9683
SWIDTH 1000 0
DWIDTH 8 0
BBX 7 6 0 0
BITMAP
3C
7E
7E
82
42
3C
ENDCHAR
STARTCHAR 25E6
ENCODING 9702
SWIDTH 1000 0
DWIDTH 8 0
BBX 2 2 3 2
BITMAP
C0
C0
ENDCHAR
STARTCHAR 25EF
ENCODING 9711
SWIDTH 1000 0
DWIDTH 8 0
BBX 8 8 0 -1
BITMAP
38
46
81
81
81
81
42
3C
ENDCHAR
STARTCHAR 2600
ENCODING 9728
SWIDTH 1000 0
DWIDTH 8 0
BBX 9 9 0 -2
BITMAP
0800
0800
2200
1800
FD80
3C00
3A00
0800
0800
ENDCHAR
STARTCHAR 2601
ENCODING 9729
SWIDTH 1000 0
DWIDTH 8 0
BBX 7 5 1 0
BITMAP
70
76
FE
FC
DC
ENDCHAR
STARTCHAR 2602
ENCODING 9730
SWIDTH 1000 0
DWIDTH 8 0
BBX 9 8 0 -1
BITMAP
0800
3E00
7F00
AA80
0800
0800
0800
1800
ENDCHAR
STARTCHAR 2603
ENCODING 9731
SWIDTH 1000 0
DWIDTH 8 0
BBX 8 8 0 -1
BITMAP
91
1C
6C
5C
67
8A
8A
7E
ENDCHAR
STARTCHAR 2605
ENCODING 9733
SWIDTH 1000 0
DWIDTH 8 0
BBX 6 6 1 0
BITMAP
20
30
FC
78
78
48
ENDCHAR
STARTCHAR 2606
ENCODING 9734
SWIDTH 1000 0
DWIDTH 8 0
BBX 6 7 1 -1
BITMAP
20
30
CC
88
48
B8
48
ENDCHAR
STARTCHAR 260E
ENCODING 9742
SWIDTH 1000 0
DWIDTH 8 0
BBX 6 6 1 0
BITMAP
FC
B4
48
48
CC
FC
ENDCHAR
STARTCHAR 2616
ENCODING 9750
SWIDTH 1000 0
DWIDTH 8 0
BBX 7 7 0 1
BITMAP
18
66
42
82
82
82
7E
ENDCHAR
STARTCHAR 2617
ENCODING 9751
SWIDTH 1000 0
DWIDTH 8 0
BBX 6 6 1 1
BITMAP
78
FC
FC
FC
FC
FC
ENDCHAR
STARTCHAR 261E
ENCODING 9758
SWIDTH 1000 0
DWIDTH 8 0
BBX 7 4 0 1
BITMAP
FE
BC
CC
30
ENDCHAR
STARTCHAR 2640
ENCODING 9792
SWIDTH 1000 0
DWIDTH 8 0
BBX 5 8 2 -1
BITMAP
70
88
88
90
60
F8
20
20
ENDCHAR
STARTCHAR 2642
ENCODING 9794
SWIDTH 1000 0
DWIDTH 8 0
BBX 7 7 0 -1
BITMAP
0E
06
0A
70
90
90
60
ENDCHAR
STARTCHAR 2660
ENCODING 9824
SWIDTH 1000 0
DWIDTH 8 0
BBX 6 7 1 0
BITMAP
30
78
FC
FC
FC
20
30
ENDCHAR
STARTCHAR 2661
ENCODING 9825
SWIDTH 1000 0
DWIDTH 8 0
BBX 6 6 1 -1
BITMAP
FC
84
84
88
48
30
ENDCHAR
STARTCHAR 2662
ENCODING 9826
SWIDTH 1000 0
DWIDTH 8 0
BBX 6 7 1 0
BITMAP
70
48
84
84
48
50
20
ENDCHAR
STARTCHAR 2663
ENCODING 9827
SWIDTH 1000 0
DWIDTH 8 0
BBX 6 8 1 -1
BITMAP
30
78
78
FC
FC
EC
20
30
ENDCHAR
STARTCHAR 2664
ENCODING 9828
SWIDTH 1000 0
DWIDTH 8 0
BBX 6 7 1 0
BITMAP
70
48
84
84
FC
30
30
ENDCHAR
STARTCHAR 2665
ENCODING 9829
SWIDTH 1000 0
DWIDTH 8 0
BBX 6 6 1 -1
BITMAP
FC
FC
FC
78
78
30
ENDCHAR
STARTCHAR 2666
ENCODING 9830
SWIDTH 1000 0
DWIDTH 8 0
BBX 6 6 1 0
BITMAP
30
78
FC
78
78
30
ENDCHAR
STARTCHAR 2667
ENCODING 9831
SWIDTH 1000 0
DWIDTH 8 0
BBX 7 8 1 -1
BITMAP
30
48
48
FE
82
FE
30
30
ENDCHAR
STARTCHAR 2668
ENCODING 9832
SWIDTH 1000 0
DWIDTH 8 0
BBX 6 6 1 1
BITMAP
68
68
58
DC
A4
78
ENDCHAR
STARTCHAR 2669
ENCODING 9833
SWIDTH 1000 0
DWIDTH 8 0
BBX 3 6 2 1
BITMAP
20
20
20
20
20
E0
ENDCHAR
STARTCHAR 266A
ENCODING 9834
SWIDTH 1000 0
DWIDTH 8 0
BBX 6 6 2 1
BITMAP
30
28
24
24
20
E0
ENDCHAR
STARTCHAR 266B
ENCODING 9835
SWIDTH 1000 0
DWIDTH 8 0
BBX 5 8 1 -1
BITMAP
08
38
28
28
28
28
F8
E0
ENDCHAR
STARTCHAR 266C
ENCODING 9836
SWIDTH 1000 0
DWIDTH 8 0
BBX 5 8 1 -1
BITMAP
08
38
38
28
28
28
F8
E0
ENDCHAR
STARTCHAR 266D
ENCODING 9837
SWIDTH 1000 0
DWIDTH 8 0
BBX 4 6 3 0
BITMAP
80
80
F0
90
A0
C0
ENDCHAR
STARTCHAR 266E
ENCODING 9838
SWIDTH 1000 0
DWIDTH 8 0
BBX 2 6 3 0
BITMAP
80
C0
C0
C0
40
40
ENDCHAR
STARTCHAR 266F
ENCODING 9839
SWIDTH 1000 0
DWIDTH 8 0
BBX 4 6 2 0
BITMAP
60
70
E0
60
F0
60
ENDCHAR
STARTCHAR 2713
ENCODING 10003
SWIDTH 1000 0
DWIDTH 8 0
BBX 5 6 2 0
BITMAP
08
10
10
A0
C0
80
ENDCHAR
STARTCHAR 2756
ENCODING 10070
SWIDTH 1000 0
DWIDTH 8 0
BBX 6 6 1 0
BITMAP
30
30
CC
CC
30
30
ENDCHAR
STARTCHAR 2776
ENCODING 10102
SWIDTH 1000 0
DWIDTH 8 0
BBX 6 7 1 0
BITMAP
78
D8
FC
FC
FC
78
38
ENDCHAR
STARTCHAR 2777
ENCODING 10103
SWIDTH 1000 0
DWIDTH 8 0
BBX 7 7 1 0
BITMAP
38
7C
F6
F6
EE
5C
38
ENDCHAR
STARTCHAR 2778
ENCODING 10104
SWIDTH 1000 0
DWIDTH 8 0
BBX 8 8 0 -1
BITMAP
38
66
FB
FF
FB
DB
7E
3C
ENDCHAR
STARTCHAR 2779
ENCODING 10105
SWIDTH 1000 0
DWIDTH 8 0
BBX 8 6 0 0
BITMAP
7E
F7
F7
F7
76
3C
ENDCHAR
STARTCHAR 277A
ENCODING 10106
SWIDTH 1000 0
DWIDTH 8 0
BBX 8 7 0 -1
BITMAP
3C
7E
FF
FB
DB
7E
3C
ENDCHAR
STARTCHAR 277B
ENCODING 10107
SWIDTH 1000 0
DWIDTH 8 0
BBX 8 8 0 -1
BITMAP
38
66
DF
C3
DB
FB
7E
3C
ENDCHAR
STARTCHAR 277C
ENCODING 10108
SWIDTH 1000 0
DWIDTH 8 0
BBX 7 7 1 -1
BITMAP
7C
F6
FE
EE
EE
6C
38
ENDCHAR
STARTCHAR 277D
ENCODING 10109
SWIDTH 1000 0
DWIDTH 8 0
BBX 8 8 0 -1
BITMAP
38
66
FF
E7
DB
DB
7E
3C
ENDCHAR
STARTCHAR 277E
ENCODING 10110
SWIDTH 1000 0
DWIDTH 8 0
BBX 8 8 0 -1
BITMAP
38
66
DB
DB
C3
FF
7E
3C
ENDCHAR
STARTCHAR 277F
ENCODING 10111
SWIDTH 1000 0
DWIDTH 8 0
BBX 7 7 0 0
BITMAP
38
74
EA
EA
EA
6C
38
ENDCHAR
STARTCHAR 2934
ENCODING 10548
SWIDTH 1000 0
DWIDTH 8 0
BBX 7 7 0 0
BITMAP
04
0E
04
04
04
0C
F8
ENDCHAR
STARTCHAR 2935
ENCODING 10549
SWIDTH 1000 0
DWIDTH 8 0
BBX 6 6 0 -1
BITMAP
F8
0C
04
04
04
04
ENDCHAR
STARTCHAR 29BF
ENCODING 10687
SWIDTH 1000 0
DWIDTH 8 0
BBX 6 6 1 0
BITMAP
78
CC
B4
B4
C4
78
ENDCHAR
STARTCHAR 29FA
ENCODING 10746
SWIDTH 1000 0
DWIDTH 8 0
BBX 4 5 2 -1
BITMAP
60
60
F0
60
60
ENDCHAR
STARTCHAR 29FB
ENCODING 10747
SWIDTH 1000 0
DWIDTH 8 0
BBX 4 5 2 -1
BITMAP
60
60
F0
60
60
ENDCHAR
STARTCHAR 2E83
ENCODING 11907
SWIDTH 1000 0
DWIDTH 8 0
BBX 6 6 2 1
BITMAP
80
80
80
80
88
FC
ENDCHAR
STARTCHAR 2E85
ENCODING 11909
SWIDTH 1000 0
DWIDTH 8 0
BBX 4 7 1 0
BITMAP
10
20
60
A0
20
20
20
ENDCHAR
STARTCHAR 2E87
ENCODING 11911
SWIDTH 1000 0
DWIDTH 8 0
BBX 8 6 0 0
BITMAP
7C
44
42
42
43
81
ENDCHAR
STARTCHAR 2E89
ENCODING 11913
SWIDTH 1000 0
DWIDTH 8 0
BBX 3 6 3 0
BITMAP
A0
A0
A0
A0
A0
20
ENDCHAR
STARTCHAR 2E8E
ENCODING 11918
SWIDTH 1000 0
DWIDTH 8 0
BBX 6 6 1 0
BITMAP
FC
30
30
30
50
5C
ENDCHAR
STARTCHAR 2E8F
ENCODING 11919
SWIDTH 1000 0
DWIDTH 8 0
BBX 6 6 1 0
BITMAP
30
48
B4
30
30
5C
ENDCHAR
STARTCHAR 2E90
ENCODING 11920
SWIDTH 1000 0
DWIDTH 8 0
BBX 8 8 0 -1
BITMAP
10
10
FF
18
18
28
28
4F
ENDCHAR
STARTCHAR 2E92
ENCODING 11922
SWIDTH 1000 0
DWIDTH 8 0
BBX 5 6 2 1
BITMAP
F0
90
90
F0
88
F8
ENDCHAR
STARTCHAR 2E93
ENCODING 11923
SWIDTH 1000 0
DWIDTH 8 0
BBX 6 6 1 1
BITMAP
20
C8
50
20
40
FC
ENDCHAR
STARTCHAR 2E94
ENCODING 11924
SWIDTH 1000 0
DWIDTH 8 0
BBX 4 7 2 0
BITMAP
40
80
F0
90
90
60
20
ENDCHAR
STARTCHAR 2E96
ENCODING 11926
SWIDTH 1000 0
DWIDTH 8 0
BBX 1 6 4 0
BITMAP
80
80
80
80
80
80
ENDCHAR
STARTCHAR 2E97
ENCODING 11927
SWIDTH 1000 0
DWIDTH 8 0
BBX 7 6 1 0
BITMAP
20
20
20
AA
22
20
ENDCHAR
STARTCHAR 2E98
ENCODING 11928
SWIDTH 1000 0
DWIDTH 8 0
BBX 4 7 2 -1
BITMAP
20
20
70
20
F0
20
20
ENDCHAR
STARTCHAR 2E99
ENCODING 11929
SWIDTH 1000 0
DWIDTH 8 0
BBX 6 7 1 -1
BITMAP
20
40
78
D0
30
30
4C
ENDCHAR
STARTCHAR 2E9B
ENCODING 11931
SWIDTH 1000 0
DWIDTH 8 0
BBX 6 7 1 0
BITMAP
78
90
90
FC
30
5C
80
ENDCHAR
STARTCHAR 2E9E
ENCODING 11934
SWIDTH 1000 0
DWIDTH 8 0
BBX 6 6 1 0
BITMAP
10
3C
CC
68
10
60
ENDCHAR
STARTCHAR 2E9F
ENCODING 11935
SWIDTH 1000 0
DWIDTH 8 0
BBX 6 6 1 0
BITMAP
78
A8
88
FC
A8
D8
ENDCHAR
STARTCHAR 2EA0
ENCODING 11936
SWIDTH 1000 0
DWIDTH 8 0
BBX 7 6 1 1
BITMAP
7C
44
78
7C
4A
E6
ENDCHAR
STARTCHAR 2EA1
ENCODING 11937
SWIDTH 1000 0
DWIDTH 8 0
BBX 2 7 3 0
BITMAP
C0
C0
40
80
80
80
80
ENDCHAR
STARTCHAR 2EA3
ENCODING 11939
SWIDTH 1000 0
DWIDTH 8 0
BBX 6 2 1 3
BITMAP
10
A4
ENDCHAR
STARTCHAR 2EA4
ENCODING 11940
SWIDTH 1000 0
DWIDTH 8 0
BBX 6 3 1 2
BITMAP
78
A4
58
ENDCHAR
STARTCHAR 2EA6
ENCODING 11942
SWIDTH 1000 0
DWIDTH 8 0
BBX 4 7 1 0
BITMAP
10
50
50
30
D0
10
10
ENDCHAR
STARTCHAR 2EA8
ENCODING 11944
SWIDTH 1000 0
DWIDTH 8 0
BBX 3 6 2 0
BITMAP
60
40
20
60
A0
20
ENDCHAR
STARTCHAR 2EAA
ENCODING 11946
SWIDTH 1000 0
DWIDTH 8 0
BBX 4 6 2 0
BITMAP
F0
20
A0
B0
A0
D0
ENDCHAR
STARTCHAR 2EAB
ENCODING 11947
SWIDTH 1000 0
DWIDTH 8 0
BBX 6 4 1 2
BITMAP
FC
B4
B4
CC
ENDCHAR
STARTCHAR 2EAD
ENCODING 11949
SWIDTH 1000 0
DWIDTH 8 0
BBX 4 6 3 0
BITMAP
40
A0
40
F0
40
40
ENDCHAR
STARTCHAR 2EB2
ENCODING 11954
SWIDTH 1000 0
DWIDTH 8 0
BBX 6 4 1 2
BITMAP
FC
B4
B4
CC
ENDCHAR
STARTCHAR 2EB9
ENCODING 11961
SWIDTH 1000 0
DWIDTH 8 0
BBX 8 6 0 1
BITMAP
12
3C
FF
10
20
C0
ENDCHAR
STARTCHAR 2EBD
ENCODING 11965
SWIDTH 1000 0
DWIDTH 8 0
BBX 6 7 1 0
BITMAP
20
CC
84
CC
84
A4
CC
ENDCHAR
STARTCHAR 2EBE
ENCODING 11966
SWIDTH 1000 0
DWIDTH 8 0
BBX 4 2 2 3
BITMAP
60
F0
ENDCHAR
STARTCHAR 2EBF
ENCODING 11967
SWIDTH 1000 0
DWIDTH 8 0
BBX 6 2 1 3
BITMAP
48
CC
ENDCHAR
STARTCHAR 2EC0
ENCODING 11968
SWIDTH 1000 0
DWIDTH 8 0
BBX 4 2 2 3
BITMAP
60
F0
ENDCHAR
STARTCHAR 2EC1
ENCODING 11969
SWIDTH 1000 0
DWIDTH 8 0
BBX 7 6 0 0
BITMAP
0C
7E
5E
40
5A
AE
ENDCHAR
STARTCHAR 2EC2
ENCODING 11970
SWIDTH 1000 0
DWIDTH 8 0
BBX 4 6 3 0
BITMAP
40
A0
50
F0
40
40
ENDCHAR
STARTCHAR 2EC3
ENCODING 11971
SWIDTH 1000 0
DWIDTH 8 0
BBX 6 4 1 2
BITMAP
FC
FC
B4
48
ENDCHAR
STARTCHAR 2EC4
ENCODING 11972
SWIDTH 1000 0
DWIDTH 8 0
BBX 6 7 1 0
BITMAP
FC
34
FC
B4
DC
84
FC
ENDCHAR
STARTCHAR 2ECA
ENCODING 11978
SWIDTH 1000 0
DWIDTH 8 0
BBX 4 7 1 0
BITMAP
70
50
70
50
50
50
E0
ENDCHAR
STARTCHAR 2ECC
ENCODING 11980
SWIDTH 1000 0
DWIDTH 8 0
BBX 3 6 1 1
BITMAP
C0
00
00
40
40
A0
ENDCHAR
STARTCHAR 2ECD
ENCODING 11981
SWIDTH 1000 0
DWIDTH 8 0
BBX 3 7 1 0
BITMAP
80
40
C0
00
40
40
A0
ENDCHAR
STARTCHAR 2ECF
ENCODING 11983
SWIDTH 1000 0
DWIDTH 8 0
BBX 3 7 3 0
BITMAP
E0
A0
A0
A0
A0
80
80
ENDCHAR
STARTCHAR 2ED1
ENCODING 11985
SWIDTH 1000 0
DWIDTH 8 0
BBX 7 6 1 0
BITMAP
78
78
7A
FC
48
E6
ENDCHAR
STARTCHAR 2ED2
ENCODING 11986
SWIDTH 1000 0
DWIDTH 8 0
BBX 8 7 0 0
BITMAP
3C
3C
3C
FF
14
22
5D
ENDCHAR
STARTCHAR 2ED6
ENCODING 11990
SWIDTH 1000 0
DWIDTH 8 0
BBX 3 7 3 0
BITMAP
E0
A0
A0
A0
A0
80
80
ENDCHAR
STARTCHAR 2ED8
ENCODING 11992
SWIDTH 1000 0
DWIDTH 8 0
BBX 5 8 2 -1
BITMAP
08
F0
F0
B0
F0
F0
F0
80
ENDCHAR
STARTCHAR 2EDE
ENCODING 11998
SWIDTH 1000 0
DWIDTH 8 0
BBX 4 7 2 0
BITMAP
70
80
60
60
40
40
60
ENDCHAR
STARTCHAR 2EDF
ENCODING 11999
SWIDTH 1000 0
DWIDTH 8 0
BBX 3 6 2 0
BITMAP
60
80
60
60
40
60
ENDCHAR
STARTCHAR 2EE4
ENCODING 12004
SWIDTH 1000 0
DWIDTH 8 0
BBX 7 5 1 1
BITMAP
FC
FC
F8
5C
9E
ENDCHAR
STARTCHAR 2EE8
ENCODING 12008
SWIDTH 1000 0
DWIDTH 8 0
BBX 7 8 1 0
BITMAP
10
FE
7C
FE
3C
68
18
66
ENDCHAR
STARTCHAR 2EE9
ENCODING 12009
SWIDTH 1000 0
DWIDTH 8 0
BBX 7 8 0 0
BITMAP
18
FE
18
6C
7C
7C
34
E2
ENDCHAR
STARTCHAR 2EEB
ENCODING 12011
SWIDTH 1000 0
DWIDTH 8 0
BBX 7 7 1 1
BITMAP
FC
50
6E
F8
48
B8
08
ENDCHAR
STARTCHAR 2EED
ENCODING 12013
SWIDTH 1000 0
DWIDTH 8 0
BBX 8 8 0 -1
BITMAP
28
2C
FF
5E
7E
5A
4A
34
ENDCHAR
STARTCHAR 2EEF
ENCODING 12015
SWIDTH 1000 0
DWIDTH 8 0
BBX 6 7 1 -1
BITMAP
10
FC
20
58
78
78
7C
ENDCHAR
STARTCHAR 2EF2
ENCODING 12018
SWIDTH 1000 0
DWIDTH 8 0
BBX 7 6 1 1
BITMAP
70
B8
78
A4
FC
5E
ENDCHAR
STARTCHAR 2F00
ENCODING 12032
SWIDTH 1000 0
DWIDTH 8 0
BBX 6 1 1 3
BITMAP
FC
ENDCHAR
STARTCHAR 2F01
ENCODING 12033
SWIDTH 1000 0
DWIDTH 8 0
BBX 1 6 4 0
BITMAP
80
80
80
80
80
80
ENDCHAR
STARTCHAR 2F02
ENCODING 12034
SWIDTH 1000 0
DWIDTH 8 0
BBX 2 2 3 3
BITMAP
80
40
ENDCHAR
STARTCHAR 2F03
ENCODING 12035
SWIDTH 1000 0
DWIDTH 8 0
BBX 2 6 3 0
BITMAP
40
40
40
40
40
80
ENDCHAR
STARTCHAR 2F04
ENCODING 12036
SWIDTH 1000 0
DWIDTH 8 0
BBX 6 6 1 1
BITMAP
F8
10
20
40
84
FC
ENDCHAR
STARTCHAR 2F05
ENCODING 12037
SWIDTH 1000 0
DWIDTH 8 0
BBX 1 6 3 0
BITMAP
80
80
80
80
80
80
ENDCHAR
STARTCHAR 2F06
ENCODING 12038
SWIDTH 1000 0
DWIDTH 8 0
BBX 6 4 1 2
BITMAP
FC
00
00
FC
ENDCHAR
STARTCHAR 2F07
ENCODING 12039
SWIDTH 1000 0
DWIDTH 8 0
BBX 7 3 1 3
BITMAP
10
10
FE
ENDCHAR
STARTCHAR 2F08
ENCODING 12040
SWIDTH 1000 0
DWIDTH 8 0
BBX 5 6 2 0
BITMAP
20
20
60
60
90
88
ENDCHAR
STARTCHAR 2F09
ENCODING 12041
SWIDTH 1000 0
DWIDTH 8 0
BBX 5 6 2 -1
BITMAP
60
60
60
60
68
B8
ENDCHAR
STARTCHAR 2F0A
ENCODING 12042
SWIDTH 1000 0
DWIDTH 8 0
BBX 6 6 1 0
BITMAP
20
20
10
30
48
84
ENDCHAR
STARTCHAR 2F0B
ENCODING 12043
SWIDTH 1000 0
DWIDTH 8 0
BBX 8 6 0 1
BITMAP
08
28
28
44
42
81
ENDCHAR
STARTCHAR 2F0C
ENCODING 12044
SWIDTH 1000 0
DWIDTH 8 0
BBX 6 6 1 0
BITMAP
FC
84
84
84
84
8C
ENDCHAR
STARTCHAR 2F0D
ENCODING 12045
SWIDTH 1000 0
DWIDTH 8 0
BBX 7 1 0 3
BITMAP
FE
ENDCHAR
STARTCHAR 2F0E
ENCODING 12046
SWIDTH 1000 0
DWIDTH 8 0
BBX 2 6 3 1
BITMAP
80
40
40
80
80
80
ENDCHAR
STARTCHAR 2F0F
ENCODING 12047
SWIDTH 1000 0
DWIDTH 8 0
BBX 7 6 0 0
BITMAP
38
28
28
28
4A
8E
ENDCHAR
STARTCHAR 2F10
ENCODING 12048
SWIDTH 1000 0
DWIDTH 8 0
BBX 6 7 1 0
BITMAP
84
84
84
84
84
FC
84
ENDCHAR
STARTCHAR 2F11
ENCODING 12049
SWIDTH 1000 0
DWIDTH 8 0
BBX 6 7 1 0
BITMAP
FC
24
24
44
44
44
08
ENDCHAR
STARTCHAR 2F12
ENCODING 12050
SWIDTH 1000 0
DWIDTH 8 0
BBX 7 8 0 -1
BITMAP
10
10
1E
72
12
22
22
C4
ENDCHAR
STARTCHAR 2F13
ENCODING 12051
SWIDTH 1000 0
DWIDTH 8 0
BBX 6 7 1 0
BITMAP
40
BC
04
04
04
00
08
ENDCHAR
STARTCHAR 2F14
ENCODING 12052
SWIDTH 1000 0
DWIDTH 8 0
BBX 5 6 2 0
BITMAP
80
88
B0
C0
80
F8
ENDCHAR
STARTCHAR 2F15
ENCODING 12053
SWIDTH 1000 0
DWIDTH 8 0
BBX 6 7 1 0
BITMAP
F8
80
80
80
80
80
FC
ENDCHAR
STARTCHAR 2F16
ENCODING 12054
SWIDTH 1000 0
DWIDTH 8 0
BBX 6 6 2 0
BITMAP
04
F8
80
80
80
FC
ENDCHAR
STARTCHAR 2F17
ENCODING 12055
SWIDTH 1000 0
DWIDTH 8 0
BBX 5 7 2 -1
BITMAP
20
20
20
F8
20
20
20
ENDCHAR
STARTCHAR 2F18
ENCODING 12056
SWIDTH 1000 0
DWIDTH 8 0
BBX 4 6 3 0
BITMAP
80
80
C0
B0
80
80
ENDCHAR
STARTCHAR 2F19
ENCODING 12057
SWIDTH 1000 0
DWIDTH 8 0
BBX 4 7 2 -1
BITMAP
F0
90
90
90
90
B0
80
ENDCHAR
STARTCHAR 2F1A
ENCODING 12058
SWIDTH 1000 0
DWIDTH 8 0
BBX 6 6 0 0
BITMAP
7C
40
40
40
80
80
ENDCHAR
STARTCHAR 2F1B
ENCODING 12059
SWIDTH 1000 0
DWIDTH 8 0
BBX 6 6 1 1
BITMAP
10
20
20
48
48
F4
ENDCHAR
STARTCHAR 2F1C
ENCODING 12060
SWIDTH 1000 0
DWIDTH 8 0
BBX 6 6 1 0
BITMAP
F8
48
50
20
38
C4
ENDCHAR
STARTCHAR 2F1D
ENCODING 12061
SWIDTH 1000 0
DWIDTH 8 0
BBX 6 5 1 1
BITMAP
FC
84
84
84
FC
ENDCHAR
STARTCHAR 2F1E
ENCODING 12062
SWIDTH 1000 0
DWIDTH 8 0
BBX 6 7 1 0
BITMAP
FC
84
84
84
84
84
FC
ENDCHAR
STARTCHAR 2F1F
ENCODING 12063
SWIDTH 1000 0
DWIDTH 8 0
BBX 6 6 2 1
BITMAP
20
20
F8
20
20
24
ENDCHAR
STARTCHAR 2F20
ENCODING 12064
SWIDTH 1000 0
DWIDTH 8 0
BBX 6 6 2 1
BITMAP
20
24
F8
20
20
20
ENDCHAR
STARTCHAR 2F21
ENCODING 12065
SWIDTH 1000 0
DWIDTH 8 0
BBX 6 6 1 0
BITMAP
60
78
D0
30
30
CC
ENDCHAR
STARTCHAR 2F22
ENCODING 12066
SWIDTH 1000 0
DWIDTH 8 0
BBX 6 6 1 0
BITMAP
20
58
D0
30
30
CC
ENDCHAR
STARTCHAR 2F23
ENCODING 12067
SWIDTH 1000 0
DWIDTH 8 0
BBX 6 6 1 0
BITMAP
20
5C
68
90
10
60
ENDCHAR
STARTCHAR 2F24
ENCODING 12068
SWIDTH 1000 0
DWIDTH 8 0
BBX 6 6 2 0
BITMAP
20
20
F8
30
48
84
ENDCHAR
STARTCHAR 2F25
ENCODING 12069
SWIDTH 1000 0
DWIDTH 8 0
BBX 8 8 0 -1
BITMAP
10
20
FF
24
48
78
14
22
ENDCHAR
STARTCHAR 2F26
ENCODING 12070
SWIDTH 1000 0
DWIDTH 8 0
BBX 5 7 2 0
BITMAP
78
30
20
F8
20
20
40
ENDCHAR
STARTCHAR 2F27
ENCODING 12071
SWIDTH 1000 0
DWIDTH 8 0
BBX 7 2 1 3
BITMAP
10
EE
ENDCHAR
STARTCHAR 2F28
ENCODING 12072
SWIDTH 1000 0
DWIDTH 8 0
BBX 6 7 1 -1
BITMAP
10
14
F8
90
50
10
30
ENDCHAR
STARTCHAR 2F29
ENCODING 12073
SWIDTH 1000 0
DWIDTH 8 0
BBX 8 7 0 0
BITMAP
08
28
4A
49
89
08
10
ENDCHAR
STARTCHAR 2F2A
ENCODING 12074
SWIDTH 1000 0
DWIDTH 8 0
BBX 8 8 0 -1
BITMAP
10
10
FF
18
18
28
28
4F
ENDCHAR
STARTCHAR 2F2B
ENCODING 12075
SWIDTH 1000 0
DWIDTH 8 0
BBX 7 6 0 0
BITMAP
7E
42
7C
40
40
80
ENDCHAR
STARTCHAR 2F2C
ENCODING 12076
SWIDTH 1000 0
DWIDTH 8 0
BBX 6 7 1 -1
BITMAP
10
94
94
94
FC
20
40
ENDCHAR
STARTCHAR 2F2D
ENCODING 12077
SWIDTH 1000 0
DWIDTH 8 0
BBX 6 8 1 -1
BITMAP
10
10
94
94
94
94
FC
84
ENDCHAR
STARTCHAR 2F2E
ENCODING 12078
SWIDTH 1000 0
DWIDTH 8 0
BBX 7 6 0 0
BITMAP
2A
54
A8
54
2A
2A
ENDCHAR
STARTCHAR 2F2F
ENCODING 12079
SWIDTH 1000 0
DWIDTH 8 0
BBX 5 5 2 1
BITMAP
F8
20
20
20
20
ENDCHAR
STARTCHAR 2F30
ENCODING 12080
SWIDTH 1000 0
DWIDTH 8 0
BBX 5 6 2 1
BITMAP
F0
10
10
F0
88
F8
ENDCHAR
STARTCHAR 2F31
ENCODING 12081
SWIDTH 1000 0
DWIDTH 8 0
BBX 6 7 1 -1
BITMAP
10
10
FC
94
94
9C
10
ENDCHAR
STARTCHAR 2F32
ENCODING 12082
SWIDTH 1000 0
DWIDTH 8 0
BBX 6 6 2 0
BITMAP
F8
20
24
F8
20
20
ENDCHAR
STARTCHAR 2F33
ENCODING 12083
SWIDTH 1000 0
DWIDTH 8 0
BBX 6 6 1 1
BITMAP
20
C8
50
20
40
FC
ENDCHAR
STARTCHAR 2F34
ENCODING 12084
SWIDTH 1000 0
DWIDTH 8 0
BBX 8 6 0 0
BITMAP
09
76
40
40
40
80
ENDCHAR
STARTCHAR 2F35
ENCODING 12085
SWIDTH 1000 0
DWIDTH 8 0
BBX 7 7 1 0
BITMAP
80
80
40
40
80
C2
3C
ENDCHAR
STARTCHAR 2F36
ENCODING 12086
SWIDTH 1000 0
DWIDTH 8 0
BBX 6 7 1 -1
BITMAP
28
28
28
7C
28
48
80
ENDCHAR
STARTCHAR 2F37
ENCODING 12087
SWIDTH 1000 0
DWIDTH 8 0
BBX 6 6 1 1
BITMAP
38
24
F8
20
10
0C
ENDCHAR
STARTCHAR 2F38
ENCODING 12088
SWIDTH 1000 0
DWIDTH 8 0
BBX 7 7 0 0
BITMAP
7C
04
F8
7E
04
04
08
ENDCHAR
STARTCHAR 2F39
ENCODING 12089
SWIDTH 1000 0
DWIDTH 8 0
BBX 8 6 0 1
BITMAP
7C
04
04
7C
04
FF
ENDCHAR
STARTCHAR 2F3A
ENCODING 12090
SWIDTH 1000 0
DWIDTH 8 0
BBX 4 7 2 0
BITMAP
20
D0
20
C0
10
60
80
ENDCHAR
STARTCHAR 2F3B
ENCODING 12091
SWIDTH 1000 0
DWIDTH 8 0
BBX 4 7 2 0
BITMAP
30
D0
20
60
20
20
20
ENDCHAR
STARTCHAR 2F3C
ENCODING 12092
SWIDTH 1000 0
DWIDTH 8 0
BBX 7 6 1 1
BITMAP
30
28
20
A2
A6
3C
ENDCHAR
STARTCHAR 2F3D
ENCODING 12093
SWIDTH 1000 0
DWIDTH 8 0
BBX 5 6 2 0
BITMAP
50
48
F8
50
20
D8
ENDCHAR
STARTCHAR 2F3E
ENCODING 12094
SWIDTH 1000 0
DWIDTH 8 0
BBX 5 7 1 0
BITMAP
78
08
78
78
48
80
80
ENDCHAR
STARTCHAR 2F3F
ENCODING 12095
SWIDTH 1000 0
DWIDTH 8 0
BBX 5 7 2 0
BITMAP
78
A0
F8
20
F8
20
60
ENDCHAR
STARTCHAR 2F40
ENCODING 12096
SWIDTH 1000 0
DWIDTH 8 0
BBX 7 7 1 0
BITMAP
12
7C
10
6C
28
38
C6
ENDCHAR
STARTCHAR 2F41
ENCODING 12097
SWIDTH 1000 0
DWIDTH 8 0
BBX 6 7 2 0
BITMAP
20
38
F8
88
50
30
CC
ENDCHAR
STARTCHAR 2F42
ENCODING 12098
SWIDTH 1000 0
DWIDTH 8 0
BBX 6 7 2 -1
BITMAP
20
20
D8
50
30
30
CC
ENDCHAR
STARTCHAR 2F43
ENCODING 12099
SWIDTH 1000 0
DWIDTH 8 0
BBX 6 7 1 0
BITMAP
10
50
10
14
F8
10
10
ENDCHAR
STARTCHAR 2F44
ENCODING 12100
SWIDTH 1000 0
DWIDTH 8 0
BBX 5 7 1 -1
BITMAP
08
70
40
78
50
90
10
ENDCHAR
STARTCHAR 2F45
ENCODING 12101
SWIDTH 1000 0
DWIDTH 8 0
BBX 5 8 2 -1
BITMAP
20
20
D8
40
78
88
88
10
ENDCHAR
STARTCHAR 2F46
ENCODING 12102
SWIDTH 1000 0
DWIDTH 8 0
BBX 7 7 1 0
BITMAP
78
20
FE
30
50
54
9E
ENDCHAR
STARTCHAR 2F47
ENCODING 12103
SWIDTH 1000 0
DWIDTH 8 0
BBX 4 7 2 0
BITMAP
F0
90
90
F0
90
F0
90
ENDCHAR
STARTCHAR 2F48
ENCODING 12104
SWIDTH 1000 0
DWIDTH 8 0
BBX 6 7 1 0
BITMAP
FC
84
84
F4
84
FC
84
ENDCHAR
STARTCHAR 2F49
ENCODING 12105
SWIDTH 1000 0
DWIDTH 8 0
BBX 5 7 1 0
BITMAP
78
48
78
48
78
88
08
ENDCHAR
STARTCHAR 2F4A
ENCODING 12106
SWIDTH 1000 0
DWIDTH 8 0
BBX 7 7 1 0
BITMAP
10
12
7C
78
54
92
10
ENDCHAR
STARTCHAR 2F4B
ENCODING 12107
SWIDTH 1000 0
DWIDTH 8 0
BBX 6 7 1 -1
BITMAP
40
40
BC
20
30
48
84
ENDCHAR
STARTCHAR 2F4C
ENCODING 12108
SWIDTH 1000 0
DWIDTH 8 0
BBX 6 7 2 0
BITMAP
20
20
A0
B8
A0
A0
A4
ENDCHAR
STARTCHAR 2F4D
ENCODING 12109
SWIDTH 1000 0
DWIDTH 8 0
BBX 5 6 1 0
BITMAP
78
40
78
B0
20
40
ENDCHAR
STARTCHAR 2F4E
ENCODING 12110
SWIDTH 1000 0
DWIDTH 8 0
BBX 7 7 0 -1
BITMAP
78
4E
80
7C
28
10
6E
ENDCHAR
STARTCHAR 2F4F
ENCODING 12111
SWIDTH 1000 0
DWIDTH 8 0
BBX 6 6 1 0
BITMAP
78
A8
A8
FC
A8
D8
ENDCHAR
STARTCHAR 2F50
ENCODING 12112
SWIDTH 1000 0
DWIDTH 8 0
BBX 7 7 1 0
BITMAP
40
50
54
58
50
50
9E
ENDCHAR
STARTCHAR 2F51
ENCODING 12113
SWIDTH 1000 0
DWIDTH 8 0
BBX 7 6 1 1
BITMAP
38
64
F8
26
F8
3C
ENDCHAR
STARTCHAR 2F52
ENCODING 12114
SWIDTH 1000 0
DWIDTH 8 0
BBX 6 7 2 0
BITMAP
18
F0
90
F8
90
AC
44
ENDCHAR
STARTCHAR 2F53
ENCODING 12115
SWIDTH 1000 0
DWIDTH 8 0
BBX 7 8 1 0
BITMAP
40
7C
80
38
78
08
0C
06
ENDCHAR
STARTCHAR 2F54
ENCODING 12116
SWIDTH 1000 0
DWIDTH 8 0
BBX 7 7 1 0
BITMAP
10
12
5C
58
94
12
10
ENDCHAR
STARTCHAR 2F55
ENCODING 12117
SWIDTH 1000 0
DWIDTH 8 0
BBX 7 6 1 0
BITMAP
10
54
54
98
28
46
ENDCHAR
STARTCHAR 2F56
ENCODING 12118
SWIDTH 1000 0
DWIDTH 8 0
BBX 7 6 1 0
BITMAP
7C
54
54
54
52
92
ENDCHAR
STARTCHAR 2F57
ENCODING 12119
SWIDTH 1000 0
DWIDTH 8 0
BBX 7 7 0 0
BITMAP
24
42
88
18
18
24
02
ENDCHAR
STARTCHAR 2F58
ENCODING 12120
SWIDTH 1000 0
DWIDTH 8 0
BBX 6 7 1 0
BITMAP
48
30
C8
10
30
28
44
ENDCHAR
STARTCHAR 2F59
ENCODING 12121
SWIDTH 1000 0
DWIDTH 8 0
BBX 5 7 1 0
BITMAP
48
48
38
F8
48
48
08
ENDCHAR
STARTCHAR 2F5A
ENCODING 12122
SWIDTH 1000 0
DWIDTH 8 0
BBX 5 7 1 0
BITMAP
50
50
68
70
50
90
90
ENDCHAR
STARTCHAR 2F5B
ENCODING 12123
SWIDTH 1000 0
DWIDTH 8 0
BBX 6 7 0 0
BITMAP
7C
48
48
3C
28
C8
10
ENDCHAR
STARTCHAR 2F5C
ENCODING 12124
SWIDTH 1000 0
DWIDTH 8 0
BBX 6 7 1 -1
BITMAP
50
90
FC
10
7C
10
10
ENDCHAR
STARTCHAR 2F5D
ENCODING 12125
SWIDTH 1000 0
DWIDTH 8 0
BBX 6 6 2 0
BITMAP
28
20
F8
30
48
84
ENDCHAR
STARTCHAR 2F5E
ENCODING 12126
SWIDTH 1000 0
DWIDTH 8 0
BBX 7 6 1 1
BITMAP
10
7C
24
28
34
FA
ENDCHAR
STARTCHAR 2F5F
ENCODING 12127
SWIDTH 1000 0
DWIDTH 8 0
BBX 7 6 1 1
BITMAP
FE
10
10
3C
14
10
ENDCHAR
STARTCHAR 2F60
ENCODING 12128
SWIDTH 1000 0
DWIDTH 8 0
BBX 7 6 1 0
BITMAP
7C
54
54
54
52
BE
ENDCHAR
STARTCHAR 2F61
ENCODING 12129
SWIDTH 1000 0
DWIDTH 8 0
BBX 6 6 1 0
BITMAP
F8
90
F0
D0
90
DC
ENDCHAR
STARTCHAR 2F62
ENCODING 12130
SWIDTH 1000 0
DWIDTH 8 0
BBX 6 8 1 -1
BITMAP
48
48
FC
48
78
48
48
78
ENDCHAR
STARTCHAR 2F63
ENCODING 12131
SWIDTH 1000 0
DWIDTH 8 0
BBX 7 7 1 0
BITMAP
10
D0
7E
90
10
38
10
ENDCHAR
STARTCHAR 2F64
ENCODING 12132
SWIDTH 1000 0
DWIDTH 8 0
BBX 7 6 0 0
BITMAP
7E
52
7E
52
7E
92
ENDCHAR
STARTCHAR 2F65
ENCODING 12133
SWIDTH 1000 0
DWIDTH 8 0
BBX 6 7 1 0
BITMAP
FC
94
94
FC
94
FC
84
ENDCHAR
STARTCHAR 2F66
ENCODING 12134
SWIDTH 1000 0
DWIDTH 8 0
BBX 7 7 1 0
BITMAP
FE
10
50
5C
D0
B0
0C
ENDCHAR
STARTCHAR 2F67
ENCODING 12135
SWIDTH 1000 0
DWIDTH 8 0
BBX 6 6 1 0
BITMAP
10
6C
C0
40
40
80
ENDCHAR
STARTCHAR 2F68
ENCODING 12136
SWIDTH 1000 0
DWIDTH 8 0
BBX 7 4 0 2
BITMAP
34
6E
42
80
ENDCHAR
STARTCHAR 2F69
ENCODING 12137
SWIDTH 1000 0
DWIDTH 8 0
BBX 6 7 1 0
BITMAP
20
DC
84
FC
84
84
FC
ENDCHAR
STARTCHAR 2F6A
ENCODING 12138
SWIDTH 1000 0
DWIDTH 8 0
BBX 7 7 0 0
BITMAP
10
7E
50
6C
58
98
66
ENDCHAR
STARTCHAR 2F6B
ENCODING 12139
SWIDTH 1000 0
DWIDTH 8 0
BBX 6 5 1 1
BITMAP
FC
B4
B4
B4
B4
ENDCHAR
STARTCHAR 2F6C
ENCODING 12140
SWIDTH 1000 0
DWIDTH 8 0
BBX 4 7 2 0
BITMAP
F0
90
F0
90
F0
90
F0
ENDCHAR
STARTCHAR 2F6D
ENCODING 12141
SWIDTH 1000 0
DWIDTH 8 0
BBX 8 7 -1 0
BITMAP
3C
18
7F
1A
28
C8
10
ENDCHAR
STARTCHAR 2F6E
ENCODING 12142
SWIDTH 1000 0
DWIDTH 8 0
BBX 7 6 1 0
BITMAP
40
BC
92
7C
28
46
ENDCHAR
STARTCHAR 2F6F
ENCODING 12143
SWIDTH 1000 0
DWIDTH 8 0
BBX 6 7 1 0
BITMAP
FC
40
44
7C
C4
44
7C
ENDCHAR
STARTCHAR 2F70
ENCODING 12144
SWIDTH 1000 0
DWIDTH 8 0
BBX 8 7 0 0
BITMAP
3E
00
3E
2A
49
89
10
ENDCHAR
STARTCHAR 2F71
ENCODING 12145
SWIDTH 1000 0
DWIDTH 8 0
BBX 6 6 1 0
BITMAP
20
FC
A4
CC
BC
84
ENDCHAR
STARTCHAR 2F72
ENCODING 12146
SWIDTH 1000 0
DWIDTH 8 0
BBX 7 8 1 -1
BITMAP
04
F8
10
FE
38
54
92
10
ENDCHAR
STARTCHAR 2F73
ENCODING 12147
SWIDTH 1000 0
DWIDTH 8 0
BBX 7 6 1 0
BITMAP
10
EE
48
48
44
82
ENDCHAR
STARTCHAR 2F74
ENCODING 12148
SWIDTH 1000 0
DWIDTH 8 0
BBX 6 7 2 0
BITMAP
20
24
D8
88
90
50
50
ENDCHAR
STARTCHAR 2F75
ENCODING 12149
SWIDTH 1000 0
DWIDTH 8 0
BBX 8 8 0 -1
BITMAP
28
48
7F
B4
A4
24
24
2C
ENDCHAR
STARTCHAR 2F76
ENCODING 12150
SWIDTH 1000 0
DWIDTH 8 0
BBX 7 7 1 0
BITMAP
10
54
50
3C
54
92
10
ENDCHAR
STARTCHAR 2F77
ENCODING 12151
SWIDTH 1000 0
DWIDTH 8 0
BBX 7 7 1 0
BITMAP
30
28
34
DA
54
92
10
ENDCHAR
STARTCHAR 2F78
ENCODING 12152
SWIDTH 1000 0
DWIDTH 8 0
BBX 5 7 1 0
BITMAP
40
B0
10
F8
98
98
E8
ENDCHAR
STARTCHAR 2F79
ENCODING 12153
SWIDTH 1000 0
DWIDTH 8 0
BBX 6 7 1 0
BITMAP
FC
B4
D4
BC
D4
84
80
ENDCHAR
STARTCHAR 2F7A
ENCODING 12154
SWIDTH 1000 0
DWIDTH 8 0
BBX 5 7 2 -1
BITMAP
88
50
A8
20
78
F8
20
ENDCHAR
STARTCHAR 2F7B
ENCODING 12155
SWIDTH 1000 0
DWIDTH 8 0
BBX 7 6 0 0
BITMAP
76
52
12
52
9A
12
ENDCHAR
STARTCHAR 2F7C
ENCODING 12156
SWIDTH 1000 0
DWIDTH 8 0
BBX 5 6 2 1
BITMAP
48
F0
A8
D0
60
78
ENDCHAR
STARTCHAR 2F7D
ENCODING 12157
SWIDTH 1000 0
DWIDTH 8 0
BBX 6 7 1 0
BITMAP
FC
24
FC
B4
B4
B4
80
ENDCHAR
STARTCHAR 2F7E
ENCODING 12158
SWIDTH 1000 0
DWIDTH 8 0
BBX 7 7 1 0
BITMAP
16
78
3C
7C
54
92
10
ENDCHAR
STARTCHAR 2F7F
ENCODING 12159
SWIDTH 1000 0
DWIDTH 8 0
BBX 5 6 2 0
BITMAP
F8
90
F0
F0
F8
10
ENDCHAR
STARTCHAR 2F80
ENCODING 12160
SWIDTH 1000 0
DWIDTH 8 0
BBX 4 7 2 0
BITMAP
20
F0
30
F0
60
F0
F0
ENDCHAR
STARTCHAR 2F81
ENCODING 12161
SWIDTH 1000 0
DWIDTH 8 0
BBX 6 6 1 1
BITMAP
FC
BC
A4
BC
84
80
ENDCHAR
STARTCHAR 2F82
ENCODING 12162
SWIDTH 1000 0
DWIDTH 8 0
BBX 6 7 1 0
BITMAP
F8
90
E8
88
F0
94
E8
ENDCHAR
STARTCHAR 2F83
ENCODING 12163
SWIDTH 1000 0
DWIDTH 8 0
BBX 4 6 2 1
BITMAP
F0
F0
90
F0
90
F0
ENDCHAR
STARTCHAR 2F84
ENCODING 12164
SWIDTH 1000 0
DWIDTH 8 0
BBX 7 6 1 1
BITMAP
7C
44
BA
10
38
10
ENDCHAR
STARTCHAR 2F85
ENCODING 12165
SWIDTH 1000 0
DWIDTH 8 0
BBX 6 7 1 0
BITMAP
20
CC
84
CC
84
84
FC
ENDCHAR
STARTCHAR 2F86
ENCODING 12166
SWIDTH 1000 0
DWIDTH 8 0
BBX 5 7 2 0
BITMAP
E0
28
F0
20
D0
90
60
ENDCHAR
STARTCHAR 2F87
ENCODING 12167
SWIDTH 1000 0
DWIDTH 8 0
BBX 7 6 0 0
BITMAP
44
BE
A4
54
5C
04
ENDCHAR
STARTCHAR 2F88
ENCODING 12168
SWIDTH 1000 0
DWIDTH 8 0
BBX 5 6 1 0
BITMAP
10
68
58
78
58
88
ENDCHAR
STARTCHAR 2F89
ENCODING 12169
SWIDTH 1000 0
DWIDTH 8 0
BBX 5 7 2 0
BITMAP
F0
F0
90
E8
B0
90
08
ENDCHAR
STARTCHAR 2F8A
ENCODING 12170
SWIDTH 1000 0
DWIDTH 8 0
BBX 5 7 2 -1
BITMAP
40
B0
A8
F8
A8
D0
F8
ENDCHAR
STARTCHAR 2F8B
ENCODING 12171
SWIDTH 1000 0
DWIDTH 8 0
BBX 6 7 1 0
BITMAP
48
FC
FC
FC
D8
88
08
ENDCHAR
STARTCHAR 2F8C
ENCODING 12172
SWIDTH 1000 0
DWIDTH 8 0
BBX 8 7 0 -1
BITMAP
08
0F
7F
59
51
5E
9F
ENDCHAR
STARTCHAR 2F8D
ENCODING 12173
SWIDTH 1000 0
DWIDTH 8 0
BBX 8 8 0 -1
BITMAP
08
08
7E
4A
7E
4A
0A
F5
ENDCHAR
STARTCHAR 2F8E
ENCODING 12174
SWIDTH 1000 0
DWIDTH 8 0
BBX 6 6 1 1
BITMAP
20
FC
B4
B4
B4
B4
ENDCHAR
STARTCHAR 2F8F
ENCODING 12175
SWIDTH 1000 0
DWIDTH 8 0
BBX 5 7 2 0
BITMAP
90
00
B8
90
90
90
80
ENDCHAR
STARTCHAR 2F90
ENCODING 12176
SWIDTH 1000 0
DWIDTH 8 0
BBX 7 6 1 0
BITMAP
10
FC
4E
C8
44
F2
ENDCHAR
STARTCHAR 2F91
ENCODING 12177
SWIDTH 1000 0
DWIDTH 8 0
BBX 7 6 1 1
BITMAP
FE
30
FC
B4
B4
84
ENDCHAR
STARTCHAR 2F92
ENCODING 12178
SWIDTH 1000 0
DWIDTH 8 0
BBX 6 7 1 0
BITMAP
78
78
78
48
70
50
9C
ENDCHAR
STARTCHAR 2F93
ENCODING 12179
SWIDTH 1000 0
DWIDTH 8 0
BBX 6 6 1 0
BITMAP
70
7C
E4
7C
5C
9C
ENDCHAR
STARTCHAR 2F94
ENCODING 12180
SWIDTH 1000 0
DWIDTH 8 0
BBX 5 7 2 0
BITMAP
68
F0
60
60
F0
90
F0
ENDCHAR
STARTCHAR 2F95
ENCODING 12181
SWIDTH 1000 0
DWIDTH 8 0
BBX 5 7 2 -1
BITMAP
40
98
60
90
F8
90
F0
ENDCHAR
STARTCHAR 2F96
ENCODING 12182
SWIDTH 1000 0
DWIDTH 8 0
BBX 5 7 2 0
BITMAP
08
F0
10
F0
F0
00
60
ENDCHAR
STARTCHAR 2F97
ENCODING 12183
SWIDTH 1000 0
DWIDTH 8 0
BBX 6 6 1 0
BITMAP
7C
F4
58
B8
54
10
ENDCHAR
STARTCHAR 2F98
ENCODING 12184
SWIDTH 1000 0
DWIDTH 8 0
BBX 4 6 2 0
BITMAP
60
F0
60
D0
B0
D0
ENDCHAR
STARTCHAR 2F99
ENCODING 12185
SWIDTH 1000 0
DWIDTH 8 0
BBX 5 6 2 0
BITMAP
F0
F0
90
F0
60
98
ENDCHAR
STARTCHAR 2F9A
ENCODING 12186
SWIDTH 1000 0
DWIDTH 8 0
BBX 7 6 0 0
BITMAP
08
3C
3C
5C
AA
38
ENDCHAR
STARTCHAR 2F9B
ENCODING 12187
SWIDTH 1000 0
DWIDTH 8 0
BBX 7 7 1 0
BITMAP
10
3C
FE
50
DC
B0
0C
ENDCHAR
STARTCHAR 2F9C
ENCODING 12188
SWIDTH 1000 0
DWIDTH 8 0
BBX 5 7 1 0
BITMAP
78
48
78
10
58
B0
08
ENDCHAR
STARTCHAR 2F9D
ENCODING 12189
SWIDTH 1000 0
DWIDTH 8 0
BBX 6 6 2 1
BITMAP
F0
F0
94
F8
70
D0
ENDCHAR
STARTCHAR 2F9E
ENCODING 12190
SWIDTH 1000 0
DWIDTH 8 0
BBX 6 6 1 0
BITMAP
10
F8
F8
F8
74
F8
ENDCHAR
STARTCHAR 2F9F
ENCODING 12191
SWIDTH 1000 0
DWIDTH 8 0
BBX 7 7 1 0
BITMAP
10
6C
28
54
FE
10
10
ENDCHAR
STARTCHAR 2FA0
ENCODING 12192
SWIDTH 1000 0
DWIDTH 8 0
BBX 8 7 0 0
BITMAP
7E
5E
40
7F
56
96
09
ENDCHAR
STARTCHAR 2FA1
ENCODING 12193
SWIDTH 1000 0
DWIDTH 8 0
BBX 6 7 1 0
BITMAP
78
38
5C
70
5C
B0
0C
ENDCHAR
STARTCHAR 2FA2
ENCODING 12194
SWIDTH 1000 0
DWIDTH 8 0
BBX 7 6 1 1
BITMAP
78
30
FC
94
EA
FA
ENDCHAR
STARTCHAR 2FA3
ENCODING 12195
SWIDTH 1000 0
DWIDTH 8 0
BBX 6 7 1 0
BITMAP
FC
34
FC
BC
84
FC
FC
ENDCHAR
STARTCHAR 2FA4
ENCODING 12196
SWIDTH 1000 0
DWIDTH 8 0
BBX 7 7 1 0
BITMAP
3C
54
58
3C
54
92
10
ENDCHAR
STARTCHAR 2FA5
ENCODING 12197
SWIDTH 1000 0
DWIDTH 8 0
BBX 4 6 2 1
BITMAP
F0
B0
F0
F0
30
60
ENDCHAR
STARTCHAR 2FA6
ENCODING 12198
SWIDTH 1000 0
DWIDTH 8 0
BBX 7 7 1 0
BITMAP
10
28
24
DA
12
7C
58
ENDCHAR
STARTCHAR 2FA7
ENCODING 12199
SWIDTH 1000 0
DWIDTH 8 0
BBX 7 6 1 0
BITMAP
78
78
7A
FC
48
E6
ENDCHAR
STARTCHAR 2FA8
ENCODING 12200
SWIDTH 1000 0
DWIDTH 8 0
BBX 6 7 1 0
BITMAP
FC
FC
FC
84
84
84
80
ENDCHAR
STARTCHAR 2FA9
ENCODING 12201
SWIDTH 1000 0
DWIDTH 8 0
BBX 5 7 2 0
BITMAP
F0
90
F0
90
68
F0
20
ENDCHAR
STARTCHAR 2FAA
ENCODING 12202
SWIDTH 1000 0
DWIDTH 8 0
BBX 6 7 1 -1
BITMAP
10
78
FC
18
34
18
DC
ENDCHAR
STARTCHAR 2FAB
ENCODING 12203
SWIDTH 1000 0
DWIDTH 8 0
BBX 7 8 1 -1
BITMAP
28
50
7C
D0
78
78
52
6C
ENDCHAR
STARTCHAR 2FAC
ENCODING 12204
SWIDTH 1000 0
DWIDTH 8 0
BBX 6 7 1 0
BITMAP
FC
14
FC
9C
FC
94
80
ENDCHAR
STARTCHAR 2FAD
ENCODING 12205
SWIDTH 1000 0
DWIDTH 8 0
BBX 4 8 2 -1
BITMAP
20
F0
F0
D0
F0
F0
90
80
ENDCHAR
STARTCHAR 2FAE
ENCODING 12206
SWIDTH 1000 0
DWIDTH 8 0
BBX 5 7 2 -1
BITMAP
60
60
F0
68
F0
F8
A0
ENDCHAR
STARTCHAR 2FAF
ENCODING 12207
SWIDTH 1000 0
DWIDTH 8 0
BBX 6 7 1 0
BITMAP
FC
24
FC
B4
B4
B4
CC
ENDCHAR
STARTCHAR 2FB0
ENCODING 12208
SWIDTH 1000 0
DWIDTH 8 0
BBX 6 8 1 -1
BITMAP
30
F8
30
F8
98
74
F8
10
ENDCHAR
STARTCHAR 2FB1
ENCODING 12209
SWIDTH 1000 0
DWIDTH 8 0
BBX 4 6 2 0
BITMAP
60
90
F0
60
F0
70
ENDCHAR
STARTCHAR 2FB2
ENCODING 12210
SWIDTH 1000 0
DWIDTH 8 0
BBX 5 6 2 1
BITMAP
60
F0
68
F0
F0
60
ENDCHAR
STARTCHAR 2FB3
ENCODING 12211
SWIDTH 1000 0
DWIDTH 8 0
BBX 6 7 1 1
BITMAP
FC
20
FC
78
48
78
78
ENDCHAR
STARTCHAR 2FB4
ENCODING 12212
SWIDTH 1000 0
DWIDTH 8 0
BBX 6 7 1 0
BITMAP
78
58
78
78
48
30
CC
ENDCHAR
STARTCHAR 2FB5
ENCODING 12213
SWIDTH 1000 0
DWIDTH 8 0
BBX 8 7 0 0
BITMAP
7C
5C
7A
6A
7B
8D
11
ENDCHAR
STARTCHAR 2FB6
ENCODING 12214
SWIDTH 1000 0
DWIDTH 8 0
BBX 7 6 1 0
BITMAP
7E
D6
52
FA
56
92
ENDCHAR
STARTCHAR 2FB7
ENCODING 12215
SWIDTH 1000 0
DWIDTH 8 0
BBX 6 7 1 0
BITMAP
30
48
FC
78
78
50
0C
ENDCHAR
STARTCHAR 2FB8
ENCODING 12216
SWIDTH 1000 0
DWIDTH 8 0
BBX 4 7 2 0
BITMAP
60
D0
B0
F0
90
F0
F0
ENDCHAR
STARTCHAR 2FB9
ENCODING 12217
SWIDTH 1000 0
DWIDTH 8 0
BBX 6 7 1 0
BITMAP
70
78
58
94
68
78
30
ENDCHAR
STARTCHAR 2FBA
ENCODING 12218
SWIDTH 1000 0
DWIDTH 8 0
BBX 7 7 1 0
BITMAP
7C
78
7C
50
2E
B2
04
ENDCHAR
STARTCHAR 2FBB
ENCODING 12219
SWIDTH 1000 0
DWIDTH 8 0
BBX 7 7 0 0
BITMAP
3C
2C
D2
3C
3C
3C
20
ENDCHAR
STARTCHAR 2FBC
ENCODING 12220
SWIDTH 1000 0
DWIDTH 8 0
BBX 6 7 1 0
BITMAP
FC
48
34
FC
B4
A4
88
ENDCHAR
STARTCHAR 2FBD
ENCODING 12221
SWIDTH 1000 0
DWIDTH 8 0
BBX 8 6 0 0
BITMAP
66
69
62
FD
42
74
ENDCHAR
STARTCHAR 2FBE
ENCODING 12222
SWIDTH 1000 0
DWIDTH 8 0
BBX 6 7 1 0
BITMAP
D4
D4
84
84
84
84
88
ENDCHAR
STARTCHAR 2FBF
ENCODING 12223
SWIDTH 1000 0
DWIDTH 8 0
BBX 6 6 1 1
BITMAP
A4
BC
D4
68
70
7C
ENDCHAR
STARTCHAR 2FC0
ENCODING 12224
SWIDTH 1000 0
DWIDTH 8 0
BBX 6 7 1 0
BITMAP
78
78
30
FC
C4
B4
80
ENDCHAR
STARTCHAR 2FC1
ENCODING 12225
SWIDTH 1000 0
DWIDTH 8 0
BBX 7 5 1 1
BITMAP
FC
FC
F8
5C
9E
ENDCHAR
STARTCHAR 2FC2
ENCODING 12226
SWIDTH 1000 0
DWIDTH 8 0
BBX 7 7 1 0
BITMAP
20
50
7C
D4
7C
28
AE
ENDCHAR
STARTCHAR 2FC3
ENCODING 12227
SWIDTH 1000 0
DWIDTH 8 0
BBX 6 6 1 1
BITMAP
78
88
F0
F8
7C
94
ENDCHAR
STARTCHAR 2FC4
ENCODING 12228
SWIDTH 1000 0
DWIDTH 8 0
BBX 6 8 1 -1
BITMAP
10
1C
FC
9C
D4
9C
F4
AC
ENDCHAR
STARTCHAR 2FC5
ENCODING 12229
SWIDTH 1000 0
DWIDTH 8 0
BBX 8 6 0 1
BITMAP
7E
7E
6C
78
AC
AF
ENDCHAR
STARTCHAR 2FC6
ENCODING 12230
SWIDTH 1000 0
DWIDTH 8 0
BBX 7 8 1 -1
BITMAP
10
FE
54
3A
D6
68
3C
40
ENDCHAR
STARTCHAR 2FC7
ENCODING 12231
SWIDTH 1000 0
DWIDTH 8 0
BBX 8 7 0 0
BITMAP
08
76
7F
54
7E
95
94
ENDCHAR
STARTCHAR 2FC8
ENCODING 12232
SWIDTH 1000 0
DWIDTH 8 0
BBX 7 8 1 -1
BITMAP
20
DC
22
FC
FC
FC
6C
C0
ENDCHAR
STARTCHAR 2FC9
ENCODING 12233
SWIDTH 1000 0
DWIDTH 8 0
BBX 7 6 1 0
BITMAP
7C
7C
D6
7C
1A
D6
ENDCHAR
STARTCHAR 2FCA
ENCODING 12234
SWIDTH 1000 0
DWIDTH 8 0
BBX 6 6 1 1
BITMAP
78
78
30
34
68
A4
ENDCHAR
STARTCHAR 2FCB
ENCODING 12235
SWIDTH 1000 0
DWIDTH 8 0
BBX 7 8 1 -1
BITMAP
30
BC
54
9E
FC
D4
D4
88
ENDCHAR
STARTCHAR 2FCC
ENCODING 12236
SWIDTH 1000 0
DWIDTH 8 0
BBX 7 6 1 1
BITMAP
F8
70
FC
FC
B4
FE
ENDCHAR
STARTCHAR 2FCD
ENCODING 12237
SWIDTH 1000 0
DWIDTH 8 0
BBX 6 6 1 0
BITMAP
FC
FC
FC
30
FC
34
ENDCHAR
STARTCHAR 2FCE
ENCODING 12238
SWIDTH 1000 0
DWIDTH 8 0
BBX 7 8 1 0
BITMAP
48
EA
6C
A8
F4
B4
48
16
ENDCHAR
STARTCHAR 2FCF
ENCODING 12239
SWIDTH 1000 0
DWIDTH 8 0
BBX 7 7 1 -1
BITMAP
20
C4
C4
7C
F8
F4
D2
ENDCHAR
STARTCHAR 2FD0
ENCODING 12240
SWIDTH 1000 0
DWIDTH 8 0
BBX 7 7 1 -1
BITMAP
20
58
78
00
FC
52
FC
ENDCHAR
STARTCHAR 2FD1
ENCODING 12241
SWIDTH 1000 0
DWIDTH 8 0
BBX 6 7 1 -1
BITMAP
10
FC
D8
9C
48
B8
F8
ENDCHAR
STARTCHAR 2FD2
ENCODING 12242
SWIDTH 1000 0
DWIDTH 8 0
BBX 8 8 0 -1
BITMAP
28
2C
FF
56
6A
56
6A
56
ENDCHAR
STARTCHAR 2FD3
ENCODING 12243
SWIDTH 1000 0
DWIDTH 8 0
BBX 6 7 1 0
BITMAP
FC
84
5C
E0
F8
FC
80
ENDCHAR
STARTCHAR 2FD4
ENCODING 12244
SWIDTH 1000 0
DWIDTH 8 0
BBX 8 7 0 0
BITMAP
78
7E
FC
3E
FA
3F
5F
ENDCHAR
STARTCHAR 2FD5
ENCODING 12245
SWIDTH 1000 0
DWIDTH 8 0
BBX 7 7 1 0
BITMAP
78
86
FC
40
FC
FC
80
ENDCHAR
STARTCHAR 2FF0
ENCODING 12272
SWIDTH 1000 0
DWIDTH 8 0
BBX 0 0 0 -1
BITMAP
ENDCHAR
STARTCHAR 2FF1
ENCODING 12273
SWIDTH 1000 0
DWIDTH 8 0
BBX 0 0 0 -1
BITMAP
ENDCHAR
STARTCHAR 2FF2
ENCODING 12274
SWIDTH 1000 0
DWIDTH 8 0
BBX 0 0 0 -1
BITMAP
ENDCHAR
STARTCHAR 2FF3
ENCODING 12275
SWIDTH 1000 0
DWIDTH 8 0
BBX 0 0 0 -1
BITMAP
ENDCHAR
STARTCHAR 2FF4
ENCODING 12276
SWIDTH 1000 0
DWIDTH 8 0
BBX 4 3 2 0
BITMAP
F0
80
80
ENDCHAR
STARTCHAR 2FF5
ENCODING 12277
SWIDTH 1000 0
DWIDTH 8 0
BBX 0 0 0 -1
BITMAP
ENDCHAR
STARTCHAR 2FF6
ENCODING 12278
SWIDTH 1000 0
DWIDTH 8 0
BBX 1 1 4 3
BITMAP
80
ENDCHAR
STARTCHAR 2FF7
ENCODING 12279
SWIDTH 1000 0
DWIDTH 8 0
BBX 4 1 3 3
BITMAP
F0
ENDCHAR
STARTCHAR 2FF8
ENCODING 12280
SWIDTH 1000 0
DWIDTH 8 0
BBX 0 0 0 -1
BITMAP
ENDCHAR
STARTCHAR 2FF9
ENCODING 12281
SWIDTH 1000 0
DWIDTH 8 0
BBX 0 0 0 -1
BITMAP
ENDCHAR
STARTCHAR 2FFA
ENCODING 12282
SWIDTH 1000 0
DWIDTH 8 0
BBX 4 1 3 3
BITMAP
F0
ENDCHAR
STARTCHAR 2FFB
ENCODING 12283
SWIDTH 1000 0
DWIDTH 8 0
BBX 5 5 2 0
BITMAP
B8
90
90
F0
80
ENDCHAR
STARTCHAR 3000
ENCODING 12288
SWIDTH 1000 0
DWIDTH 8 0
BBX 0 0 0 0
BITMAP
ENDCHAR
STARTCHAR 3001
ENCODING 12289
SWIDTH 1000 0
DWIDTH 8 0
BBX 1 2 1 0
BITMAP
80
80
ENDCHAR
STARTCHAR 3002
ENCODING 12290
SWIDTH 1000 0
DWIDTH 8 0
BBX 2 2 0 0
BITMAP
C0
C0
ENDCHAR
STARTCHAR 3003
ENCODING 12291
SWIDTH 1000 0
DWIDTH 8 0
BBX 3 3 2 1
BITMAP
60
A0
C0
ENDCHAR
STARTCHAR 3004
ENCODING 12292
SWIDTH 1000 0
DWIDTH 8 0
BBX 7 8 0 -1
BITMAP
18
6C
8A
8A
BA
E2
74
08
ENDCHAR
STARTCHAR 3005
ENCODING 12293
SWIDTH 1000 0
DWIDTH 8 0
BBX 4 5 2 1
BITMAP
40
40
B0
20
20
ENDCHAR
STARTCHAR 3006
ENCODING 12294
SWIDTH 1000 0
DWIDTH 8 0
BBX 6 6 1 0
BITMAP
04
08
70
B0
C0
80
ENDCHAR
STARTCHAR 3007
ENCODING 12295
SWIDTH 1000 0
DWIDTH 8 0
BBX 6 6 1 0
BITMAP
78
8C
84
84
CC
78
ENDCHAR
STARTCHAR 3008
ENCODING 12296
SWIDTH 1000 0
DWIDTH 8 0
BBX 4 7 4 0
BITMAP
20
40
80
80
40
20
10
ENDCHAR
STARTCHAR 3009
ENCODING 12297
SWIDTH 1000 0
DWIDTH 8 0
BBX 3 7 0 0
BITMAP
40
40
20
20
40
40
80
ENDCHAR
STARTCHAR 300A
ENCODING 12298
SWIDTH 1000 0
DWIDTH 8 0
BBX 4 8 4 -1
BITMAP
30
60
C0
C0
C0
60
60
30
ENDCHAR
STARTCHAR 300B
ENCODING 12299
SWIDTH 1000 0
DWIDTH 8 0
BBX 3 8 0 -1
BITMAP
C0
C0
60
60
60
60
C0
C0
ENDCHAR
STARTCHAR 300C
ENCODING 12300
SWIDTH 1000 0
DWIDTH 8 0
BBX 3 6 5 0
BITMAP
E0
80
80
80
80
80
ENDCHAR
STARTCHAR 300D
ENCODING 12301
SWIDTH 1000 0
DWIDTH 8 0
BBX 3 6 0 0
BITMAP
20
20
20
20
20
E0
ENDCHAR
STARTCHAR 300E
ENCODING 12302
SWIDTH 1000 0
DWIDTH 8 0
BBX 2 6 5 1
BITMAP
C0
C0
C0
C0
C0
C0
ENDCHAR
STARTCHAR 300F
ENCODING 12303
SWIDTH 1000 0
DWIDTH 8 0
BBX 2 6 1 -1
BITMAP
C0
C0
C0
C0
C0
C0
ENDCHAR
STARTCHAR 3010
ENCODING 12304
SWIDTH 1000 0
DWIDTH 8 0
BBX 1 8 6 -1
BITMAP
80
80
00
00
00
00
80
80
ENDCHAR
STARTCHAR 3011
ENCODING 12305
SWIDTH 1000 0
DWIDTH 8 0
BBX 1 8 1 -1
BITMAP
80
80
80
80
80
80
80
80
ENDCHAR
STARTCHAR 3012
ENCODING 12306
SWIDTH 1000 0
DWIDTH 8 0
BBX 6 6 1 0
BITMAP
FC
00
FC
10
10
10
ENDCHAR
STARTCHAR 3013
ENCODING 12307
SWIDTH 1000 0
DWIDTH 8 0
BBX 6 4 1 1
BITMAP
FC
00
00
FC
ENDCHAR
STARTCHAR 3014
ENCODING 12308
SWIDTH 1000 0
DWIDTH 8 0
BBX 2 7 6 0
BITMAP
80
80
80
80
80
80
40
ENDCHAR
STARTCHAR 3015
ENCODING 12309
SWIDTH 1000 0
DWIDTH 8 0
BBX 2 7 0 0
BITMAP
40
40
40
40
40
40
80
ENDCHAR
STARTCHAR 3016
ENCODING 12310
SWIDTH 1000 0
DWIDTH 8 0
BBX 3 8 5 -1
BITMAP
E0
C0
C0
C0
C0
C0
C0
E0
ENDCHAR
STARTCHAR 3017
ENCODING 12311
SWIDTH 1000 0
DWIDTH 8 0
BBX 3 8 0 -1
BITMAP
E0
A0
60
60
60
60
A0
E0
ENDCHAR
STARTCHAR 3018
ENCODING 12312
SWIDTH 1000 0
DWIDTH 8 0
BBX 2 6 5 0
BITMAP
C0
C0
C0
C0
C0
C0
ENDCHAR
STARTCHAR 3019
ENCODING 12313
SWIDTH 1000 0
DWIDTH 8 0
BBX 2 6 1 0
BITMAP
C0
40
40
40
40
C0
ENDCHAR
STARTCHAR 301C
ENCODING 12316
SWIDTH 1000 0
DWIDTH 8 0
BBX 6 2 1 2
BITMAP
E0
1C
ENDCHAR
STARTCHAR 301D
ENCODING 12317
SWIDTH 1000 0
DWIDTH 8 0
BBX 2 3 5 3
BITMAP
80
40
40
ENDCHAR
STARTCHAR 301F
ENCODING 12319
SWIDTH 1000 0
DWIDTH 8 0
BBX 1 2 1 0
BITMAP
80
80
ENDCHAR
STARTCHAR 3020
ENCODING 12320
SWIDTH 1000 0
DWIDTH 8 0
BBX 7 5 1 0
BITMAP
FE
FE
D6
D6
84
ENDCHAR
STARTCHAR 3033
ENCODING 12339
SWIDTH 1000 0
DWIDTH 8 0
BBX 3 7 2 -1
BITMAP
20
20
40
40
80
80
80
ENDCHAR
STARTCHAR 3034
ENCODING 12340
SWIDTH 1000 0
DWIDTH 8 0
BBX 5 7 2 -1
BITMAP
20
20
40
40
98
80
80
ENDCHAR
STARTCHAR 3035
ENCODING 12341
SWIDTH 1000 0
DWIDTH 8 0
BBX 3 7 2 1
BITMAP
80
80
40
40
40
20
20
ENDCHAR
STARTCHAR 3036
ENCODING 12342
SWIDTH 1000 0
DWIDTH 8 0
BBX 7 8 1 -1
BITMAP
38
44
FE
FE
92
92
44
38
ENDCHAR
STARTCHAR 303B
ENCODING 12347
SWIDTH 1000 0
DWIDTH 8 0
BBX 3 5 3 1
BITMAP
40
80
C0
60
80
ENDCHAR
STARTCHAR 303C
ENCODING 12348
SWIDTH 1000 0
DWIDTH 8 0
BBX 6 6 1 0
BITMAP
FC
8C
94
A4
C4
FC
ENDCHAR
STARTCHAR 303D
ENCODING 12349
SWIDTH 1000 0
DWIDTH 8 0
BBX 6 6 1 0
BITMAP
F0
10
08
08
08
04
ENDCHAR
STARTCHAR 3041
ENCODING 12353
SWIDTH 1000 0
DWIDTH 8 0
BBX 4 5 2 0
BITMAP
40
C0
70
D0
D0
ENDCHAR
STARTCHAR 3042
ENCODING 12354
SWIDTH 1000 0
DWIDTH 8 0
BBX 6 6 1 0
BITMAP
20
50
38
D4
A4
E8
ENDCHAR
STARTCHAR 3043
ENCODING 12355
SWIDTH 1000 0
DWIDTH 8 0
BBX 6 3 1 2
BITMAP
88
84
40
ENDCHAR
STARTCHAR 3044
ENCODING 12356
SWIDTH 1000 0
DWIDTH 8 0
BBX 6 5 1 1
BITMAP
88
84
A4
C0
40
ENDCHAR
STARTCHAR 3045
ENCODING 12357
SWIDTH 1000 0
DWIDTH 8 0
BBX 4 6 2 0
BITMAP
60
00
F0
10
00
20
ENDCHAR
STARTCHAR 3046
ENCODING 12358
SWIDTH 1000 0
DWIDTH 8 0
BBX 4 6 2 0
BITMAP
20
00
F0
10
10
20
ENDCHAR
STARTCHAR 3047
ENCODING 12359
SWIDTH 1000 0
DWIDTH 8 0
BBX 3 5 2 1
BITMAP
60
E0
40
60
80
ENDCHAR
STARTCHAR 3048
ENCODING 12360
SWIDTH 1000 0
DWIDTH 8 0
BBX 6 6 1 1
BITMAP
10
10
70
20
70
8C
ENDCHAR
STARTCHAR 3049
ENCODING 12361
SWIDTH 1000 0
DWIDTH 8 0
BBX 5 4 2 1
BITMAP
C8
80
F0
B0
ENDCHAR
STARTCHAR 304A
ENCODING 12362
SWIDTH 1000 0
DWIDTH 8 0
BBX 6 6 1 1
BITMAP
08
F4
40
3C
C4
DC
ENDCHAR
STARTCHAR 304B
ENCODING 12363
SWIDTH 1000 0
DWIDTH 8 0
BBX 7 6 0 1
BITMAP
10
20
BA
4A
48
50
ENDCHAR
STARTCHAR 304C
ENCODING 12364
SWIDTH 1000 0
DWIDTH 8 0
BBX 8 7 0 0
BITMAP
01
12
20
BA
4A
48
50
ENDCHAR
STARTCHAR 304D
ENCODING 12365
SWIDTH 1000 0
DWIDTH 8 0
BBX 5 6 2 1
BITMAP
90
68
F0
10
F0
E0
ENDCHAR
STARTCHAR 304E
ENCODING 12366
SWIDTH 1000 0
DWIDTH 8 0
BBX 7 7 1 0
BITMAP
02
2C
70
F8
10
78
70
ENDCHAR
STARTCHAR 304F
ENCODING 12367
SWIDTH 1000 0
DWIDTH 8 0
BBX 4 6 2 0
BITMAP
20
40
80
C0
20
10
ENDCHAR
STARTCHAR 3050
ENCODING 12368
SWIDTH 1000 0
DWIDTH 8 0
BBX 5 6 2 1
BITMAP
20
58
80
40
20
10
ENDCHAR
STARTCHAR 3051
ENCODING 12369
SWIDTH 1000 0
DWIDTH 8 0
BBX 6 6 1 0
BITMAP
88
BC
88
C8
88
90
ENDCHAR
STARTCHAR 3052
ENCODING 12370
SWIDTH 1000 0
DWIDTH 8 0
BBX 7 7 1 -1
BITMAP
02
8C
BC
88
88
88
90
ENDCHAR
STARTCHAR 3053
ENCODING 12371
SWIDTH 1000 0
DWIDTH 8 0
BBX 5 6 1 0
BITMAP
78
20
00
00
80
78
ENDCHAR
STARTCHAR 3054
ENCODING 12372
SWIDTH 1000 0
DWIDTH 8 0
BBX 7 7 1 0
BITMAP
02
7C
20
00
00
80
78
ENDCHAR
STARTCHAR 3055
ENCODING 12373
SWIDTH 1000 0
DWIDTH 8 0
BBX 5 5 1 2
BITMAP
F8
10
78
40
38
ENDCHAR
STARTCHAR 3056
ENCODING 12374
SWIDTH 1000 0
DWIDTH 8 0
BBX 7 7 1 0
BITMAP
02
24
F8
10
F8
80
70
ENDCHAR
STARTCHAR 3057
ENCODING 12375
SWIDTH 1000 0
DWIDTH 8 0
BBX 5 6 2 1
BITMAP
80
80
80
88
90
E0
ENDCHAR
STARTCHAR 3058
ENCODING 12376
SWIDTH 1000 0
DWIDTH 8 0
BBX 5 6 2 1
BITMAP
80
B0
80
88
90
E0
ENDCHAR
STARTCHAR 3059
ENCODING 12377
SWIDTH 1000 0
DWIDTH 8 0
BBX 5 7 1 -1
BITMAP
10
10
F8
30
30
30
20
ENDCHAR
STARTCHAR 305A
ENCODING 12378
SWIDTH 1000 0
DWIDTH 8 0
BBX 7 7 1 -1
BITMAP
02
14
F8
30
30
30
20
ENDCHAR
STARTCHAR 305B
ENCODING 12379
SWIDTH 1000 0
DWIDTH 8 0
BBX 7 6 0 1
BITMAP
04
24
FE
28
20
1E
ENDCHAR
STARTCHAR 305C
ENCODING 12380
SWIDTH 1000 0
DWIDTH 8 0
BBX 8 7 0 0
BITMAP
01
06
24
FE
28
20
1E
ENDCHAR
STARTCHAR 305D
ENCODING 12381
SWIDTH 1000 0
DWIDTH 8 0
BBX 6 6 1 0
BITMAP
78
30
5C
F0
20
20
ENDCHAR
STARTCHAR 305E
ENCODING 12382
SWIDTH 1000 0
DWIDTH 8 0
BBX 7 7 1 0
BITMAP
04
76
20
5C
E0
20
20
ENDCHAR
STARTCHAR 305F
ENCODING 12383
SWIDTH 1000 0
DWIDTH 8 0
BBX 6 6 1 1
BITMAP
20
F0
5C
80
80
9C
ENDCHAR
STARTCHAR 3060
ENCODING 12384
SWIDTH 1000 0
DWIDTH 8 0
BBX 7 6 1 1
BITMAP
26
F0
5C
80
80
9C
ENDCHAR
STARTCHAR 3061
ENCODING 12385
SWIDTH 1000 0
DWIDTH 8 0
BBX 6 7 1 0
BITMAP
20
E0
40
7C
44
08
10
ENDCHAR
STARTCHAR 3062
ENCODING 12386
SWIDTH 1000 0
DWIDTH 8 0
BBX 6 7 1 0
BITMAP
44
E0
40
7C
44
08
10
ENDCHAR
STARTCHAR 3063
ENCODING 12387
SWIDTH 1000 0
DWIDTH 8 0
BBX 5 4 1 -1
BITMAP
38
C8
08
10
ENDCHAR
STARTCHAR 3064
ENCODING 12388
SWIDTH 1000 0
DWIDTH 8 0
BBX 6 5 1 0
BITMAP
3C
C4
04
08
10
ENDCHAR
STARTCHAR 3065
ENCODING 12389
SWIDTH 1000 0
DWIDTH 8 0
BBX 7 6 1 1
BITMAP
06
38
C4
04
08
30
ENDCHAR
STARTCHAR 3066
ENCODING 12390
SWIDTH 1000 0
DWIDTH 8 0
BBX 6 6 1 0
BITMAP
1C
F0
20
20
20
18
ENDCHAR
STARTCHAR 3067
ENCODING 12391
SWIDTH 1000 0
DWIDTH 8 0
BBX 6 6 1 0
BITMAP
1C
E0
24
20
20
18
ENDCHAR
STARTCHAR 3068
ENCODING 12392
SWIDTH 1000 0
DWIDTH 8 0
BBX 4 5 2 2
BITMAP
90
60
80
80
F0
ENDCHAR
STARTCHAR 3069
ENCODING 12393
SWIDTH 1000 0
DWIDTH 8 0
BBX 6 7 2 0
BITMAP
08
0C
90
A0
C0
80
F0
ENDCHAR
STARTCHAR 306A
ENCODING 12394
SWIDTH 1000 0
DWIDTH 8 0
BBX 6 6 1 1
BITMAP
20
C4
40
88
B0
3C
ENDCHAR
STARTCHAR 306B
ENCODING 12395
SWIDTH 1000 0
DWIDTH 8 0
BBX 5 6 1 0
BITMAP
98
90
80
C0
B8
80
ENDCHAR
STARTCHAR 306C
ENCODING 12396
SWIDTH 1000 0
DWIDTH 8 0
BBX 6 6 1 1
BITMAP
20
38
E4
E4
BC
D8
ENDCHAR
STARTCHAR 306D
ENCODING 12397
SWIDTH 1000 0
DWIDTH 8 0
BBX 7 6 1 1
BITMAP
40
D8
64
44
DC
5A
ENDCHAR
STARTCHAR 306E
ENCODING 12398
SWIDTH 1000 0
DWIDTH 8 0
BBX 6 6 1 0
BITMAP
78
A4
A4
C4
C4
18
ENDCHAR
STARTCHAR 306F
ENCODING 12399
SWIDTH 1000 0
DWIDTH 8 0
BBX 6 6 1 1
BITMAP
88
BC
88
88
B8
BC
ENDCHAR
STARTCHAR 3070
ENCODING 12400
SWIDTH 1000 0
DWIDTH 8 0
BBX 7 7 1 -1
BITMAP
02
8C
BC
88
88
B8
BC
ENDCHAR
STARTCHAR 3071
ENCODING 12401
SWIDTH 1000 0
DWIDTH 8 0
BBX 7 7 1 0
BITMAP
06
8E
BC
88
88
B8
BC
ENDCHAR
STARTCHAR 3072
ENCODING 12402
SWIDTH 1000 0
DWIDTH 8 0
BBX 6 6 1 0
BITMAP
20
C8
88
8C
98
70
ENDCHAR
STARTCHAR 3073
ENCODING 12403
SWIDTH 1000 0
DWIDTH 8 0
BBX 7 7 1 0
BITMAP
02
2C
C8
8C
8C
88
70
ENDCHAR
STARTCHAR 3074
ENCODING 12404
SWIDTH 1000 0
DWIDTH 8 0
BBX 7 7 1 0
BITMAP
06
2E
C8
8C
8C
88
70
ENDCHAR
STARTCHAR 3075
ENCODING 12405
SWIDTH 1000 0
DWIDTH 8 0
BBX 6 6 1 1
BITMAP
30
20
20
14
90
70
ENDCHAR
STARTCHAR 3076
ENCODING 12406
SWIDTH 1000 0
DWIDTH 8 0
BBX 7 6 1 1
BITMAP
36
20
20
14
90
70
ENDCHAR
STARTCHAR 3077
ENCODING 12407
SWIDTH 1000 0
DWIDTH 8 0
BBX 6 6 1 1
BITMAP
34
24
20
14
94
70
ENDCHAR
STARTCHAR 3078
ENCODING 12408
SWIDTH 1000 0
DWIDTH 8 0
BBX 6 4 1 1
BITMAP
20
50
88
04
ENDCHAR
STARTCHAR 3079
ENCODING 12409
SWIDTH 1000 0
DWIDTH 8 0
BBX 6 5 1 1
BITMAP
04
28
50
88
04
ENDCHAR
STARTCHAR 307A
ENCODING 12410
SWIDTH 1000 0
DWIDTH 8 0
BBX 6 5 1 1
BITMAP
0C
2C
50
88
04
ENDCHAR
STARTCHAR 307B
ENCODING 12411
SWIDTH 1000 0
DWIDTH 8 0
BBX 6 6 1 1
BITMAP
BC
88
B8
88
B8
B8
ENDCHAR
STARTCHAR 307C
ENCODING 12412
SWIDTH 1000 0
DWIDTH 8 0
BBX 7 7 1 0
BITMAP
02
BC
90
BC
90
B8
B0
ENDCHAR
STARTCHAR 307D
ENCODING 12413
SWIDTH 1000 0
DWIDTH 8 0
BBX 7 7 1 0
BITMAP
06
BE
90
BC
90
B8
B0
ENDCHAR
STARTCHAR 307E
ENCODING 12414
SWIDTH 1000 0
DWIDTH 8 0
BBX 5 5 2 2
BITMAP
E0
D0
60
C0
F8
ENDCHAR
STARTCHAR 307F
ENCODING 12415
SWIDTH 1000 0
DWIDTH 8 0
BBX 7 6 1 -1
BITMAP
70
20
28
D8
8E
10
ENDCHAR
STARTCHAR 3080
ENCODING 12416
SWIDTH 1000 0
DWIDTH 8 0
BBX 6 6 1 1
BITMAP
40
C4
44
C0
C8
78
ENDCHAR
STARTCHAR 3081
ENCODING 12417
SWIDTH 1000 0
DWIDTH 8 0
BBX 6 6 1 0
BITMAP
10
B8
E4
E4
E4
08
ENDCHAR
STARTCHAR 3082
ENCODING 12418
SWIDTH 1000 0
DWIDTH 8 0
BBX 6 6 1 1
BITMAP
20
F0
40
74
24
38
ENDCHAR
STARTCHAR 3083
ENCODING 12419
SWIDTH 1000 0
DWIDTH 8 0
BBX 6 4 1 1
BITMAP
50
5C
FC
20
ENDCHAR
STARTCHAR 3084
ENCODING 12420
SWIDTH 1000 0
DWIDTH 8 0
BBX 6 6 1 1
BITMAP
F0
5C
E4
3C
20
20
ENDCHAR
STARTCHAR 3085
ENCODING 12421
SWIDTH 1000 0
DWIDTH 8 0
BBX 6 4 1 0
BITMAP
10
BC
54
38
ENDCHAR
STARTCHAR 3086
ENCODING 12422
SWIDTH 1000 0
DWIDTH 8 0
BBX 6 5 1 0
BITMAP
90
B8
D4
94
B8
ENDCHAR
STARTCHAR 3087
ENCODING 12423
SWIDTH 1000 0
DWIDTH 8 0
BBX 4 4 2 1
BITMAP
50
60
40
F0
ENDCHAR
STARTCHAR 3088
ENCODING 12424
SWIDTH 1000 0
DWIDTH 8 0
BBX 6 5 1 2
BITMAP
28
30
20
F0
EC
ENDCHAR
STARTCHAR 3089
ENCODING 12425
SWIDTH 1000 0
DWIDTH 8 0
BBX 5 7 2 0
BITMAP
20
00
00
B8
C8
10
20
ENDCHAR
STARTCHAR 308A
ENCODING 12426
SWIDTH 1000 0
DWIDTH 8 0
BBX 4 6 2 0
BITMAP
A0
D0
90
90
10
20
ENDCHAR
STARTCHAR 308B
ENCODING 12427
SWIDTH 1000 0
DWIDTH 8 0
BBX 6 6 1 1
BITMAP
78
30
38
44
E4
58
ENDCHAR
STARTCHAR 308C
ENCODING 12428
SWIDTH 1000 0
DWIDTH 8 0
BBX 7 6 1 1
BITMAP
40
D8
68
48
C6
44
ENDCHAR
STARTCHAR 308D
ENCODING 12429
SWIDTH 1000 0
DWIDTH 8 0
BBX 6 7 1 -1
BITMAP
70
20
40
7C
84
08
10
ENDCHAR
STARTCHAR 308E
ENCODING 12430
SWIDTH 1000 0
DWIDTH 8 0
BBX 5 4 2 1
BITMAP
F8
48
88
90
ENDCHAR
STARTCHAR 308F
ENCODING 12431
SWIDTH 1000 0
DWIDTH 8 0
BBX 6 5 1 2
BITMAP
D8
24
C4
C4
58
ENDCHAR
STARTCHAR 3090
ENCODING 12432
SWIDTH 1000 0
DWIDTH 8 0
BBX 6 6 1 0
BITMAP
70
20
58
A4
C4
9C
ENDCHAR
STARTCHAR 3091
ENCODING 12433
SWIDTH 1000 0
DWIDTH 8 0
BBX 6 6 1 0
BITMAP
70
38
48
30
40
FC
ENDCHAR
STARTCHAR 3092
ENCODING 12434
SWIDTH 1000 0
DWIDTH 8 0
BBX 6 6 1 1
BITMAP
60
40
64
98
60
78
ENDCHAR
STARTCHAR 3093
ENCODING 12435
SWIDTH 1000 0
DWIDTH 8 0
BBX 6 6 1 1
BITMAP
20
20
40
A4
E4
98
ENDCHAR
STARTCHAR 3094
ENCODING 12436
SWIDTH 1000 0
DWIDTH 8 0
BBX 5 7 2 -1
BITMAP
08
28
00
F0
10
10
20
ENDCHAR
STARTCHAR 3095
ENCODING 12437
SWIDTH 1000 0
DWIDTH 8 0
BBX 5 5 2 0
BITMAP
40
F0
A8
A0
40
ENDCHAR
STARTCHAR 3096
ENCODING 12438
SWIDTH 1000 0
DWIDTH 8 0
BBX 5 5 2 0
BITMAP
90
F8
90
90
A0
ENDCHAR
STARTCHAR 3099
ENCODING 12441
SWIDTH 1000 0
DWIDTH 8 0
BBX 2 2 6 5
BITMAP
40
80
ENDCHAR
STARTCHAR 309A
ENCODING 12442
SWIDTH 1000 0
DWIDTH 8 0
BBX 1 2 6 5
BITMAP
80
80
ENDCHAR
STARTCHAR 309B
ENCODING 12443
SWIDTH 1000 0
DWIDTH 8 0
BBX 2 2 0 5
BITMAP
40
C0
ENDCHAR
STARTCHAR 309C
ENCODING 12444
SWIDTH 1000 0
DWIDTH 8 0
BBX 2 2 0 5
BITMAP
C0
C0
ENDCHAR
STARTCHAR 309D
ENCODING 12445
SWIDTH 1000 0
DWIDTH 8 0
BBX 2 3 3 2
BITMAP
80
40
80
ENDCHAR
STARTCHAR 309E
ENCODING 12446
SWIDTH 1000 0
DWIDTH 8 0
BBX 3 4 3 1
BITMAP
20
80
40
40
ENDCHAR
STARTCHAR 309F
ENCODING 12447
SWIDTH 1000 0
DWIDTH 8 0
BBX 4 6 2 1
BITMAP
20
40
70
90
30
E0
ENDCHAR
STARTCHAR 30A0
ENCODING 12448
SWIDTH 1000 0
DWIDTH 8 0
BBX 4 2 2 2
BITMAP
F0
F0
ENDCHAR
STARTCHAR 30A1
ENCODING 12449
SWIDTH 1000 0
DWIDTH 8 0
BBX 4 5 2 -1
BITMAP
90
60
40
40
40
ENDCHAR
STARTCHAR 30A2
ENCODING 12450
SWIDTH 1000 0
DWIDTH 8 0
BBX 6 5 1 -1
BITMAP
FC
08
30
20
20
ENDCHAR
STARTCHAR 30A3
ENCODING 12451
SWIDTH 1000 0
DWIDTH 8 0
BBX 4 4 2 0
BITMAP
10
20
C0
40
ENDCHAR
STARTCHAR 30A4
ENCODING 12452
SWIDTH 1000 0
DWIDTH 8 0
BBX 5 6 1 1
BITMAP
08
10
60
A0
20
20
ENDCHAR
STARTCHAR 30A5
ENCODING 12453
SWIDTH 1000 0
DWIDTH 8 0
BBX 4 3 2 0
BITMAP
F0
90
20
ENDCHAR
STARTCHAR 30A6
ENCODING 12454
SWIDTH 1000 0
DWIDTH 8 0
BBX 6 5 1 1
BITMAP
7C
88
08
10
20
ENDCHAR
STARTCHAR 30A7
ENCODING 12455
SWIDTH 1000 0
DWIDTH 8 0
BBX 5 4 1 0
BITMAP
78
20
20
D8
ENDCHAR
STARTCHAR 30A8
ENCODING 12456
SWIDTH 1000 0
DWIDTH 8 0
BBX 6 4 1 2
BITMAP
70
20
20
FC
ENDCHAR
STARTCHAR 30A9
ENCODING 12457
SWIDTH 1000 0
DWIDTH 8 0
BBX 5 5 2 -1
BITMAP
20
F8
20
E0
20
ENDCHAR
STARTCHAR 30AA
ENCODING 12458
SWIDTH 1000 0
DWIDTH 8 0
BBX 6 5 1 2
BITMAP
FC
30
30
50
10
ENDCHAR
STARTCHAR 30AB
ENCODING 12459
SWIDTH 1000 0
DWIDTH 8 0
BBX 6 6 1 1
BITMAP
20
EC
38
28
48
88
ENDCHAR
STARTCHAR 30AC
ENCODING 12460
SWIDTH 1000 0
DWIDTH 8 0
BBX 7 7 1 -1
BITMAP
02
24
EC
38
28
48
98
ENDCHAR
STARTCHAR 30AD
ENCODING 12461
SWIDTH 1000 0
DWIDTH 8 0
BBX 5 6 1 1
BITMAP
20
F0
20
F8
10
10
ENDCHAR
STARTCHAR 30AE
ENCODING 12462
SWIDTH 1000 0
DWIDTH 8 0
BBX 7 7 1 0
BITMAP
02
24
D0
20
F8
10
10
ENDCHAR
STARTCHAR 30AF
ENCODING 12463
SWIDTH 1000 0
DWIDTH 8 0
BBX 5 6 2 0
BITMAP
40
78
90
10
20
C0
ENDCHAR
STARTCHAR 30B0
ENCODING 12464
SWIDTH 1000 0
DWIDTH 8 0
BBX 6 7 2 -1
BITMAP
04
48
70
A0
20
40
80
ENDCHAR
STARTCHAR 30B1
ENCODING 12465
SWIDTH 1000 0
DWIDTH 8 0
BBX 6 6 1 0
BITMAP
40
7C
90
10
20
40
ENDCHAR
STARTCHAR 30B2
ENCODING 12466
SWIDTH 1000 0
DWIDTH 8 0
BBX 7 7 1 -1
BITMAP
02
44
5C
B0
10
20
40
ENDCHAR
STARTCHAR 30B3
ENCODING 12467
SWIDTH 1000 0
DWIDTH 8 0
BBX 4 4 2 2
BITMAP
F0
10
10
F0
ENDCHAR
STARTCHAR 30B4
ENCODING 12468
SWIDTH 1000 0
DWIDTH 8 0
BBX 7 6 1 1
BITMAP
02
04
78
08
08
F8
ENDCHAR
STARTCHAR 30B5
ENCODING 12469
SWIDTH 1000 0
DWIDTH 8 0
BBX 6 6 1 0
BITMAP
48
D4
78
50
10
20
ENDCHAR
STARTCHAR 30B6
ENCODING 12470
SWIDTH 1000 0
DWIDTH 8 0
BBX 7 7 1 -1
BITMAP
02
4C
50
F8
50
10
20
ENDCHAR
STARTCHAR 30B7
ENCODING 12471
SWIDTH 1000 0
DWIDTH 8 0
BBX 6 6 1 0
BITMAP
60
00
C4
08
30
40
ENDCHAR
STARTCHAR 30B8
ENCODING 12472
SWIDTH 1000 0
DWIDTH 8 0
BBX 7 7 1 0
BITMAP
04
46
20
C4
08
10
60
ENDCHAR
STARTCHAR 30B9
ENCODING 12473
SWIDTH 1000 0
DWIDTH 8 0
BBX 5 5 2 0
BITMAP
F0
20
20
60
98
ENDCHAR
STARTCHAR 30BA
ENCODING 12474
SWIDTH 1000 0
DWIDTH 8 0
BBX 7 7 1 0
BITMAP
02
7C
10
10
10
6C
84
ENDCHAR
STARTCHAR 30BB
ENCODING 12475
SWIDTH 1000 0
DWIDTH 8 0
BBX 6 5 1 1
BITMAP
4C
F8
40
40
3C
ENDCHAR
STARTCHAR 30BC
ENCODING 12476
SWIDTH 1000 0
DWIDTH 8 0
BBX 7 7 1 0
BITMAP
02
04
4C
F8
40
40
3C
ENDCHAR
STARTCHAR 30BD
ENCODING 12477
SWIDTH 1000 0
DWIDTH 8 0
BBX 5 6 2 -1
BITMAP
08
88
10
10
20
40
ENDCHAR
STARTCHAR 30BE
ENCODING 12478
SWIDTH 1000 0
DWIDTH 8 0
BBX 7 7 1 -1
BITMAP
02
0C
C8
50
10
20
40
ENDCHAR
STARTCHAR 30BF
ENCODING 12479
SWIDTH 1000 0
DWIDTH 8 0
BBX 5 6 2 0
BITMAP
40
78
D0
20
50
80
ENDCHAR
STARTCHAR 30C0
ENCODING 12480
SWIDTH 1000 0
DWIDTH 8 0
BBX 6 7 2 -1
BITMAP
04
48
B0
A0
20
50
80
ENDCHAR
STARTCHAR 30C1
ENCODING 12481
SWIDTH 1000 0
DWIDTH 8 0
BBX 6 6 1 0
BITMAP
18
20
FC
20
20
40
ENDCHAR
STARTCHAR 30C2
ENCODING 12482
SWIDTH 1000 0
DWIDTH 8 0
BBX 7 7 1 -1
BITMAP
02
0C
30
FC
20
20
40
ENDCHAR
STARTCHAR 30C3
ENCODING 12483
SWIDTH 1000 0
DWIDTH 8 0
BBX 4 4 2 0
BITMAP
50
90
20
40
ENDCHAR
STARTCHAR 30C4
ENCODING 12484
SWIDTH 1000 0
DWIDTH 8 0
BBX 6 6 1 -1
BITMAP
04
A4
08
08
10
60
ENDCHAR
STARTCHAR 30C5
ENCODING 12485
SWIDTH 1000 0
DWIDTH 8 0
BBX 7 7 1 0
BITMAP
02
04
A4
08
08
10
20
ENDCHAR
STARTCHAR 30C6
ENCODING 12486
SWIDTH 1000 0
DWIDTH 8 0
BBX 5 6 1 -1
BITMAP
78
00
F8
20
20
40
ENDCHAR
STARTCHAR 30C7
ENCODING 12487
SWIDTH 1000 0
DWIDTH 8 0
BBX 7 7 1 -1
BITMAP
02
7C
00
F8
20
20
40
ENDCHAR
STARTCHAR 30C8
ENCODING 12488
SWIDTH 1000 0
DWIDTH 8 0
BBX 3 6 3 1
BITMAP
80
80
C0
A0
80
80
ENDCHAR
STARTCHAR 30C9
ENCODING 12489
SWIDTH 1000 0
DWIDTH 8 0
BBX 4 6 3 1
BITMAP
B0
80
C0
A0
80
80
ENDCHAR
STARTCHAR 30CA
ENCODING 12490
SWIDTH 1000 0
DWIDTH 8 0
BBX 5 6 1 0
BITMAP
10
10
F8
20
20
40
ENDCHAR
STARTCHAR 30CB
ENCODING 12491
SWIDTH 1000 0
DWIDTH 8 0
BBX 6 4 1 1
BITMAP
78
00
00
FC
ENDCHAR
STARTCHAR 30CC
ENCODING 12492
SWIDTH 1000 0
DWIDTH 8 0
BBX 4 6 2 0
BITMAP
F0
20
60
20
50
80
ENDCHAR
STARTCHAR 30CD
ENCODING 12493
SWIDTH 1000 0
DWIDTH 8 0
BBX 6 5 1 1
BITMAP
30
78
10
28
E4
ENDCHAR
STARTCHAR 30CE
ENCODING 12494
SWIDTH 1000 0
DWIDTH 8 0
BBX 5 6 1 0
BITMAP
08
08
10
20
20
C0
ENDCHAR
STARTCHAR 30CF
ENCODING 12495
SWIDTH 1000 0
DWIDTH 8 0
BBX 7 4 0 0
BITMAP
20
24
42
82
ENDCHAR
STARTCHAR 30D0
ENCODING 12496
SWIDTH 1000 0
DWIDTH 8 0
BBX 7 4 0 2
BITMAP
22
24
42
82
ENDCHAR
STARTCHAR 30D1
ENCODING 12497
SWIDTH 1000 0
DWIDTH 8 0
BBX 7 5 0 0
BITMAP
06
20
24
42
82
ENDCHAR
STARTCHAR 30D2
ENCODING 12498
SWIDTH 1000 0
DWIDTH 8 0
BBX 5 6 2 0
BITMAP
80
90
A0
C0
80
F8
ENDCHAR
STARTCHAR 30D3
ENCODING 12499
SWIDTH 1000 0
DWIDTH 8 0
BBX 7 7 1 0
BITMAP
04
C6
48
50
A0
80
78
ENDCHAR
STARTCHAR 30D4
ENCODING 12500
SWIDTH 1000 0
DWIDTH 8 0
BBX 6 6 1 0
BITMAP
4C
48
50
A0
80
78
ENDCHAR
STARTCHAR 30D5
ENCODING 12501
SWIDTH 1000 0
DWIDTH 8 0
BBX 5 6 2 0
BITMAP
F8
08
10
20
20
C0
ENDCHAR
STARTCHAR 30D6
ENCODING 12502
SWIDTH 1000 0
DWIDTH 8 0
BBX 7 7 1 -1
BITMAP
02
04
FC
08
08
10
60
ENDCHAR
STARTCHAR 30D7
ENCODING 12503
SWIDTH 1000 0
DWIDTH 8 0
BBX 7 7 1 -1
BITMAP
06
06
FC
08
08
10
60
ENDCHAR
STARTCHAR 30D8
ENCODING 12504
SWIDTH 1000 0
DWIDTH 8 0
BBX 6 4 1 1
BITMAP
20
50
88
04
ENDCHAR
STARTCHAR 30D9
ENCODING 12505
SWIDTH 1000 0
DWIDTH 8 0
BBX 6 5 1 1
BITMAP
04
28
50
88
04
ENDCHAR
STARTCHAR 30DA
ENCODING 12506
SWIDTH 1000 0
DWIDTH 8 0
BBX 6 5 1 1
BITMAP
0C
2C
50
88
04
ENDCHAR
STARTCHAR 30DB
ENCODING 12507
SWIDTH 1000 0
DWIDTH 8 0
BBX 6 5 1 2
BITMAP
EC
30
28
A4
20
ENDCHAR
STARTCHAR 30DC
ENCODING 12508
SWIDTH 1000 0
DWIDTH 8 0
BBX 7 6 1 1
BITMAP
06
EC
30
28
A4
20
ENDCHAR
STARTCHAR 30DD
ENCODING 12509
SWIDTH 1000 0
DWIDTH 8 0
BBX 7 6 1 1
BITMAP
06
EC
30
28
A4
20
ENDCHAR
STARTCHAR 30DE
ENCODING 12510
SWIDTH 1000 0
DWIDTH 8 0
BBX 6 4 1 2
BITMAP
FC
08
30
10
ENDCHAR
STARTCHAR 30DF
ENCODING 12511
SWIDTH 1000 0
DWIDTH 8 0
BBX 4 6 2 0
BITMAP
60
00
E0
00
C0
30
ENDCHAR
STARTCHAR 30E0
ENCODING 12512
SWIDTH 1000 0
DWIDTH 8 0
BBX 6 6 1 1
BITMAP
20
20
40
48
8C
F4
ENDCHAR
STARTCHAR 30E1
ENCODING 12513
SWIDTH 1000 0
DWIDTH 8 0
BBX 5 6 1 1
BITMAP
08
10
30
30
48
80
ENDCHAR
STARTCHAR 30E2
ENCODING 12514
SWIDTH 1000 0
DWIDTH 8 0
BBX 6 6 1 0
BITMAP
70
20
EC
30
20
3C
ENDCHAR
STARTCHAR 30E3
ENCODING 12515
SWIDTH 1000 0
DWIDTH 8 0
BBX 4 4 2 0
BITMAP
80
F0
40
40
ENDCHAR
STARTCHAR 30E4
ENCODING 12516
SWIDTH 1000 0
DWIDTH 8 0
BBX 6 4 1 2
BITMAP
4C
B0
20
20
ENDCHAR
STARTCHAR 30E5
ENCODING 12517
SWIDTH 1000 0
DWIDTH 8 0
BBX 4 4 2 1
BITMAP
F0
20
E0
10
ENDCHAR
STARTCHAR 30E6
ENCODING 12518
SWIDTH 1000 0
DWIDTH 8 0
BBX 6 4 1 2
BITMAP
78
08
08
FC
ENDCHAR
STARTCHAR 30E7
ENCODING 12519
SWIDTH 1000 0
DWIDTH 8 0
BBX 4 5 2 0
BITMAP
E0
10
F0
10
F0
ENDCHAR
STARTCHAR 30E8
ENCODING 12520
SWIDTH 1000 0
DWIDTH 8 0
BBX 4 5 2 1
BITMAP
F0
10
F0
10
D0
ENDCHAR
STARTCHAR 30E9
ENCODING 12521
SWIDTH 1000 0
DWIDTH 8 0
BBX 5 6 2 -1
BITMAP
F0
00
F8
10
20
40
ENDCHAR
STARTCHAR 30EA
ENCODING 12522
SWIDTH 1000 0
DWIDTH 8 0
BBX 4 6 2 0
BITMAP
90
90
90
90
20
40
ENDCHAR
STARTCHAR 30EB
ENCODING 12523
SWIDTH 1000 0
DWIDTH 8 0
BBX 8 6 0 0
BITMAP
08
28
29
2A
54
88
ENDCHAR
STARTCHAR 30EC
ENCODING 12524
SWIDTH 1000 0
DWIDTH 8 0
BBX 5 6 2 0
BITMAP
80
80
88
90
A0
C0
ENDCHAR
STARTCHAR 30ED
ENCODING 12525
SWIDTH 1000 0
DWIDTH 8 0
BBX 6 5 1 1
BITMAP
7C
88
88
88
F0
ENDCHAR
STARTCHAR 30EE
ENCODING 12526
SWIDTH 1000 0
DWIDTH 8 0
BBX 4 4 2 0
BITMAP
F0
90
20
40
ENDCHAR
STARTCHAR 30EF
ENCODING 12527
SWIDTH 1000 0
DWIDTH 8 0
BBX 6 6 1 -1
BITMAP
8C
F4
08
08
10
20
ENDCHAR
STARTCHAR 30F0
ENCODING 12528
SWIDTH 1000 0
DWIDTH 8 0
BBX 7 6 0 1
BITMAP
08
7E
28
EE
18
08
ENDCHAR
STARTCHAR 30F1
ENCODING 12529
SWIDTH 1000 0
DWIDTH 8 0
BBX 6 5 1 0
BITMAP
70
08
30
20
FC
ENDCHAR
STARTCHAR 30F2
ENCODING 12530
SWIDTH 1000 0
DWIDTH 8 0
BBX 5 6 2 -1
BITMAP
F8
10
F0
20
20
40
ENDCHAR
STARTCHAR 30F3
ENCODING 12531
SWIDTH 1000 0
DWIDTH 8 0
BBX 5 5 2 1
BITMAP
80
08
10
60
80
ENDCHAR
STARTCHAR 30F4
ENCODING 12532
SWIDTH 1000 0
DWIDTH 8 0
BBX 7 7 1 -1
BITMAP
02
04
7C
88
08
10
20
ENDCHAR
STARTCHAR 30F5
ENCODING 12533
SWIDTH 1000 0
DWIDTH 8 0
BBX 4 5 2 -1
BITMAP
40
D0
70
50
A0
ENDCHAR
STARTCHAR 30F6
ENCODING 12534
SWIDTH 1000 0
DWIDTH 8 0
BBX 5 5 2 -1
BITMAP
40
B8
60
40
40
ENDCHAR
STARTCHAR 30F7
ENCODING 12535
SWIDTH 1000 0
DWIDTH 8 0
BBX 7 7 1 -1
BITMAP
02
04
FC
88
08
10
20
ENDCHAR
STARTCHAR 30F8
ENCODING 12536
SWIDTH 1000 0
DWIDTH 8 0
BBX 8 7 0 0
BITMAP
01
0A
7E
28
EA
1C
08
ENDCHAR
STARTCHAR 30F9
ENCODING 12537
SWIDTH 1000 0
DWIDTH 8 0
BBX 7 7 1 0
BITMAP
02
04
78
30
20
EC
10
ENDCHAR
STARTCHAR 30FA
ENCODING 12538
SWIDTH 1000 0
DWIDTH 8 0
BBX 6 7 2 -1
BITMAP
04
F8
10
F0
20
20
40
ENDCHAR
STARTCHAR 30FB
ENCODING 12539
SWIDTH 1000 0
DWIDTH 8 0
BBX 1 1 3 2
BITMAP
80
ENDCHAR
STARTCHAR 30FC
ENCODING 12540
SWIDTH 1000 0
DWIDTH 8 0
BBX 4 1 1 3
BITMAP
F0
ENDCHAR
STARTCHAR 30FD
ENCODING 12541
SWIDTH 1000 0
DWIDTH 8 0
BBX 2 3 3 2
BITMAP
80
40
40
ENDCHAR
STARTCHAR 30FE
ENCODING 12542
SWIDTH 1000 0
DWIDTH 8 0
BBX 4 5 2 1
BITMAP
10
10
C0
20
20
ENDCHAR
STARTCHAR 30FF
ENCODING 12543
SWIDTH 1000 0
DWIDTH 8 0
BBX 5 5 1 0
BITMAP
F8
08
08
08
08
ENDCHAR
STARTCHAR 31F0
ENCODING 12784
SWIDTH 1000 0
DWIDTH 8 0
BBX 4 5 2 -1
BITMAP
40
70
A0
20
C0
ENDCHAR
STARTCHAR 31F1
ENCODING 12785
SWIDTH 1000 0
DWIDTH 8 0
BBX 5 4 2 1
BITMAP
48
90
20
C0
ENDCHAR
STARTCHAR 31F2
ENCODING 12786
SWIDTH 1000 0
DWIDTH 8 0
BBX 4 5 2 -1
BITMAP
E0
20
20
60
90
ENDCHAR
STARTCHAR 31F3
ENCODING 12787
SWIDTH 1000 0
DWIDTH 8 0
BBX 3 5 3 0
BITMAP
80
80
E0
80
80
ENDCHAR
STARTCHAR 31F4
ENCODING 12788
SWIDTH 1000 0
DWIDTH 8 0
BBX 4 5 2 -1
BITMAP
F0
20
60
50
80
ENDCHAR
STARTCHAR 31F5
ENCODING 12789
SWIDTH 1000 0
DWIDTH 8 0
BBX 6 4 1 0
BITMAP
10
28
44
80
ENDCHAR
STARTCHAR 31F6
ENCODING 12790
SWIDTH 1000 0
DWIDTH 8 0
BBX 4 5 2 0
BITMAP
80
90
E0
80
70
ENDCHAR
STARTCHAR 31F7
ENCODING 12791
SWIDTH 1000 0
DWIDTH 8 0
BBX 4 4 2 0
BITMAP
F0
20
20
40
ENDCHAR
STARTCHAR 31F8
ENCODING 12792
SWIDTH 1000 0
DWIDTH 8 0
BBX 6 3 1 1
BITMAP
20
58
84
ENDCHAR
STARTCHAR 31F9
ENCODING 12793
SWIDTH 1000 0
DWIDTH 8 0
BBX 5 4 2 1
BITMAP
D0
60
C8
C0
ENDCHAR
STARTCHAR 31FA
ENCODING 12794
SWIDTH 1000 0
DWIDTH 8 0
BBX 4 5 2 0
BITMAP
40
40
80
90
E0
ENDCHAR
STARTCHAR 31FB
ENCODING 12795
SWIDTH 1000 0
DWIDTH 8 0
BBX 4 5 2 -1
BITMAP
E0
E0
10
20
40
ENDCHAR
STARTCHAR 31FC
ENCODING 12796
SWIDTH 1000 0
DWIDTH 8 0
BBX 4 5 2 -1
BITMAP
10
90
10
10
20
ENDCHAR
STARTCHAR 31FD
ENCODING 12797
SWIDTH 1000 0
DWIDTH 8 0
BBX 5 4 2 0
BITMAP
20
A8
D0
20
ENDCHAR
STARTCHAR 31FE
ENCODING 12798
SWIDTH 1000 0
DWIDTH 8 0
BBX 4 3 2 2
BITMAP
80
B0
C0
ENDCHAR
STARTCHAR 31FF
ENCODING 12799
SWIDTH 1000 0
DWIDTH 8 0
BBX 4 4 2 1
BITMAP
F0
90
90
E0
ENDCHAR
STARTCHAR 3220
ENCODING 12832
SWIDTH 1000 0
DWIDTH 8 0
BBX 8 7 0 0
BITMAP
82
81
81
BD
81
82
42
ENDCHAR
STARTCHAR 3221
ENCODING 12833
SWIDTH 1000 0
DWIDTH 8 0
BBX 8 7 0 0
BITMAP
81
99
81
81
81
BE
42
ENDCHAR
STARTCHAR 3222
ENCODING 12834
SWIDTH 1000 0
DWIDTH 8 0
BBX 8 6 0 0
BITMAP
82
99
81
99
81
BE
ENDCHAR
STARTCHAR 3223
ENCODING 12835
SWIDTH 1000 0
DWIDTH 8 0
BBX 6 6 1 0
BITMAP
84
FC
FC
DC
CC
B4
ENDCHAR
STARTCHAR 3224
ENCODING 12836
SWIDTH 1000 0
DWIDTH 8 0
BBX 8 6 -1 0
BITMAP
81
9D
91
9D
A5
FF
ENDCHAR
STARTCHAR 3225
ENCODING 12837
SWIDTH 1000 0
DWIDTH 8 0
BBX 7 6 1 0
BITMAP
92
92
AA
E2
C6
86
ENDCHAR
STARTCHAR 3226
ENCODING 12838
SWIDTH 1000 0
DWIDTH 8 0
BBX 7 8 1 -1
BITMAP
80
A2
A2
FA
A2
A6
BE
80
ENDCHAR
STARTCHAR 3227
ENCODING 12839
SWIDTH 1000 0
DWIDTH 8 0
BBX 8 7 0 0
BITMAP
82
99
89
89
A9
A5
82
ENDCHAR
STARTCHAR 3228
ENCODING 12840
SWIDTH 1000 0
DWIDTH 8 0
BBX 7 6 0 0
BITMAP
92
92
BA
9A
AA
CE
ENDCHAR
STARTCHAR 3229
ENCODING 12841
SWIDTH 1000 0
DWIDTH 8 0
BBX 7 7 1 0
BITMAP
92
92
92
BE
92
92
82
ENDCHAR
STARTCHAR 322A
ENCODING 12842
SWIDTH 1000 0
DWIDTH 8 0
BBX 8 6 0 1
BITMAP
BD
A5
BD
BD
A5
CE
ENDCHAR
STARTCHAR 322B
ENCODING 12843
SWIDTH 1000 0
DWIDTH 8 0
BBX 7 8 1 -1
BITMAP
02
92
96
D2
DA
AA
C6
02
ENDCHAR
STARTCHAR 322C
ENCODING 12844
SWIDTH 1000 0
DWIDTH 8 0
BBX 7 7 1 0
BITMAP
92
92
BE
DA
D6
B2
80
ENDCHAR
STARTCHAR 322D
ENCODING 12845
SWIDTH 1000 0
DWIDTH 8 0
BBX 7 6 1 0
BITMAP
92
92
BA
BA
D6
92
ENDCHAR
STARTCHAR 322E
ENCODING 12846
SWIDTH 1000 0
DWIDTH 8 0
BBX 7 8 1 -1
BITMAP
82
92
AE
D2
FE
D6
92
2A
ENDCHAR
STARTCHAR 322F
ENCODING 12847
SWIDTH 1000 0
DWIDTH 8 0
BBX 7 8 1 -2
BITMAP
82
92
92
BA
92
92
FE
82
ENDCHAR
STARTCHAR 3230
ENCODING 12848
SWIDTH 1000 0
DWIDTH 8 0
BBX 8 7 0 0
BITMAP
82
BD
A5
A5
BD
A5
BE
ENDCHAR
STARTCHAR 3231
ENCODING 12849
SWIDTH 1000 0
DWIDTH 8 0
BBX 7 7 0 0
BITMAP
2A
AA
FE
BA
EE
AE
AA
ENDCHAR
STARTCHAR 3232
ENCODING 12850
SWIDTH 1000 0
DWIDTH 8 0
BBX 7 6 1 0
BITMAP
82
BA
BA
BA
BA
BA
ENDCHAR
STARTCHAR 3233
ENCODING 12851
SWIDTH 1000 0
DWIDTH 8 0
BBX 8 8 0 -1
BITMAP
02
AA
A9
BD
B9
A9
AA
06
ENDCHAR
STARTCHAR 3234
ENCODING 12852
SWIDTH 1000 0
DWIDTH 8 0
BBX 7 7 1 0
BITMAP
84
F2
A2
BA
EA
BA
AC
ENDCHAR
STARTCHAR 3235
ENCODING 12853
SWIDTH 1000 0
DWIDTH 8 0
BBX 8 8 0 -1
BITMAP
02
EA
ED
A5
BF
E5
A6
02
ENDCHAR
STARTCHAR 3236
ENCODING 12854
SWIDTH 1000 0
DWIDTH 8 0
BBX 7 7 1 -1
BITMAP
80
EA
EA
EA
EA
8A
FC
ENDCHAR
STARTCHAR 3237
ENCODING 12855
SWIDTH 1000 0
DWIDTH 8 0
BBX 7 7 0 -1
BITMAP
02
AE
9E
AE
BA
B6
AE
ENDCHAR
STARTCHAR 3238
ENCODING 12856
SWIDTH 1000 0
DWIDTH 8 0
BBX 8 7 0 0
BITMAP
96
A9
D5
9D
95
AE
42
ENDCHAR
STARTCHAR 3239
ENCODING 12857
SWIDTH 1000 0
DWIDTH 8 0
BBX 8 6 0 0
BITMAP
A3
AB
AD
A9
A5
A3
ENDCHAR
STARTCHAR 323A
ENCODING 12858
SWIDTH 1000 0
DWIDTH 8 0
BBX 6 7 1 0
BITMAP
84
F4
F4
FC
FC
F4
94
ENDCHAR
STARTCHAR 323B
ENCODING 12859
SWIDTH 1000 0
DWIDTH 8 0
BBX 7 7 1 -1
BITMAP
82
9A
E6
BA
92
BA
B2
ENDCHAR
STARTCHAR 323C
ENCODING 12860
SWIDTH 1000 0
DWIDTH 8 0
BBX 7 6 1 0
BITMAP
E6
DA
E6
CA
FA
FC
ENDCHAR
STARTCHAR 323D
ENCODING 12861
SWIDTH 1000 0
DWIDTH 8 0
BBX 8 8 0 0
BITMAP
89
99
AF
89
AF
A9
A9
14
ENDCHAR
STARTCHAR 323E
ENCODING 12862
SWIDTH 1000 0
DWIDTH 8 0
BBX 8 8 0 0
BITMAP
02
BF
89
D7
ED
FD
BE
20
ENDCHAR
STARTCHAR 323F
ENCODING 12863
SWIDTH 1000 0
DWIDTH 8 0
BBX 6 7 1 0
BITMAP
D4
EC
EC
C4
FC
C4
80
ENDCHAR
STARTCHAR 3240
ENCODING 12864
SWIDTH 1000 0
DWIDTH 8 0
BBX 7 6 1 0
BITMAP
82
EE
E6
96
BA
D6
ENDCHAR
STARTCHAR 3241
ENCODING 12865
SWIDTH 1000 0
DWIDTH 8 0
BBX 8 7 0 0
BITMAP
8A
A9
AD
ED
BB
AA
40
ENDCHAR
STARTCHAR 3242
ENCODING 12866
SWIDTH 1000 0
DWIDTH 8 0
BBX 8 7 0 -1
BITMAP
02
82
BD
BD
A5
BD
BE
ENDCHAR
STARTCHAR 3243
ENCODING 12867
SWIDTH 1000 0
DWIDTH 8 0
BBX 7 8 1 0
BITMAP
82
FE
AA
FE
92
BA
FE
82
ENDCHAR
STARTCHAR 3251
ENCODING 12881
SWIDTH 1000 0
DWIDTH 8 0
BBX 7 8 1 0
BITMAP
38
CC
EE
AA
CA
CA
6C
38
ENDCHAR
STARTCHAR 3252
ENCODING 12882
SWIDTH 1000 0
DWIDTH 8 0
BBX 6 8 1 0
BITMAP
30
C8
FC
AC
D4
94
78
38
ENDCHAR
STARTCHAR 3253
ENCODING 12883
SWIDTH 1000 0
DWIDTH 8 0
BBX 7 8 1 0
BITMAP
38
C4
EE
A6
C6
D6
7C
38
ENDCHAR
STARTCHAR 3254
ENCODING 12884
SWIDTH 1000 0
DWIDTH 8 0
BBX 7 6 1 0
BITMAP
FC
EE
AA
FA
7C
38
ENDCHAR
STARTCHAR 3255
ENCODING 12885
SWIDTH 1000 0
DWIDTH 8 0
BBX 7 6 1 0
BITMAP
FC
EE
B2
CE
7C
38
ENDCHAR
STARTCHAR 3256
ENCODING 12886
SWIDTH 1000 0
DWIDTH 8 0
BBX 7 8 1 0
BITMAP
38
C4
EE
B2
DE
D6
6C
38
ENDCHAR
STARTCHAR 3257
ENCODING 12887
SWIDTH 1000 0
DWIDTH 8 0
BBX 6 6 1 0
BITMAP
F8
FC
A4
CC
E4
78
ENDCHAR
STARTCHAR 3258
ENCODING 12888
SWIDTH 1000 0
DWIDTH 8 0
BBX 7 8 1 0
BITMAP
38
C4
EE
AE
D6
D6
7C
38
ENDCHAR
STARTCHAR 3259
ENCODING 12889
SWIDTH 1000 0
DWIDTH 8 0
BBX 7 8 1 0
BITMAP
38
C4
FE
B6
DE
D6
7C
38
ENDCHAR
STARTCHAR 325A
ENCODING 12890
SWIDTH 1000 0
DWIDTH 8 0
BBX 8 8 0 -1
BITMAP
38
46
BD
9D
9D
FD
42
3C
ENDCHAR
STARTCHAR 325B
ENCODING 12891
SWIDTH 1000 0
DWIDTH 8 0
BBX 8 7 0 0
BITMAP
3C
76
95
A5
95
76
3C
ENDCHAR
STARTCHAR 325C
ENCODING 12892
SWIDTH 1000 0
DWIDTH 8 0
BBX 7 8 0 0
BITMAP
38
44
EE
A6
AA
EA
6C
38
ENDCHAR
STARTCHAR 325D
ENCODING 12893
SWIDTH 1000 0
DWIDTH 8 0
BBX 8 8 0 -1
BITMAP
38
46
BD
95
93
FF
42
3C
ENDCHAR
STARTCHAR 325E
ENCODING 12894
SWIDTH 1000 0
DWIDTH 8 0
BBX 8 6 0 0
BITMAP
7E
E7
AD
B5
AE
7C
ENDCHAR
STARTCHAR 325F
ENCODING 12895
SWIDTH 1000 0
DWIDTH 8 0
BBX 8 8 0 -2
BITMAP
3C
EE
99
9F
93
FF
42
3C
ENDCHAR
STARTCHAR 3280
ENCODING 12928
SWIDTH 1000 0
DWIDTH 8 0
BBX 8 7 0 -1
BITMAP
3C
C2
81
BD
81
42
3C
ENDCHAR
STARTCHAR 3281
ENCODING 12929
SWIDTH 1000 0
DWIDTH 8 0
BBX 8 8 0 -1
BITMAP
3C
46
BF
81
81
FD
42
3C
ENDCHAR
STARTCHAR 3282
ENCODING 12930
SWIDTH 1000 0
DWIDTH 8 0
BBX 8 8 0 -1
BITMAP
38
46
99
81
99
81
5A
3C
ENDCHAR
STARTCHAR 3283
ENCODING 12931
SWIDTH 1000 0
DWIDTH 8 0
BBX 6 8 1 -1
BITMAP
30
48
FC
FC
DC
CC
B8
70
ENDCHAR
STARTCHAR 3284
ENCODING 12932
SWIDTH 1000 0
DWIDTH 8 0
BBX 8 7 -1 0
BITMAP
1C
62
9D
91
9D
A6
7C
ENDCHAR
STARTCHAR 3285
ENCODING 12933
SWIDTH 1000 0
DWIDTH 8 0
BBX 7 7 1 -1
BITMAP
7C
96
AA
E2
C6
84
78
ENDCHAR
STARTCHAR 3286
ENCODING 12934
SWIDTH 1000 0
DWIDTH 8 0
BBX 7 8 1 -1
BITMAP
38
E4
A2
FA
A2
3E
84
78
ENDCHAR
STARTCHAR 3287
ENCODING 12935
SWIDTH 1000 0
DWIDTH 8 0
BBX 8 7 0 -1
BITMAP
3C
C2
89
A9
85
42
3C
ENDCHAR
STARTCHAR 3288
ENCODING 12936
SWIDTH 1000 0
DWIDTH 8 0
BBX 7 7 0 -1
BITMAP
3C
D6
BA
9A
AE
44
38
ENDCHAR
STARTCHAR 3289
ENCODING 12937
SWIDTH 1000 0
DWIDTH 8 0
BBX 7 7 1 -1
BITMAP
7C
96
92
BA
92
94
78
ENDCHAR
STARTCHAR 328A
ENCODING 12938
SWIDTH 1000 0
DWIDTH 8 0
BBX 8 6 0 0
BITMAP
7E
A7
BD
BD
8E
7C
ENDCHAR
STARTCHAR 328B
ENCODING 12939
SWIDTH 1000 0
DWIDTH 8 0
BBX 7 8 1 -1
BITMAP
38
D4
96
D2
9A
26
84
78
ENDCHAR
STARTCHAR 328C
ENCODING 12940
SWIDTH 1000 0
DWIDTH 8 0
BBX 7 7 1 -1
BITMAP
FC
96
BA
DA
16
84
78
ENDCHAR
STARTCHAR 328D
ENCODING 12941
SWIDTH 1000 0
DWIDTH 8 0
BBX 7 7 1 -1
BITMAP
FC
96
BA
FA
16
94
78
ENDCHAR
STARTCHAR 328E
ENCODING 12942
SWIDTH 1000 0
DWIDTH 8 0
BBX 7 7 1 0
BITMAP
38
D4
AA
96
BE
94
7C
ENDCHAR
STARTCHAR 328F
ENCODING 12943
SWIDTH 1000 0
DWIDTH 8 0
BBX 7 8 1 -1
BITMAP
38
D4
92
BA
92
92
AC
78
ENDCHAR
STARTCHAR 3290
ENCODING 12944
SWIDTH 1000 0
DWIDTH 8 0
BBX 8 7 0 -1
BITMAP
7E
A7
A5
BD
A5
7A
3C
ENDCHAR
STARTCHAR 3291
ENCODING 12945
SWIDTH 1000 0
DWIDTH 8 0
BBX 7 7 0 -1
BITMAP
3C
EE
BA
EE
BE
6C
38
ENDCHAR
STARTCHAR 3292
ENCODING 12946
SWIDTH 1000 0
DWIDTH 8 0
BBX 7 7 1 0
BITMAP
38
C4
FE
BA
AA
B4
78
ENDCHAR
STARTCHAR 3293
ENCODING 12947
SWIDTH 1000 0
DWIDTH 8 0
BBX 8 7 0 0
BITMAP
3C
EE
F9
9D
B9
AA
7C
ENDCHAR
STARTCHAR 3294
ENCODING 12948
SWIDTH 1000 0
DWIDTH 8 0
BBX 7 8 1 -1
BITMAP
30
CC
F2
A2
FA
AA
94
78
ENDCHAR
STARTCHAR 3295
ENCODING 12949
SWIDTH 1000 0
DWIDTH 8 0
BBX 8 7 0 0
BITMAP
3C
EE
E9
A7
AD
A6
7C
ENDCHAR
STARTCHAR 3296
ENCODING 12950
SWIDTH 1000 0
DWIDTH 8 0
BBX 8 7 0 -1
BITMAP
3E
76
B5
BD
95
42
3C
ENDCHAR
STARTCHAR 3297
ENCODING 12951
SWIDTH 1000 0
DWIDTH 8 0
BBX 8 7 0 -1
BITMAP
7C
FE
AD
BD
B9
AE
7C
ENDCHAR
STARTCHAR 3298
ENCODING 12952
SWIDTH 1000 0
DWIDTH 8 0
BBX 8 7 0 0
BITMAP
18
66
85
FD
9D
A6
7C
ENDCHAR
STARTCHAR 3299
ENCODING 12953
SWIDTH 1000 0
DWIDTH 8 0
BBX 8 7 0 0
BITMAP
3C
46
A5
AB
FD
AE
7C
ENDCHAR
STARTCHAR 329A
ENCODING 12954
SWIDTH 1000 0
DWIDTH 8 0
BBX 8 7 0 -1
BITMAP
7E
D2
FD
AD
95
66
3C
ENDCHAR
STARTCHAR 329B
ENCODING 12955
SWIDTH 1000 0
DWIDTH 8 0
BBX 8 7 0 -1
BITMAP
3C
D2
AD
A9
95
42
3C
ENDCHAR
STARTCHAR 329C
ENCODING 12956
SWIDTH 1000 0
DWIDTH 8 0
BBX 7 7 0 0
BITMAP
38
4C
A2
9E
B6
D4
38
ENDCHAR
STARTCHAR 329D
ENCODING 12957
SWIDTH 1000 0
DWIDTH 8 0
BBX 8 6 0 0
BITMAP
3E
63
BF
F9
AA
7C
ENDCHAR
STARTCHAR 329E
ENCODING 12958
SWIDTH 1000 0
DWIDTH 8 0
BBX 6 7 1 0
BITMAP
30
48
DC
FC
DC
58
78
ENDCHAR
STARTCHAR 329F
ENCODING 12959
SWIDTH 1000 0
DWIDTH 8 0
BBX 8 6 0 0
BITMAP
7E
8B
CD
C9
4A
3C
ENDCHAR
STARTCHAR 32A0
ENCODING 12960
SWIDTH 1000 0
DWIDTH 8 0
BBX 8 6 0 0
BITMAP
3C
EB
BD
A5
9E
7C
ENDCHAR
STARTCHAR 32A1
ENCODING 12961
SWIDTH 1000 0
DWIDTH 8 0
BBX 8 7 0 -1
BITMAP
7E
AA
AD
AD
AB
6A
3C
ENDCHAR
STARTCHAR 32A2
ENCODING 12962
SWIDTH 1000 0
DWIDTH 8 0
BBX 8 7 0 0
BITMAP
18
66
FD
A9
B9
9E
7C
ENDCHAR
STARTCHAR 32A3
ENCODING 12963
SWIDTH 1000 0
DWIDTH 8 0
BBX 8 7 0 0
BITMAP
3C
46
B9
A9
AD
AA
7E
ENDCHAR
STARTCHAR 32A4
ENCODING 12964
SWIDTH 1000 0
DWIDTH 8 0
BBX 8 8 1 -1
BITMAP
3C
D6
93
99
91
91
AA
7C
ENDCHAR
STARTCHAR 32A5
ENCODING 12965
SWIDTH 1000 0
DWIDTH 8 0
BBX 6 7 1 -1
BITMAP
78
9C
FC
DC
B4
98
70
ENDCHAR
STARTCHAR 32A6
ENCODING 12966
SWIDTH 1000 0
DWIDTH 8 0
BBX 8 7 1 0
BITMAP
38
C6
B9
9D
91
92
7C
ENDCHAR
STARTCHAR 32A7
ENCODING 12967
SWIDTH 1000 0
DWIDTH 8 0
BBX 8 7 0 0
BITMAP
3C
52
BF
A1
BD
8A
7C
ENDCHAR
STARTCHAR 32A8
ENCODING 12968
SWIDTH 1000 0
DWIDTH 8 0
BBX 7 8 1 -1
BITMAP
78
84
FE
A2
BA
AA
94
78
ENDCHAR
STARTCHAR 32A9
ENCODING 12969
SWIDTH 1000 0
DWIDTH 8 0
BBX 7 6 1 0
BITMAP
7C
D6
FA
DA
6C
3C
ENDCHAR
STARTCHAR 32AA
ENCODING 12970
SWIDTH 1000 0
DWIDTH 8 0
BBX 7 7 1 0
BITMAP
38
D4
AE
92
BA
D4
7C
ENDCHAR
STARTCHAR 32AB
ENCODING 12971
SWIDTH 1000 0
DWIDTH 8 0
BBX 7 7 1 -1
BITMAP
FC
96
FA
92
3A
94
78
ENDCHAR
STARTCHAR 32AC
ENCODING 12972
SWIDTH 1000 0
DWIDTH 8 0
BBX 7 6 1 0
BITMAP
7C
EE
D6
8A
FC
38
ENDCHAR
STARTCHAR 32AD
ENCODING 12973
SWIDTH 1000 0
DWIDTH 8 0
BBX 8 7 0 0
BITMAP
3C
D6
AD
CB
AD
AA
7E
ENDCHAR
STARTCHAR 32AE
ENCODING 12974
SWIDTH 1000 0
DWIDTH 8 0
BBX 8 8 0 -1
BITMAP
38
46
8B
D7
ED
BD
96
7C
ENDCHAR
STARTCHAR 32AF
ENCODING 12975
SWIDTH 1000 0
DWIDTH 8 0
BBX 8 8 0 -1
BITMAP
1C
62
AF
A1
BF
B1
42
3C
ENDCHAR
STARTCHAR 32B0
ENCODING 12976
SWIDTH 1000 0
DWIDTH 8 0
BBX 8 7 0 0
BITMAP
3C
4A
BD
B5
A9
B6
7C
ENDCHAR
STARTCHAR 32B1
ENCODING 12977
SWIDTH 1000 0
DWIDTH 8 0
BBX 8 8 0 -1
BITMAP
38
46
BD
9D
9D
FD
42
3C
ENDCHAR
STARTCHAR 32B2
ENCODING 12978
SWIDTH 1000 0
DWIDTH 8 0
BBX 7 8 0 -2
BITMAP
3C
7E
D2
A6
9A
F2
44
38
ENDCHAR
STARTCHAR 32B3
ENCODING 12979
SWIDTH 1000 0
DWIDTH 8 0
BBX 8 8 0 -1
BITMAP
38
46
BD
9D
9B
FF
42
3C
ENDCHAR
STARTCHAR 32B4
ENCODING 12980
SWIDTH 1000 0
DWIDTH 8 0
BBX 8 8 0 -1
BITMAP
38
46
BD
9D
95
BD
42
3C
ENDCHAR
STARTCHAR 32B5
ENCODING 12981
SWIDTH 1000 0
DWIDTH 8 0
BBX 7 6 1 0
BITMAP
7C
AE
EE
AE
7C
3C
ENDCHAR
STARTCHAR 32B6
ENCODING 12982
SWIDTH 1000 0
DWIDTH 8 0
BBX 7 6 1 0
BITMAP
FC
AE
EA
AA
EC
38
ENDCHAR
STARTCHAR 32B7
ENCODING 12983
SWIDTH 1000 0
DWIDTH 8 0
BBX 6 6 1 0
BITMAP
78
AC
EC
B4
EC
78
ENDCHAR
STARTCHAR 32B8
ENCODING 12984
SWIDTH 1000 0
DWIDTH 8 0
BBX 8 6 1 0
BITMAP
7C
AF
E5
A5
76
3C
ENDCHAR
STARTCHAR 32B9
ENCODING 12985
SWIDTH 1000 0
DWIDTH 8 0
BBX 7 6 1 0
BITMAP
7C
AE
EA
AA
7C
38
ENDCHAR
STARTCHAR 32BA
ENCODING 12986
SWIDTH 1000 0
DWIDTH 8 0
BBX 8 6 1 0
BITMAP
7C
AF
E9
AD
76
3C
ENDCHAR
STARTCHAR 32BB
ENCODING 12987
SWIDTH 1000 0
DWIDTH 8 0
BBX 8 6 1 0
BITMAP
7C
AF
E9
AD
7E
3C
ENDCHAR
STARTCHAR 32BC
ENCODING 12988
SWIDTH 1000 0
DWIDTH 8 0
BBX 6 6 1 0
BITMAP
F8
BC
E4
AC
E4
78
ENDCHAR
STARTCHAR 32BD
ENCODING 12989
SWIDTH 1000 0
DWIDTH 8 0
BBX 8 6 1 0
BITMAP
7C
AF
ED
AD
7E
3C
ENDCHAR
STARTCHAR 32BE
ENCODING 12990
SWIDTH 1000 0
DWIDTH 8 0
BBX 7 6 1 0
BITMAP
FC
AE
EE
AE
74
3C
ENDCHAR
STARTCHAR 32BF
ENCODING 12991
SWIDTH 1000 0
DWIDTH 8 0
BBX 8 8 0 -2
BITMAP
3C
FE
CD
BD
9D
BD
42
3C
ENDCHAR
STARTCHAR 32D0
ENCODING 13008
SWIDTH 1000 0
DWIDTH 8 0
BBX 8 8 0 -1
BITMAP
38
46
BD
89
91
91
42
3C
ENDCHAR
STARTCHAR 32D1
ENCODING 13009
SWIDTH 1000 0
DWIDTH 8 0
BBX 8 8 0 -1
BITMAP
38
46
8D
91
F1
91
42
3C
ENDCHAR
STARTCHAR 32D2
ENCODING 13010
SWIDTH 1000 0
DWIDTH 8 0
BBX 8 8 0 -1
BITMAP
38
46
B5
AD
A9
89
52
3C
ENDCHAR
STARTCHAR 32D3
ENCODING 13011
SWIDTH 1000 0
DWIDTH 8 0
BBX 8 8 0 -1
BITMAP
38
46
BD
91
91
AD
42
3C
ENDCHAR
STARTCHAR 32D4
ENCODING 13012
SWIDTH 1000 0
DWIDTH 8 0
BBX 8 8 0 -1
BITMAP
38
4E
BB
9D
99
A9
4A
3C
ENDCHAR
STARTCHAR 32D5
ENCODING 13013
SWIDTH 1000 0
DWIDTH 8 0
BBX 8 8 0 -1
BITMAP
38
56
B5
9D
95
A9
42
3C
ENDCHAR
STARTCHAR 32D6
ENCODING 13014
SWIDTH 1000 0
DWIDTH 8 0
BBX 8 8 0 -1
BITMAP
38
56
B5
99
BD
89
4A
3C
ENDCHAR
STARTCHAR 32D7
ENCODING 13015
SWIDTH 1000 0
DWIDTH 8 0
BBX 8 8 0 -1
BITMAP
38
46
9D
A9
89
91
42
3C
ENDCHAR
STARTCHAR 32D8
ENCODING 13016
SWIDTH 1000 0
DWIDTH 8 0
BBX 8 8 0 -1
BITMAP
38
46
91
AD
89
91
42
3C
ENDCHAR
STARTCHAR 32D9
ENCODING 13017
SWIDTH 1000 0
DWIDTH 8 0
BBX 8 8 0 -1
BITMAP
38
46
BD
85
85
BD
42
3C
ENDCHAR
STARTCHAR 32DA
ENCODING 13018
SWIDTH 1000 0
DWIDTH 8 0
BBX 8 8 0 -1
BITMAP
38
46
89
BD
89
89
52
3C
ENDCHAR
STARTCHAR 32DB
ENCODING 13019
SWIDTH 1000 0
DWIDTH 8 0
BBX 8 8 0 -1
BITMAP
38
46
91
A5
8D
B1
42
3C
ENDCHAR
STARTCHAR 32DC
ENCODING 13020
SWIDTH 1000 0
DWIDTH 8 0
BBX 8 8 0 -1
BITMAP
38
7E
85
89
99
A5
42
3C
ENDCHAR
STARTCHAR 32DD
ENCODING 13021
SWIDTH 1000 0
DWIDTH 8 0
BBX 8 8 0 -1
BITMAP
38
46
81
FD
A9
99
42
3C
ENDCHAR
STARTCHAR 32DE
ENCODING 13022
SWIDTH 1000 0
DWIDTH 8 0
BBX 8 8 0 -1
BITMAP
38
46
A5
85
89
91
42
3C
ENDCHAR
STARTCHAR 32DF
ENCODING 13023
SWIDTH 1000 0
DWIDTH 8 0
BBX 8 8 0 -1
BITMAP
38
56
9D
A9
89
95
42
3C
ENDCHAR
STARTCHAR 32E0
ENCODING 13024
SWIDTH 1000 0
DWIDTH 8 0
BBX 8 8 0 -1
BITMAP
38
46
B9
BF
91
91
62
3C
ENDCHAR
STARTCHAR 32E1
ENCODING 13025
SWIDTH 1000 0
DWIDTH 8 0
BBX 8 8 0 -1
BITMAP
38
46
95
A5
89
91
42
3C
ENDCHAR
STARTCHAR 32E2
ENCODING 13026
SWIDTH 1000 0
DWIDTH 8 0
BBX 8 8 0 -1
BITMAP
38
5E
81
BF
91
91
42
3C
ENDCHAR
STARTCHAR 32E3
ENCODING 13027
SWIDTH 1000 0
DWIDTH 8 0
BBX 7 8 1 -1
BITMAP
38
E4
A2
92
AA
22
84
78
ENDCHAR
STARTCHAR 32E4
ENCODING 13028
SWIDTH 1000 0
DWIDTH 8 0
BBX 8 8 0 -1
BITMAP
38
4E
89
BD
91
91
62
3C
ENDCHAR
STARTCHAR 32E5
ENCODING 13029
SWIDTH 1000 0
DWIDTH 8 0
BBX 8 8 0 -1
BITMAP
38
46
BD
81
B9
85
42
3C
ENDCHAR
STARTCHAR 32E6
ENCODING 13030
SWIDTH 1000 0
DWIDTH 8 0
BBX 8 8 0 -1
BITMAP
38
7E
85
99
99
A5
42
3C
ENDCHAR
STARTCHAR 32E7
ENCODING 13031
SWIDTH 1000 0
DWIDTH 8 0
BBX 8 8 0 -1
BITMAP
38
4E
BD
89
95
F1
42
3C
ENDCHAR
STARTCHAR 32E8
ENCODING 13032
SWIDTH 1000 0
DWIDTH 8 0
BBX 8 8 0 -1
BITMAP
38
46
8D
89
91
A1
42
3C
ENDCHAR
STARTCHAR 32E9
ENCODING 13033
SWIDTH 1000 0
DWIDTH 8 0
BBX 8 8 0 -1
BITMAP
38
46
91
95
A3
81
42
3C
ENDCHAR
STARTCHAR 32EA
ENCODING 13034
SWIDTH 1000 0
DWIDTH 8 0
BBX 8 8 0 -1
BITMAP
38
46
85
A9
B1
99
42
3C
ENDCHAR
STARTCHAR 32EB
ENCODING 13035
SWIDTH 1000 0
DWIDTH 8 0
BBX 8 8 0 -1
BITMAP
38
46
BD
85
89
91
42
3C
ENDCHAR
STARTCHAR 32EC
ENCODING 13036
SWIDTH 1000 0
DWIDTH 8 0
BBX 8 8 0 -1
BITMAP
38
46
91
A9
C5
81
42
3C
ENDCHAR
STARTCHAR 32ED
ENCODING 13037
SWIDTH 1000 0
DWIDTH 8 0
BBX 8 8 0 -1
BITMAP
38
56
B1
99
B5
91
42
3C
ENDCHAR
STARTCHAR 32EE
ENCODING 13038
SWIDTH 1000 0
DWIDTH 8 0
BBX 8 8 0 -1
BITMAP
38
46
BD
85
99
89
42
3C
ENDCHAR
STARTCHAR 32EF
ENCODING 13039
SWIDTH 1000 0
DWIDTH 8 0
BBX 8 8 0 -1
BITMAP
38
46
89
89
81
9D
42
3C
ENDCHAR
STARTCHAR 32F0
ENCODING 13040
SWIDTH 1000 0
DWIDTH 8 0
BBX 8 8 0 -1
BITMAP
38
56
91
A1
A5
B9
42
3C
ENDCHAR
STARTCHAR 32F1
ENCODING 13041
SWIDTH 1000 0
DWIDTH 8 0
BBX 8 8 0 -1
BITMAP
38
46
85
99
95
81
42
3C
ENDCHAR
STARTCHAR 32F2
ENCODING 13042
SWIDTH 1000 0
DWIDTH 8 0
BBX 8 8 0 -1
BITMAP
3C
46
B9
F7
99
99
42
3C
ENDCHAR
STARTCHAR 32F3
ENCODING 13043
SWIDTH 1000 0
DWIDTH 8 0
BBX 8 8 0 -1
BITMAP
38
66
95
BF
91
91
42
3C
ENDCHAR
STARTCHAR 32F4
ENCODING 13044
SWIDTH 1000 0
DWIDTH 8 0
BBX 8 8 0 -1
BITMAP
38
46
BD
89
89
B5
42
3C
ENDCHAR
STARTCHAR 32F5
ENCODING 13045
SWIDTH 1000 0
DWIDTH 8 0
BBX 8 8 0 -1
BITMAP
38
46
BD
BD
89
BD
42
3C
ENDCHAR
STARTCHAR 32F6
ENCODING 13046
SWIDTH 1000 0
DWIDTH 8 0
BBX 8 8 0 -1
BITMAP
38
5E
81
BD
89
89
42
3C
ENDCHAR
STARTCHAR 32F7
ENCODING 13047
SWIDTH 1000 0
DWIDTH 8 0
BBX 8 8 0 -1
BITMAP
38
46
89
A9
89
89
52
3C
ENDCHAR
STARTCHAR 32F8
ENCODING 13048
SWIDTH 1000 0
DWIDTH 8 0
BBX 8 8 0 -1
BITMAP
38
46
89
A9
AD
89
42
3C
ENDCHAR
STARTCHAR 32F9
ENCODING 13049
SWIDTH 1000 0
DWIDTH 8 0
BBX 8 8 0 -1
BITMAP
38
46
81
A3
A5
B9
42
3C
ENDCHAR
STARTCHAR 32FA
ENCODING 13050
SWIDTH 1000 0
DWIDTH 8 0
BBX 8 8 0 -1
BITMAP
38
46
BD
A5
A5
BD
42
3C
ENDCHAR
STARTCHAR 32FB
ENCODING 13051
SWIDTH 1000 0
DWIDTH 8 0
BBX 8 8 0 -1
BITMAP
38
46
BD
A5
89
89
42
3C
ENDCHAR
STARTCHAR 32FC
ENCODING 13052
SWIDTH 1000 0
DWIDTH 8 0
BBX 8 8 1 -1
BITMAP
38
CE
FF
A9
ED
99
8A
7C
ENDCHAR
STARTCHAR 32FD
ENCODING 13053
SWIDTH 1000 0
DWIDTH 8 0
BBX 8 8 0 -1
BITMAP
38
46
BD
91
91
AD
42
3C
ENDCHAR
STARTCHAR 32FE
ENCODING 13054
SWIDTH 1000 0
DWIDTH 8 0
BBX 8 8 0 -1
BITMAP
38
46
BD
BD
89
89
42
3C
ENDCHAR
STARTCHAR 32FF
ENCODING 13055
SWIDTH 1000 0
DWIDTH 8 0
BBX 7 6 0 0
BITMAP
2A
E6
0E
66
6E
48
ENDCHAR
STARTCHAR 3300
ENCODING 13056
SWIDTH 1000 0
DWIDTH 8 0
BBX 7 8 1 -1
BITMAP
C2
6C
92
80
08
EC
08
08
ENDCHAR
STARTCHAR 3301
ENCODING 13057
SWIDTH 1000 0
DWIDTH 8 0
BBX 6 7 1 -1
BITMAP
C0
60
9C
A4
E8
44
48
ENDCHAR
STARTCHAR 3302
ENCODING 13058
SWIDTH 1000 0
DWIDTH 8 0
BBX 6 7 1 -1
BITMAP
C0
60
88
90
3C
C8
28
ENDCHAR
STARTCHAR 3303
ENCODING 13059
SWIDTH 1000 0
DWIDTH 8 0
BBX 6 7 0 -1
BITMAP
60
3C
40
40
20
60
A0
ENDCHAR
STARTCHAR 3304
ENCODING 13060
SWIDTH 1000 0
DWIDTH 8 0
BBX 6 6 1 0
BITMAP
4C
98
00
08
54
88
ENDCHAR
STARTCHAR 3305
ENCODING 13061
SWIDTH 1000 0
DWIDTH 8 0
BBX 6 6 1 0
BITMAP
40
C4
58
40
E0
80
ENDCHAR
STARTCHAR 3306
ENCODING 13062
SWIDTH 1000 0
DWIDTH 8 0
BBX 6 6 1 1
BITMAP
E8
48
44
00
20
C0
ENDCHAR
STARTCHAR 3307
ENCODING 13063
SWIDTH 1000 0
DWIDTH 8 0
BBX 7 7 0 -1
BITMAP
4C
42
CE
20
60
DA
44
ENDCHAR
STARTCHAR 3308
ENCODING 13064
SWIDTH 1000 0
DWIDTH 8 0
BBX 7 7 0 -1
BITMAP
40
4C
C0
20
C0
6E
60
ENDCHAR
STARTCHAR 3309
ENCODING 13065
SWIDTH 1000 0
DWIDTH 8 0
BBX 6 7 1 0
BITMAP
E0
44
D8
C0
40
20
80
ENDCHAR
STARTCHAR 330A
ENCODING 13066
SWIDTH 1000 0
DWIDTH 8 0
BBX 6 7 1 0
BITMAP
40
FC
40
C0
40
80
A0
ENDCHAR
STARTCHAR 330B
ENCODING 13067
SWIDTH 1000 0
DWIDTH 8 0
BBX 6 7 1 -1
BITMAP
40
EC
B8
40
80
C0
40
ENDCHAR
STARTCHAR 330C
ENCODING 13068
SWIDTH 1000 0
DWIDTH 8 0
BBX 6 8 1 -1
BITMAP
08
FC
A4
48
08
A8
48
08
ENDCHAR
STARTCHAR 330D
ENCODING 13069
SWIDTH 1000 0
DWIDTH 8 0
BBX 6 6 1 0
BITMAP
FC
D4
48
80
DC
40
ENDCHAR
STARTCHAR 330E
ENCODING 13070
SWIDTH 1000 0
DWIDTH 8 0
BBX 6 6 1 1
BITMAP
EC
B4
48
00
20
C0
ENDCHAR
STARTCHAR 330F
ENCODING 13071
SWIDTH 1000 0
DWIDTH 8 0
BBX 7 6 1 1
BITMAP
AA
C4
48
C0
20
40
ENDCHAR
STARTCHAR 3310
ENCODING 13072
SWIDTH 1000 0
DWIDTH 8 0
BBX 6 8 1 -1
BITMAP
10
C0
E0
00
18
14
18
20
ENDCHAR
STARTCHAR 3311
ENCODING 13073
SWIDTH 1000 0
DWIDTH 8 0
BBX 6 5 1 2
BITMAP
CC
A0
5C
00
C0
ENDCHAR
STARTCHAR 3312
ENCODING 13074
SWIDTH 1000 0
DWIDTH 8 0
BBX 6 7 1 -1
BITMAP
80
88
C4
5C
80
DC
40
ENDCHAR
STARTCHAR 3313
ENCODING 13075
SWIDTH 1000 0
DWIDTH 8 0
BBX 7 7 0 -1
BITMAP
40
40
EE
32
50
6E
20
ENDCHAR
STARTCHAR 3314
ENCODING 13076
SWIDTH 1000 0
DWIDTH 8 0
BBX 6 6 1 1
BITMAP
A0
E0
00
1C
14
14
ENDCHAR
STARTCHAR 3315
ENCODING 13077
SWIDTH 1000 0
DWIDTH 8 0
BBX 8 8 0 -1
BITMAP
40
4E
6A
24
4A
BA
45
02
ENDCHAR
STARTCHAR 3316
ENCODING 13078
SWIDTH 1000 0
DWIDTH 8 0
BBX 8 8 0 -1
BITMAP
40
5A
DB
00
12
FE
16
10
ENDCHAR
STARTCHAR 3317
ENCODING 13079
SWIDTH 1000 0
DWIDTH 8 0
BBX 6 7 1 -1
BITMAP
80
9C
D4
48
C0
5C
18
ENDCHAR
STARTCHAR 3318
ENCODING 13080
SWIDTH 1000 0
DWIDTH 8 0
BBX 6 7 1 0
BITMAP
28
EC
44
88
40
80
A0
ENDCHAR
STARTCHAR 3319
ENCODING 13081
SWIDTH 1000 0
DWIDTH 8 0
BBX 8 7 0 -1
BITMAP
08
FA
4C
07
08
22
4C
ENDCHAR
STARTCHAR 331A
ENCODING 13082
SWIDTH 1000 0
DWIDTH 8 0
BBX 7 6 0 0
BITMAP
70
2E
52
58
FE
6E
ENDCHAR
STARTCHAR 331B
ENCODING 13083
SWIDTH 1000 0
DWIDTH 8 0
BBX 6 6 1 0
BITMAP
DC
54
08
08
E8
08
ENDCHAR
STARTCHAR 331C
ENCODING 13084
SWIDTH 1000 0
DWIDTH 8 0
BBX 6 6 1 0
BITMAP
E0
5C
00
80
40
A0
ENDCHAR
STARTCHAR 331D
ENCODING 13085
SWIDTH 1000 0
DWIDTH 8 0
BBX 6 6 1 -1
BITMAP
C0
40
DC
24
40
80
ENDCHAR
STARTCHAR 331E
ENCODING 13086
SWIDTH 1000 0
DWIDTH 8 0
BBX 5 7 1 -1
BITMAP
C0
38
C0
00
E0
80
20
ENDCHAR
STARTCHAR 331F
ENCODING 13087
SWIDTH 1000 0
DWIDTH 8 0
BBX 6 7 1 -1
BITMAP
04
E8
48
00
80
C8
54
ENDCHAR
STARTCHAR 3320
ENCODING 13088
SWIDTH 1000 0
DWIDTH 8 0
BBX 8 7 0 0
BITMAP
74
22
04
22
FE
45
02
ENDCHAR
STARTCHAR 3321
ENCODING 13089
SWIDTH 1000 0
DWIDTH 8 0
BBX 6 7 1 -1
BITMAP
04
84
44
88
08
34
C8
ENDCHAR
STARTCHAR 3322
ENCODING 13090
SWIDTH 1000 0
DWIDTH 8 0
BBX 6 6 1 0
BITMAP
A8
C4
68
40
E0
80
ENDCHAR
STARTCHAR 3323
ENCODING 13091
SWIDTH 1000 0
DWIDTH 8 0
BBX 7 6 0 0
BITMAP
90
62
34
00
20
40
ENDCHAR
STARTCHAR 3324
ENCODING 13092
SWIDTH 1000 0
DWIDTH 8 0
BBX 6 6 1 0
BITMAP
E0
5C
80
80
40
A0
ENDCHAR
STARTCHAR 3325
ENCODING 13093
SWIDTH 1000 0
DWIDTH 8 0
BBX 6 7 1 0
BITMAP
50
C0
40
40
80
14
18
ENDCHAR
STARTCHAR 3326
ENCODING 13094
SWIDTH 1000 0
DWIDTH 8 0
BBX 6 7 1 -1
BITMAP
A0
A0
E0
00
18
1C
28
ENDCHAR
STARTCHAR 3327
ENCODING 13095
SWIDTH 1000 0
DWIDTH 8 0
BBX 6 5 1 2
BITMAP
E0
00
10
04
18
ENDCHAR
STARTCHAR 3328
ENCODING 13096
SWIDTH 1000 0
DWIDTH 8 0
BBX 6 6 1 0
BITMAP
80
60
40
04
08
10
ENDCHAR
STARTCHAR 3329
ENCODING 13097
SWIDTH 1000 0
DWIDTH 8 0
BBX 7 6 0 0
BITMAP
26
42
84
00
60
40
ENDCHAR
STARTCHAR 332A
ENCODING 13098
SWIDTH 1000 0
DWIDTH 8 0
BBX 7 6 0 0
BITMAP
42
92
02
10
10
20
ENDCHAR
STARTCHAR 332B
ENCODING 13099
SWIDTH 1000 0
DWIDTH 8 0
BBX 8 8 0 -1
BITMAP
30
4C
90
00
52
E7
6A
02
ENDCHAR
STARTCHAR 332D
ENCODING 13101
SWIDTH 1000 0
DWIDTH 8 0
BBX 7 6 0 0
BITMAP
4C
90
00
40
6E
CA
ENDCHAR
STARTCHAR 332E
ENCODING 13102
SWIDTH 1000 0
DWIDTH 8 0
BBX 7 8 0 -1
BITMAP
36
02
E4
64
72
5E
76
10
ENDCHAR
STARTCHAR 332F
ENCODING 13103
SWIDTH 1000 0
DWIDTH 8 0
BBX 7 7 0 -1
BITMAP
30
26
CA
74
20
20
20
ENDCHAR
STARTCHAR 3330
ENCODING 13104
SWIDTH 1000 0
DWIDTH 8 0
BBX 6 7 1 0
BITMAP
10
A0
C0
C0
1C
04
1C
ENDCHAR
STARTCHAR 3331
ENCODING 13105
SWIDTH 1000 0
DWIDTH 8 0
BBX 6 7 1 -1
BITMAP
10
A0
C0
C0
18
1C
28
ENDCHAR
STARTCHAR 3332
ENCODING 13106
SWIDTH 1000 0
DWIDTH 8 0
BBX 8 7 0 -1
BITMAP
60
1A
24
00
60
AF
08
ENDCHAR
STARTCHAR 3333
ENCODING 13107
SWIDTH 1000 0
DWIDTH 8 0
BBX 6 7 1 -1
BITMAP
C0
24
58
80
08
EC
08
ENDCHAR
STARTCHAR 3334
ENCODING 13108
SWIDTH 1000 0
DWIDTH 8 0
BBX 7 7 1 -1
BITMAP
08
E2
42
04
82
7A
B2
ENDCHAR
STARTCHAR 3335
ENCODING 13109
SWIDTH 1000 0
DWIDTH 8 0
BBX 6 7 1 0
BITMAP
C8
2C
44
08
80
40
80
ENDCHAR
STARTCHAR 3336
ENCODING 13110
SWIDTH 1000 0
DWIDTH 8 0
BBX 7 6 0 0
BITMAP
66
92
00
60
5C
46
ENDCHAR
STARTCHAR 3337
ENCODING 13111
SWIDTH 1000 0
DWIDTH 8 0
BBX 6 7 1 -1
BITMAP
20
40
B0
00
14
04
08
ENDCHAR
STARTCHAR 3338
ENCODING 13112
SWIDTH 1000 0
DWIDTH 8 0
BBX 7 6 0 0
BITMAP
56
BE
00
60
40
60
ENDCHAR
STARTCHAR 3339
ENCODING 13113
SWIDTH 1000 0
DWIDTH 8 0
BBX 7 6 0 0
BITMAP
40
BE
12
10
10
20
ENDCHAR
STARTCHAR 333A
ENCODING 13114
SWIDTH 1000 0
DWIDTH 8 0
BBX 8 6 0 0
BITMAP
55
B2
04
60
20
50
ENDCHAR
STARTCHAR 333B
ENCODING 13115
SWIDTH 1000 0
DWIDTH 8 0
BBX 7 6 0 -1
BITMAP
6E
90
00
50
50
60
ENDCHAR
STARTCHAR 333C
ENCODING 13116
SWIDTH 1000 0
DWIDTH 8 0
BBX 6 5 0 0
BITMAP
7C
90
00
60
20
ENDCHAR
STARTCHAR 333D
ENCODING 13117
SWIDTH 1000 0
DWIDTH 8 0
BBX 6 8 1 -1
BITMAP
20
EC
F8
40
08
2C
C8
08
ENDCHAR
STARTCHAR 333E
ENCODING 13118
SWIDTH 1000 0
DWIDTH 8 0
BBX 6 6 1 0
BITMAP
E0
9C
24
00
40
80
ENDCHAR
STARTCHAR 333F
ENCODING 13119
SWIDTH 1000 0
DWIDTH 8 0
BBX 6 6 1 0
BITMAP
E0
E0
40
10
04
18
ENDCHAR
STARTCHAR 3340
ENCODING 13120
SWIDTH 1000 0
DWIDTH 8 0
BBX 6 7 1 -1
BITMAP
60
E0
A4
08
00
40
80
ENDCHAR
STARTCHAR 3341
ENCODING 13121
SWIDTH 1000 0
DWIDTH 8 0
BBX 6 6 0 0
BITMAP
7C
40
00
20
60
A0
ENDCHAR
STARTCHAR 3342
ENCODING 13122
SWIDTH 1000 0
DWIDTH 8 0
BBX 6 6 1 1
BITMAP
FC
A0
00
00
40
80
ENDCHAR
STARTCHAR 3343
ENCODING 13123
SWIDTH 1000 0
DWIDTH 8 0
BBX 7 8 0 -1
BITMAP
62
14
24
00
58
AE
0A
04
ENDCHAR
STARTCHAR 3344
ENCODING 13124
SWIDTH 1000 0
DWIDTH 8 0
BBX 6 6 1 0
BITMAP
E4
58
00
00
40
C0
ENDCHAR
STARTCHAR 3345
ENCODING 13125
SWIDTH 1000 0
DWIDTH 8 0
BBX 7 6 0 0
BITMAP
72
22
04
00
50
80
ENDCHAR
STARTCHAR 3346
ENCODING 13126
SWIDTH 1000 0
DWIDTH 8 0
BBX 6 6 1 -1
BITMAP
C0
20
5C
24
80
40
ENDCHAR
STARTCHAR 3347
ENCODING 13127
SWIDTH 1000 0
DWIDTH 8 0
BBX 6 8 1 -1
BITMAP
C0
20
44
08
88
74
A8
10
ENDCHAR
STARTCHAR 3348
ENCODING 13128
SWIDTH 1000 0
DWIDTH 8 0
BBX 7 6 0 1
BITMAP
46
44
60
08
F2
A4
ENDCHAR
STARTCHAR 3349
ENCODING 13129
SWIDTH 1000 0
DWIDTH 8 0
BBX 6 6 1 0
BITMAP
80
80
E0
04
04
04
ENDCHAR
STARTCHAR 334A
ENCODING 13130
SWIDTH 1000 0
DWIDTH 8 0
BBX 7 7 0 -1
BITMAP
02
42
42
64
22
7A
82
ENDCHAR
STARTCHAR 334B
ENCODING 13131
SWIDTH 1000 0
DWIDTH 8 0
BBX 6 6 1 0
BITMAP
20
60
80
10
1C
18
ENDCHAR
STARTCHAR 334C
ENCODING 13132
SWIDTH 1000 0
DWIDTH 8 0
BBX 7 7 1 -1
BITMAP
02
5C
54
98
10
44
98
ENDCHAR
STARTCHAR 334D
ENCODING 13133
SWIDTH 1000 0
DWIDTH 8 0
BBX 7 7 1 -1
BITMAP
40
58
40
80
00
4A
94
ENDCHAR
STARTCHAR 334E
ENCODING 13134
SWIDTH 1000 0
DWIDTH 8 0
BBX 5 7 1 -1
BITMAP
80
F8
80
00
20
40
80
ENDCHAR
STARTCHAR 334F
ENCODING 13135
SWIDTH 1000 0
DWIDTH 8 0
BBX 5 6 1 0
BITMAP
F8
80
40
40
40
40
ENDCHAR
STARTCHAR 3350
ENCODING 13136
SWIDTH 1000 0
DWIDTH 8 0
BBX 6 7 1 0
BITMAP
18
C4
C8
00
80
40
80
ENDCHAR
STARTCHAR 3351
ENCODING 13137
SWIDTH 1000 0
DWIDTH 8 0
BBX 7 7 1 -1
BITMAP
40
CC
44
88
00
4A
94
ENDCHAR
STARTCHAR 3352
ENCODING 13138
SWIDTH 1000 0
DWIDTH 8 0
BBX 6 6 1 0
BITMAP
C0
C0
48
18
04
08
ENDCHAR
STARTCHAR 3353
ENCODING 13139
SWIDTH 1000 0
DWIDTH 8 0
BBX 8 6 0 1
BITMAP
01
62
7C
A6
00
70
ENDCHAR
STARTCHAR 3354
ENCODING 13140
SWIDTH 1000 0
DWIDTH 8 0
BBX 8 6 0 0
BITMAP
66
78
A0
60
25
0A
ENDCHAR
STARTCHAR 3355
ENCODING 13141
SWIDTH 1000 0
DWIDTH 8 0
BBX 6 6 1 1
BITMAP
80
A0
C0
08
10
2C
ENDCHAR
STARTCHAR 3356
ENCODING 13142
SWIDTH 1000 0
DWIDTH 8 0
BBX 7 6 0 0
BITMAP
52
64
48
14
52
92
ENDCHAR
STARTCHAR 3357
ENCODING 13143
SWIDTH 1000 0
DWIDTH 8 0
BBX 6 6 1 0
BITMAP
E4
44
08
00
40
80
ENDCHAR
STARTCHAR 3371
ENCODING 13169
SWIDTH 1000 0
DWIDTH 8 0
BBX 6 6 1 1
BITMAP
B0
B0
FC
E4
EC
EC
ENDCHAR
STARTCHAR 337B
ENCODING 13179
SWIDTH 1000 0
DWIDTH 8 0
BBX 7 8 1 -1
BITMAP
04
46
FC
D6
5E
DC
5C
42
ENDCHAR
STARTCHAR 337C
ENCODING 13180
SWIDTH 1000 0
DWIDTH 8 0
BBX 8 6 0 0
BITMAP
D9
DB
DB
DF
FB
FB
ENDCHAR
STARTCHAR 337D
ENCODING 13181
SWIDTH 1000 0
DWIDTH 8 0
BBX 6 8 1 -1
BITMAP
40
48
E8
58
58
D8
B8
04
ENDCHAR
STARTCHAR 337E
ENCODING 13182
SWIDTH 1000 0
DWIDTH 8 0
BBX 7 7 0 -1
BITMAP
70
FC
FE
F8
FE
FE
5E
ENDCHAR
STARTCHAR 337F
ENCODING 13183
SWIDTH 1000 0
DWIDTH 8 0
BBX 7 8 1 -1
BITMAP
A2
EC
B4
A2
44
FE
34
40
ENDCHAR
STARTCHAR 3385
ENCODING 13189
SWIDTH 1000 0
DWIDTH 8 0
BBX 6 6 1 0
BITMAP
9C
D4
D4
DC
D4
94
ENDCHAR
STARTCHAR 3386
ENCODING 13190
SWIDTH 1000 0
DWIDTH 8 0
BBX 6 6 1 0
BITMAP
BC
B4
B4
BC
F4
F4
ENDCHAR
STARTCHAR 3387
ENCODING 13191
SWIDTH 1000 0
DWIDTH 8 0
BBX 7 6 0 0
BITMAP
7E
8A
8C
9A
9A
7A
ENDCHAR
STARTCHAR 3388
ENCODING 13192
SWIDTH 1000 0
DWIDTH 8 0
BBX 8 6 0 0
BITMAP
01
07
6E
96
9C
DA
ENDCHAR
STARTCHAR 3389
ENCODING 13193
SWIDTH 1000 0
DWIDTH 8 0
BBX 8 6 1 0
BITMAP
81
81
A7
DA
DB
9E
ENDCHAR
STARTCHAR 338D
ENCODING 13197
SWIDTH 1000 0
DWIDTH 8 0
BBX 8 5 0 0
BITMAP
56
A6
A4
FB
87
ENDCHAR
STARTCHAR 338E
ENCODING 13198
SWIDTH 1000 0
DWIDTH 8 0
BBX 7 5 1 -1
BITMAP
EE
EC
EC
F6
1E
ENDCHAR
STARTCHAR 338F
ENCODING 13199
SWIDTH 1000 0
DWIDTH 8 0
BBX 7 7 1 -1
BITMAP
80
80
AE
CE
C8
AE
0E
ENDCHAR
STARTCHAR 3390
ENCODING 13200
SWIDTH 1000 0
DWIDTH 8 0
BBX 7 6 0 0
BITMAP
48
48
7E
4C
4C
CE
ENDCHAR
STARTCHAR 3396
ENCODING 13206
SWIDTH 1000 0
DWIDTH 8 0
BBX 7 6 1 0
BITMAP
04
04
EC
E8
EA
EC
ENDCHAR
STARTCHAR 3397
ENCODING 13207
SWIDTH 1000 0
DWIDTH 8 0
BBX 7 6 1 1
BITMAP
26
2A
EA
AC
AA
FC
ENDCHAR
STARTCHAR 3398
ENCODING 13208
SWIDTH 1000 0
DWIDTH 8 0
BBX 7 6 1 0
BITMAP
86
8A
AA
CC
C8
AC
ENDCHAR
STARTCHAR 339B
ENCODING 13211
SWIDTH 1000 0
DWIDTH 8 0
BBX 7 4 0 -2
BITMAP
0E
EE
CE
EE
ENDCHAR
STARTCHAR 339C
ENCODING 13212
SWIDTH 1000 0
DWIDTH 8 0
BBX 6 4 1 0
BITMAP
FC
FC
FC
FC
ENDCHAR
STARTCHAR 339D
ENCODING 13213
SWIDTH 1000 0
DWIDTH 8 0
BBX 6 4 1 0
BITMAP
DC
9C
9C
DC
ENDCHAR
STARTCHAR 339E
ENCODING 13214
SWIDTH 1000 0
DWIDTH 8 0
BBX 6 6 1 0
BITMAP
80
80
9C
DC
DC
9C
ENDCHAR
STARTCHAR 339F
ENCODING 13215
SWIDTH 1000 0
DWIDTH 8 0
BBX 7 7 1 0
BITMAP
02
0C
FC
FC
FC
FC
FC
ENDCHAR
STARTCHAR 33A0
ENCODING 13216
SWIDTH 1000 0
DWIDTH 8 0
BBX 7 7 1 0
BITMAP
02
0C
DC
DC
9C
9C
DC
ENDCHAR
STARTCHAR 33A1
ENCODING 13217
SWIDTH 1000 0
DWIDTH 8 0
BBX 5 7 2 0
BITMAP
08
10
D8
A8
A8
A8
A8
ENDCHAR
STARTCHAR 33A2
ENCODING 13218
SWIDTH 1000 0
DWIDTH 8 0
BBX 7 7 1 0
BITMAP
02
8C
84
9C
DC
DC
9C
ENDCHAR
STARTCHAR 33A3
ENCODING 13219
SWIDTH 1000 0
DWIDTH 8 0
BBX 7 6 1 1
BITMAP
04
02
FC
FC
FC
FC
ENDCHAR
STARTCHAR 33A4
ENCODING 13220
SWIDTH 1000 0
DWIDTH 8 0
BBX 7 6 1 1
BITMAP
02
02
DC
9C
9C
DC
ENDCHAR
STARTCHAR 33A5
ENCODING 13221
SWIDTH 1000 0
DWIDTH 8 0
BBX 6 6 2 1
BITMAP
04
0C
F8
A8
A8
A8
ENDCHAR
STARTCHAR 33A6
ENCODING 13222
SWIDTH 1000 0
DWIDTH 8 0
BBX 7 7 1 0
BITMAP
04
84
86
9C
DC
DC
9C
ENDCHAR
STARTCHAR 33B0
ENCODING 13232
SWIDTH 1000 0
DWIDTH 8 0
BBX 6 5 1 0
BITMAP
EC
A8
A4
EC
80
ENDCHAR
STARTCHAR 33B1
ENCODING 13233
SWIDTH 1000 0
DWIDTH 8 0
BBX 6 4 1 0
BITMAP
EC
A8
A4
AC
ENDCHAR
STARTCHAR 33B2
ENCODING 13234
SWIDTH 1000 0
DWIDTH 8 0
BBX 7 5 0 0
BITMAP
46
94
AA
76
80
ENDCHAR
STARTCHAR 33B3
ENCODING 13235
SWIDTH 1000 0
DWIDTH 8 0
BBX 6 4 1 0
BITMAP
FC
D8
D4
DC
ENDCHAR
STARTCHAR 33C2
ENCODING 13250
SWIDTH 1000 0
DWIDTH 8 0
BBX 7 4 0 0
BITMAP
EE
2E
EE
FE
ENDCHAR
STARTCHAR 33C4
ENCODING 13252
SWIDTH 1000 0
DWIDTH 8 0
BBX 6 4 1 0
BITMAP
7C
90
90
CC
ENDCHAR
STARTCHAR 33C8
ENCODING 13256
SWIDTH 1000 0
DWIDTH 8 0
BBX 6 7 1 0
BITMAP
3C
34
F4
BC
B4
F4
08
ENDCHAR
STARTCHAR 33CB
ENCODING 13259
SWIDTH 1000 0
DWIDTH 8 0
BBX 7 6 1 0
BITMAP
9E
92
FE
90
90
90
ENDCHAR
STARTCHAR 33CD
ENCODING 13261
SWIDTH 1000 0
DWIDTH 8 0
BBX 7 6 1 0
BITMAP
90
D8
98
D8
D8
B6
ENDCHAR
STARTCHAR 33D4
ENCODING 13268
SWIDTH 1000 0
DWIDTH 8 0
BBX 6 6 1 -1
BITMAP
10
10
FC
F4
F4
FC
ENDCHAR
STARTCHAR 33D7
ENCODING 13271
SWIDTH 1000 0
DWIDTH 8 0
BBX 6 7 1 -1
BITMAP
14
D4
DC
D4
D4
D4
80
ENDCHAR
STARTCHAR 33D8
ENCODING 13272
SWIDTH 1000 0
DWIDTH 8 0
BBX 6 5 1 -1
BITMAP
DC
DC
DC
FC
80
ENDCHAR
STARTCHAR 33DA
ENCODING 13274
SWIDTH 1000 0
DWIDTH 8 0
BBX 6 6 1 0
BITMAP
FC
B4
B4
D8
94
94
ENDCHAR
STARTCHAR 3402
ENCODING 13314
SWIDTH 1000 0
DWIDTH 8 0
BBX 6 6 1 1
BITMAP
48
70
78
50
FC
5C
ENDCHAR
STARTCHAR 3406
ENCODING 13318
SWIDTH 1000 0
DWIDTH 8 0
BBX 5 7 1 0
BITMAP
70
78
78
70
78
88
10
ENDCHAR
STARTCHAR 342C
ENCODING 13356
SWIDTH 1000 0
DWIDTH 8 0
BBX 8 7 0 0
BITMAP
08
36
2E
10
2C
4D
87
ENDCHAR
STARTCHAR 342E
ENCODING 13358
SWIDTH 1000 0
DWIDTH 8 0
BBX 6 8 1 -1
BITMAP
10
6C
EC
78
38
74
68
04
ENDCHAR
STARTCHAR 3468
ENCODING 13416
SWIDTH 1000 0
DWIDTH 8 0
BBX 6 6 1 0
BITMAP
BC
A4
B8
98
BC
AC
ENDCHAR
STARTCHAR 346A
ENCODING 13418
SWIDTH 1000 0
DWIDTH 8 0
BBX 6 8 1 0
BITMAP
40
7C
90
AC
B8
A8
B8
C8
ENDCHAR
STARTCHAR 3492
ENCODING 13458
SWIDTH 1000 0
DWIDTH 8 0
BBX 7 7 1 -1
BITMAP
58
BC
84
98
BC
98
B6
ENDCHAR
STARTCHAR 34B5
ENCODING 13493
SWIDTH 1000 0
DWIDTH 8 0
BBX 8 7 0 0
BITMAP
10
6E
7E
42
7C
26
C1
ENDCHAR
STARTCHAR 34BC
ENCODING 13500
SWIDTH 1000 0
DWIDTH 8 0
BBX 6 8 1 -1
BITMAP
30
FC
30
DC
B4
DC
94
88
ENDCHAR
STARTCHAR 34C1
ENCODING 13505
SWIDTH 1000 0
DWIDTH 8 0
BBX 8 4 0 1
BITMAP
7F
AA
48
8F
ENDCHAR
STARTCHAR 34C7
ENCODING 13511
SWIDTH 1000 0
DWIDTH 8 0
BBX 7 6 0 -1
BITMAP
06
D8
48
9C
94
92
ENDCHAR
STARTCHAR 34DB
ENCODING 13531
SWIDTH 1000 0
DWIDTH 8 0
BBX 6 7 1 0
BITMAP
1C
54
54
54
54
A4
08
ENDCHAR
STARTCHAR 351F
ENCODING 13599
SWIDTH 1000 0
DWIDTH 8 0
BBX 7 8 0 0
BITMAP
60
AE
6A
26
DA
3E
22
04
ENDCHAR
STARTCHAR 355D
ENCODING 13661
SWIDTH 1000 0
DWIDTH 8 0
BBX 6 8 1 0
BITMAP
10
FC
10
68
30
70
10
68
ENDCHAR
STARTCHAR 355E
ENCODING 13662
SWIDTH 1000 0
DWIDTH 8 0
BBX 8 7 0 0
BITMAP
7F
75
5D
7A
BA
3D
18
ENDCHAR
STARTCHAR 3563
ENCODING 13667
SWIDTH 1000 0
DWIDTH 8 0
BBX 6 7 1 0
BITMAP
30
48
84
78
48
48
78
ENDCHAR
STARTCHAR 356E
ENCODING 13678
SWIDTH 1000 0
DWIDTH 8 0
BBX 7 7 1 -1
BITMAP
10
D4
E2
F6
D8
D8
26
ENDCHAR
STARTCHAR 35A6
ENCODING 13734
SWIDTH 1000 0
DWIDTH 8 0
BBX 7 8 1 0
BITMAP
10
FE
D0
FC
FC
D8
36
10
ENDCHAR
STARTCHAR 35A8
ENCODING 13736
SWIDTH 1000 0
DWIDTH 8 0
BBX 6 7 1 0
BITMAP
F8
D8
D4
D8
D8
14
10
ENDCHAR
STARTCHAR 35C5
ENCODING 13765
SWIDTH 1000 0
DWIDTH 8 0
BBX 6 6 1 0
BITMAP
DC
DC
DC
FC
FC
34
ENDCHAR
STARTCHAR 35DA
ENCODING 13786
SWIDTH 1000 0
DWIDTH 8 0
BBX 6 7 1 0
BITMAP
D8
FC
FC
D0
DC
1C
10
ENDCHAR
STARTCHAR 35F4
ENCODING 13812
SWIDTH 1000 0
DWIDTH 8 0
BBX 6 7 1 0
BITMAP
FC
FC
E4
FC
FC
34
20
ENDCHAR
STARTCHAR 3605
ENCODING 13829
SWIDTH 1000 0
DWIDTH 8 0
BBX 6 8 1 -1
BITMAP
10
E8
D0
F4
FC
F4
34
20
ENDCHAR
STARTCHAR 364A
ENCODING 13898
SWIDTH 1000 0
DWIDTH 8 0
BBX 6 6 2 0
BITMAP
B8
F8
B8
BC
A8
34
ENDCHAR
STARTCHAR 3691
ENCODING 13969
SWIDTH 1000 0
DWIDTH 8 0
BBX 6 7 1 0
BITMAP
78
F8
F8
20
F8
58
84
ENDCHAR
STARTCHAR 3696
ENCODING 13974
SWIDTH 1000 0
DWIDTH 8 0
BBX 5 6 2 1
BITMAP
F0
90
F0
60
F0
D8
ENDCHAR
STARTCHAR 3699
ENCODING 13977
SWIDTH 1000 0
DWIDTH 8 0
BBX 6 8 1 -1
BITMAP
40
FC
D4
9C
24
78
58
04
ENDCHAR
STARTCHAR 36CF
ENCODING 14031
SWIDTH 1000 0
DWIDTH 8 0
BBX 8 8 -1 -1
BITMAP
44
44
7E
AF
A6
5D
64
80
ENDCHAR
STARTCHAR 3761
ENCODING 14177
SWIDTH 1000 0
DWIDTH 8 0
BBX 8 7 0 1
BITMAP
7F
80
7E
76
74
F6
10
ENDCHAR
STARTCHAR 3762
ENCODING 14178
SWIDTH 1000 0
DWIDTH 8 0
BBX 7 8 0 -1
BITMAP
08
F6
18
3C
18
7E
42
44
ENDCHAR
STARTCHAR 376B
ENCODING 14187
SWIDTH 1000 0
DWIDTH 8 0
BBX 7 7 1 0
BITMAP
FE
D4
D8
D6
DC
88
14
ENDCHAR
STARTCHAR 376C
ENCODING 14188
SWIDTH 1000 0
DWIDTH 8 0
BBX 7 8 0 0
BITMAP
04
F4
34
54
76
76
5A
20
ENDCHAR
STARTCHAR 3775
ENCODING 14197
SWIDTH 1000 0
DWIDTH 8 0
BBX 5 6 2 0
BITMAP
F0
F0
E0
78
F0
20
ENDCHAR
STARTCHAR 378D
ENCODING 14221
SWIDTH 1000 0
DWIDTH 8 0
BBX 8 6 0 0
BITMAP
7E
7E
48
5C
4D
B7
ENDCHAR
STARTCHAR 37C1
ENCODING 14273
SWIDTH 1000 0
DWIDTH 8 0
BBX 7 7 1 0
BITMAP
7C
E8
E8
FE
E8
C8
08
ENDCHAR
STARTCHAR 37E2
ENCODING 14306
SWIDTH 1000 0
DWIDTH 8 0
BBX 8 6 0 0
BITMAP
4A
3C
34
FF
2C
3C
ENDCHAR
STARTCHAR 37E8
ENCODING 14312
SWIDTH 1000 0
DWIDTH 8 0
BBX 6 8 1 -1
BITMAP
10
D4
C8
DC
FC
FC
FC
20
ENDCHAR
STARTCHAR 37F4
ENCODING 14324
SWIDTH 1000 0
DWIDTH 8 0
BBX 6 6 1 0
BITMAP
50
FC
FC
E8
E8
EC
ENDCHAR
STARTCHAR 37FD
ENCODING 14333
SWIDTH 1000 0
DWIDTH 8 0
BBX 6 6 1 0
BITMAP
58
FC
FC
C0
DC
EC
ENDCHAR
STARTCHAR 3800
ENCODING 14336
SWIDTH 1000 0
DWIDTH 8 0
BBX 7 8 1 -1
BITMAP
20
D8
F2
7E
54
14
94
EC
ENDCHAR
STARTCHAR 382F
ENCODING 14383
SWIDTH 1000 0
DWIDTH 8 0
BBX 4 7 2 0
BITMAP
F0
90
F0
80
F0
90
F0
ENDCHAR
STARTCHAR 3836
ENCODING 14390
SWIDTH 1000 0
DWIDTH 8 0
BBX 6 7 1 0
BITMAP
40
F8
F8
F8
F8
6C
40
ENDCHAR
STARTCHAR 3840
ENCODING 14400
SWIDTH 1000 0
DWIDTH 8 0
BBX 7 8 1 -1
BITMAP
10
58
96
FC
9C
D4
94
80
ENDCHAR
STARTCHAR 385C
ENCODING 14428
SWIDTH 1000 0
DWIDTH 8 0
BBX 6 8 1 -1
BITMAP
A0
FC
E8
E4
C0
F8
D4
80
ENDCHAR
STARTCHAR 3861
ENCODING 14433
SWIDTH 1000 0
DWIDTH 8 0
BBX 7 8 1 -1
BITMAP
80
FC
F4
FE
FC
FC
D4
80
ENDCHAR
STARTCHAR 38FA
ENCODING 14586
SWIDTH 1000 0
DWIDTH 8 0
BBX 7 6 1 0
BITMAP
20
20
20
AA
22
20
ENDCHAR
STARTCHAR 3917
ENCODING 14615
SWIDTH 1000 0
DWIDTH 8 0
BBX 7 7 0 -1
BITMAP
10
FE
28
56
92
1C
56
ENDCHAR
STARTCHAR 391A
ENCODING 14618
SWIDTH 1000 0
DWIDTH 8 0
BBX 7 8 1 -1
BITMAP
40
54
E2
D4
74
54
54
50
ENDCHAR
STARTCHAR 396F
ENCODING 14703
SWIDTH 1000 0
DWIDTH 8 0
BBX 6 7 1 0
BITMAP
08
74
B0
28
78
38
BC
ENDCHAR
STARTCHAR 3A6E
ENCODING 14958
SWIDTH 1000 0
DWIDTH 8 0
BBX 8 8 0 -1
BITMAP
48
6E
5E
6D
DE
68
4C
08
ENDCHAR
STARTCHAR 3A73
ENCODING 14963
SWIDTH 1000 0
DWIDTH 8 0
BBX 8 7 0 0
BITMAP
5A
7F
7E
C0
4E
44
0A
ENDCHAR
STARTCHAR 3AD6
ENCODING 15062
SWIDTH 1000 0
DWIDTH 8 0
BBX 6 7 1 0
BITMAP
10
18
FC
78
48
78
30
ENDCHAR
STARTCHAR 3AD7
ENCODING 15063
SWIDTH 1000 0
DWIDTH 8 0
BBX 6 6 1 0
BITMAP
78
78
30
30
FC
10
ENDCHAR
STARTCHAR 3AEA
ENCODING 15082
SWIDTH 1000 0
DWIDTH 8 0
BBX 7 8 0 -1
BITMAP
10
3C
2C
7C
3C
F6
3C
08
ENDCHAR
STARTCHAR 3B0E
ENCODING 15118
SWIDTH 1000 0
DWIDTH 8 0
BBX 7 7 1 0
BITMAP
FC
7C
04
6C
FE
20
AA
ENDCHAR
STARTCHAR 3B1A
ENCODING 15130
SWIDTH 1000 0
DWIDTH 8 0
BBX 6 8 1 0
BITMAP
50
D8
DC
CC
FC
F4
FC
20
ENDCHAR
STARTCHAR 3B1C
ENCODING 15132
SWIDTH 1000 0
DWIDTH 8 0
BBX 6 7 1 0
BITMAP
FC
48
48
00
78
78
30
ENDCHAR
STARTCHAR 3B22
ENCODING 15138
SWIDTH 1000 0
DWIDTH 8 0
BBX 6 8 1 -1
BITMAP
08
FC
D0
C8
E4
FC
E8
04
ENDCHAR
STARTCHAR 3B6D
ENCODING 15213
SWIDTH 1000 0
DWIDTH 8 0
BBX 7 7 0 0
BITMAP
7E
5E
56
EE
4E
7A
40
ENDCHAR
STARTCHAR 3B77
ENCODING 15223
SWIDTH 1000 0
DWIDTH 8 0
BBX 6 7 1 0
BITMAP
5C
5C
54
F8
5C
64
40
ENDCHAR
STARTCHAR 3B87
ENCODING 15239
SWIDTH 1000 0
DWIDTH 8 0
BBX 8 8 0 -1
BITMAP
40
6C
4A
54
FB
5E
49
40
ENDCHAR
STARTCHAR 3B88
ENCODING 15240
SWIDTH 1000 0
DWIDTH 8 0
BBX 7 7 0 0
BITMAP
58
5C
7C
C2
5C
6A
40
ENDCHAR
STARTCHAR 3B8D
ENCODING 15245
SWIDTH 1000 0
DWIDTH 8 0
BBX 8 8 0 0
BITMAP
08
FF
7A
52
40
FF
3C
CB
ENDCHAR
STARTCHAR 3BA4
ENCODING 15268
SWIDTH 1000 0
DWIDTH 8 0
BBX 7 8 1 -1
BITMAP
10
EC
70
7C
F8
FE
38
D4
ENDCHAR
STARTCHAR 3BB6
ENCODING 15286
SWIDTH 1000 0
DWIDTH 8 0
BBX 7 7 0 0
BITMAP
46
7E
5E
FE
5E
5A
40
ENDCHAR
STARTCHAR 3BC3
ENCODING 15299
SWIDTH 1000 0
DWIDTH 8 0
BBX 6 8 1 -1
BITMAP
50
7C
54
70
FC
58
74
40
ENDCHAR
STARTCHAR 3BCD
ENCODING 15309
SWIDTH 1000 0
DWIDTH 8 0
BBX 8 8 0 -1
BITMAP
54
76
56
76
F3
56
52
70
ENDCHAR
STARTCHAR 3BF0
ENCODING 15344
SWIDTH 1000 0
DWIDTH 8 0
BBX 7 7 0 0
BITMAP
5E
40
4C
FE
52
5C
0C
ENDCHAR
STARTCHAR 3C0F
ENCODING 15375
SWIDTH 1000 0
DWIDTH 8 0
BBX 7 8 0 -1
BITMAP
40
7C
4A
54
EE
5E
5E
50
ENDCHAR
STARTCHAR 3C26
ENCODING 15398
SWIDTH 1000 0
DWIDTH 8 0
BBX 7 7 1 -1
BITMAP
08
50
5E
58
E4
AC
D2
ENDCHAR
STARTCHAR 3CC3
ENCODING 15555
SWIDTH 1000 0
DWIDTH 8 0
BBX 7 6 0 0
BITMAP
48
AC
56
48
9C
48
ENDCHAR
STARTCHAR 3CD2
ENCODING 15570
SWIDTH 1000 0
DWIDTH 8 0
BBX 6 7 1 0
BITMAP
90
EC
64
90
A0
BC
80
ENDCHAR
STARTCHAR 3D11
ENCODING 15633
SWIDTH 1000 0
DWIDTH 8 0
BBX 7 8 1 -1
BITMAP
80
3E
64
68
BC
BC
D8
D0
ENDCHAR
STARTCHAR 3D1E
ENCODING 15646
SWIDTH 1000 0
DWIDTH 8 0
BBX 6 7 1 0
BITMAP
18
24
C8
B4
BC
B4
BC
ENDCHAR
STARTCHAR 3D64
ENCODING 15716
SWIDTH 1000 0
DWIDTH 8 0
BBX 7 7 0 0
BITMAP
5A
DA
28
5C
96
1C
02
ENDCHAR
STARTCHAR 3D9A
ENCODING 15770
SWIDTH 1000 0
DWIDTH 8 0
BBX 7 7 0 0
BITMAP
1C
5E
4E
9E
BE
BE
90
ENDCHAR
STARTCHAR 3DC0
ENCODING 15808
SWIDTH 1000 0
DWIDTH 8 0
BBX 6 7 1 0
BITMAP
64
58
B4
68
28
64
24
ENDCHAR
STARTCHAR 3DD4
ENCODING 15828
SWIDTH 1000 0
DWIDTH 8 0
BBX 6 7 1 0
BITMAP
58
74
C8
74
7C
B4
3C
ENDCHAR
STARTCHAR 3E05
ENCODING 15877
SWIDTH 1000 0
DWIDTH 8 0
BBX 7 8 0 -1
BITMAP
54
7E
E8
F6
FE
5E
A6
1C
ENDCHAR
STARTCHAR 3E3F
ENCODING 15935
SWIDTH 1000 0
DWIDTH 8 0
BBX 8 7 0 0
BITMAP
68
BE
24
3E
24
35
37
ENDCHAR
STARTCHAR 3E60
ENCODING 15968
SWIDTH 1000 0
DWIDTH 8 0
BBX 7 6 1 0
BITMAP
16
B8
B4
B4
BC
9E
ENDCHAR
STARTCHAR 3E66
ENCODING 15974
SWIDTH 1000 0
DWIDTH 8 0
BBX 6 7 1 0
BITMAP
5C
94
54
60
DC
54
1C
ENDCHAR
STARTCHAR 3E68
ENCODING 15976
SWIDTH 1000 0
DWIDTH 8 0
BBX 7 8 0 -1
BITMAP
28
C8
5E
5A
5E
5A
5A
16
ENDCHAR
STARTCHAR 3E83
ENCODING 16003
SWIDTH 1000 0
DWIDTH 8 0
BBX 8 8 0 -1
BITMAP
82
5C
D0
6F
5A
5A
42
04
ENDCHAR
STARTCHAR 3E94
ENCODING 16020
SWIDTH 1000 0
DWIDTH 8 0
BBX 7 7 1 0
BITMAP
78
C4
F8
B4
BE
D4
04
ENDCHAR
STARTCHAR 3F57
ENCODING 16215
SWIDTH 1000 0
DWIDTH 8 0
BBX 6 6 1 0
BITMAP
E8
E8
E8
F8
F8
A4
ENDCHAR
STARTCHAR 3F72
ENCODING 16242
SWIDTH 1000 0
DWIDTH 8 0
BBX 6 7 1 0
BITMAP
10
EC
7C
DC
44
84
08
ENDCHAR
STARTCHAR 3F75
ENCODING 16245
SWIDTH 1000 0
DWIDTH 8 0
BBX 6 7 1 0
BITMAP
10
FC
50
FC
50
90
0C
ENDCHAR
STARTCHAR 3F77
ENCODING 16247
SWIDTH 1000 0
DWIDTH 8 0
BBX 7 6 1 0
BITMAP
10
6C
D0
5C
78
D6
ENDCHAR
STARTCHAR 3FAE
ENCODING 16302
SWIDTH 1000 0
DWIDTH 8 0
BBX 6 8 1 0
BITMAP
10
7C
50
F8
C0
58
94
08
ENDCHAR
STARTCHAR 3FC9
ENCODING 16329
SWIDTH 1000 0
DWIDTH 8 0
BBX 7 7 1 0
BITMAP
7E
D8
F2
EC
7C
8C
20
ENDCHAR
STARTCHAR 3FD7
ENCODING 16343
SWIDTH 1000 0
DWIDTH 8 0
BBX 6 8 1 0
BITMAP
10
7C
CC
EC
F4
5C
D8
04
ENDCHAR
STARTCHAR 4039
ENCODING 16441
SWIDTH 1000 0
DWIDTH 8 0
BBX 6 7 1 -1
BITMAP
10
D0
D8
F0
DC
D8
A4
ENDCHAR
STARTCHAR 4058
ENCODING 16472
SWIDTH 1000 0
DWIDTH 8 0
BBX 6 8 1 -1
BITMAP
10
DC
F8
D0
D8
DC
D4
08
ENDCHAR
STARTCHAR 4093
ENCODING 16531
SWIDTH 1000 0
DWIDTH 8 0
BBX 7 7 1 -1
BITMAP
BC
5C
7C
54
5C
A8
1E
ENDCHAR
STARTCHAR 4105
ENCODING 16645
SWIDTH 1000 0
DWIDTH 8 0
BBX 7 7 1 -1
BITMAP
10
6C
3C
54
92
78
96
ENDCHAR
STARTCHAR 4148
ENCODING 16712
SWIDTH 1000 0
DWIDTH 8 0
BBX 7 7 1 -1
BITMAP
14
58
2C
54
92
38
56
ENDCHAR
STARTCHAR 414F
ENCODING 16719
SWIDTH 1000 0
DWIDTH 8 0
BBX 8 7 0 0
BITMAP
5E
7E
54
76
D6
64
67
ENDCHAR
STARTCHAR 4163
ENCODING 16739
SWIDTH 1000 0
DWIDTH 8 0
BBX 7 8 1 0
BITMAP
50
FC
7C
7C
7E
D0
58
0C
ENDCHAR
STARTCHAR 41B4
ENCODING 16820
SWIDTH 1000 0
DWIDTH 8 0
BBX 8 6 0 1
BITMAP
FE
6F
54
3C
52
2F
ENDCHAR
STARTCHAR 41BF
ENCODING 16831
SWIDTH 1000 0
DWIDTH 8 0
BBX 8 8 0 -1
BITMAP
08
FE
34
5A
7E
7C
56
15
ENDCHAR
STARTCHAR 41E6
ENCODING 16870
SWIDTH 1000 0
DWIDTH 8 0
BBX 6 8 1 -1
BITMAP
40
7C
B0
58
58
30
2C
40
ENDCHAR
STARTCHAR 41EE
ENCODING 16878
SWIDTH 1000 0
DWIDTH 8 0
BBX 7 8 0 -1
BITMAP
48
A4
22
4C
48
5C
48
04
ENDCHAR
STARTCHAR 41F3
ENCODING 16883
SWIDTH 1000 0
DWIDTH 8 0
BBX 6 6 1 0
BITMAP
FC
3C
7C
78
98
6C
ENDCHAR
STARTCHAR 4207
ENCODING 16903
SWIDTH 1000 0
DWIDTH 8 0
BBX 5 7 1 -1
BITMAP
48
B0
10
78
88
70
78
ENDCHAR
STARTCHAR 420E
ENCODING 16910
SWIDTH 1000 0
DWIDTH 8 0
BBX 7 8 1 -2
BITMAP
40
BC
58
7C
7C
FE
38
D6
ENDCHAR
STARTCHAR 4264
ENCODING 16996
SWIDTH 1000 0
DWIDTH 8 0
BBX 8 9 0 -2
BITMAP
44
2A
64
7A
2E
FA
52
3D
40
ENDCHAR
STARTCHAR 42C6
ENCODING 17094
SWIDTH 1000 0
DWIDTH 8 0
BBX 7 8 0 -1
BITMAP
20
56
62
5E
2E
78
A8
20
ENDCHAR
STARTCHAR 42D6
ENCODING 17110
SWIDTH 1000 0
DWIDTH 8 0
BBX 8 8 0 0
BITMAP
28
4E
7F
4A
2C
6E
AE
28
ENDCHAR
STARTCHAR 42DD
ENCODING 17117
SWIDTH 1000 0
DWIDTH 8 0
BBX 8 8 0 -1
BITMAP
20
59
62
44
3B
7A
A6
20
ENDCHAR
STARTCHAR 4302
ENCODING 17154
SWIDTH 1000 0
DWIDTH 8 0
BBX 7 7 0 0
BITMAP
7E
6C
5C
2E
7E
A4
02
ENDCHAR
STARTCHAR 432B
ENCODING 17195
SWIDTH 1000 0
DWIDTH 8 0
BBX 9 7 -1 0
BITMAP
7980
6E00
5900
2700
7900
A780
2000
ENDCHAR
STARTCHAR 4343
ENCODING 17219
SWIDTH 1000 0
DWIDTH 8 0
BBX 7 8 1 -1
BITMAP
10
6C
D8
60
BA
FC
94
68
ENDCHAR
STARTCHAR 43EE
ENCODING 17390
SWIDTH 1000 0
DWIDTH 8 0
BBX 8 8 0 -1
BITMAP
04
69
6E
72
72
6C
AA
90
ENDCHAR
STARTCHAR 43F0
ENCODING 17392
SWIDTH 1000 0
DWIDTH 8 0
BBX 8 7 0 0
BITMAP
6E
6A
66
64
68
BF
80
ENDCHAR
STARTCHAR 4408
ENCODING 17416
SWIDTH 1000 0
DWIDTH 8 0
BBX 8 8 0 -1
BITMAP
04
7F
6E
7E
7A
7E
B4
0E
ENDCHAR
STARTCHAR 4417
ENCODING 17431
SWIDTH 1000 0
DWIDTH 8 0
BBX 7 8 0 -1
BITMAP
08
6A
6C
66
6E
72
BE
1E
ENDCHAR
STARTCHAR 441C
ENCODING 17436
SWIDTH 1000 0
DWIDTH 8 0
BBX 8 7 0 0
BITMAP
6E
60
7E
7A
7C
AE
83
ENDCHAR
STARTCHAR 4422
ENCODING 17442
SWIDTH 1000 0
DWIDTH 8 0
BBX 7 8 0 -1
BITMAP
08
76
76
6E
6E
7E
A6
80
ENDCHAR
STARTCHAR 4453
ENCODING 17491
SWIDTH 1000 0
DWIDTH 8 0
BBX 6 7 1 0
BITMAP
48
BC
F8
F8
7C
F0
78
ENDCHAR
STARTCHAR 445B
ENCODING 17499
SWIDTH 1000 0
DWIDTH 8 0
BBX 6 7 1 0
BITMAP
F8
68
78
68
A8
EC
10
ENDCHAR
STARTCHAR 4476
ENCODING 17526
SWIDTH 1000 0
DWIDTH 8 0
BBX 8 8 0 -1
BITMAP
24
7F
74
52
7E
7E
9A
88
ENDCHAR
STARTCHAR 447A
ENCODING 17530
SWIDTH 1000 0
DWIDTH 8 0
BBX 8 7 0 0
BITMAP
7E
7E
7E
FE
7F
97
81
ENDCHAR
STARTCHAR 4491
ENCODING 17553
SWIDTH 1000 0
DWIDTH 8 0
BBX 4 2 2 3
BITMAP
10
A0
ENDCHAR
STARTCHAR 44B3
ENCODING 17587
SWIDTH 1000 0
DWIDTH 8 0
BBX 7 8 1 -2
BITMAP
28
54
78
44
90
FE
38
D6
ENDCHAR
STARTCHAR 44BE
ENCODING 17598
SWIDTH 1000 0
DWIDTH 8 0
BBX 7 7 0 0
BITMAP
18
FE
18
7C
24
64
62
ENDCHAR
STARTCHAR 44D4
ENCODING 17620
SWIDTH 1000 0
DWIDTH 8 0
BBX 6 7 1 -1
BITMAP
08
74
24
38
64
F0
2C
ENDCHAR
STARTCHAR 4508
ENCODING 17672
SWIDTH 1000 0
DWIDTH 8 0
BBX 6 8 1 -1
BITMAP
20
58
78
58
78
88
78
44
ENDCHAR
STARTCHAR 450D
ENCODING 17677
SWIDTH 1000 0
DWIDTH 8 0
BBX 6 8 1 -1
BITMAP
28
54
7C
50
78
2C
DC
04
ENDCHAR
STARTCHAR 4525
ENCODING 17701
SWIDTH 1000 0
DWIDTH 8 0
BBX 7 7 1 -1
BITMAP
28
DC
7A
FC
FC
FC
BC
ENDCHAR
STARTCHAR 4543
ENCODING 17731
SWIDTH 1000 0
DWIDTH 8 0
BBX 7 8 1 -1
BITMAP
28
7C
E8
DE
E0
F8
9C
A8
ENDCHAR
STARTCHAR 459D
ENCODING 17821
SWIDTH 1000 0
DWIDTH 8 0
BBX 7 7 0 0
BITMAP
18
68
7C
4C
78
0C
F2
ENDCHAR
STARTCHAR 45B8
ENCODING 17848
SWIDTH 1000 0
DWIDTH 8 0
BBX 6 7 1 0
BITMAP
E8
78
6C
10
78
38
E4
ENDCHAR
STARTCHAR 45E5
ENCODING 17893
SWIDTH 1000 0
DWIDTH 8 0
BBX 6 8 1 -1
BITMAP
94
B8
C8
D8
F8
98
D8
14
ENDCHAR
STARTCHAR 45EA
ENCODING 17898
SWIDTH 1000 0
DWIDTH 8 0
BBX 8 8 0 -1
BITMAP
08
7F
54
7A
48
7E
BE
95
ENDCHAR
STARTCHAR 460F
ENCODING 17935
SWIDTH 1000 0
DWIDTH 8 0
BBX 6 8 1 -1
BITMAP
20
5C
F8
F8
F4
F4
D4
10
ENDCHAR
STARTCHAR 4641
ENCODING 17985
SWIDTH 1000 0
DWIDTH 8 0
BBX 7 7 0 0
BITMAP
4C
2C
4A
E8
4E
46
08
ENDCHAR
STARTCHAR 4665
ENCODING 18021
SWIDTH 1000 0
DWIDTH 8 0
BBX 6 7 1 0
BITMAP
98
DC
FC
98
A4
9C
90
ENDCHAR
STARTCHAR 46A1
ENCODING 18081
SWIDTH 1000 0
DWIDTH 8 0
BBX 7 8 0 -1
BITMAP
20
6E
7E
FE
74
5A
5C
80
ENDCHAR
STARTCHAR 46AF
ENCODING 18095
SWIDTH 1000 0
DWIDTH 8 0
BBX 6 7 1 0
BITMAP
54
F4
74
54
F4
A4
E8
ENDCHAR
STARTCHAR 470C
ENCODING 18188
SWIDTH 1000 0
DWIDTH 8 0
BBX 9 8 -1 -1
BITMAP
2100
5280
2100
5280
2100
7F80
AD00
2100
ENDCHAR
STARTCHAR 4764
ENCODING 18276
SWIDTH 1000 0
DWIDTH 8 0
BBX 7 8 1 0
BITMAP
08
FE
9A
96
5C
C8
FA
08
ENDCHAR
STARTCHAR 47FD
ENCODING 18429
SWIDTH 1000 0
DWIDTH 8 0
BBX 7 7 1 -1
BITMAP
F2
BC
FE
F4
D4
D6
B6
ENDCHAR
STARTCHAR 4816
ENCODING 18454
SWIDTH 1000 0
DWIDTH 8 0
BBX 7 7 1 0
BITMAP
EE
DC
D8
D6
EC
A4
3C
ENDCHAR
STARTCHAR 4844
ENCODING 18500
SWIDTH 1000 0
DWIDTH 8 0
BBX 6 8 1 -1
BITMAP
40
58
78
F8
F8
58
6C
40
ENDCHAR
STARTCHAR 484E
ENCODING 18510
SWIDTH 1000 0
DWIDTH 8 0
BBX 6 8 1 -1
BITMAP
40
6C
40
FC
FC
D0
50
40
ENDCHAR
STARTCHAR 48B5
ENCODING 18613
SWIDTH 1000 0
DWIDTH 8 0
BBX 7 7 0 0
BITMAP
EE
0C
FA
4A
AA
D8
08
ENDCHAR
STARTCHAR 49B0
ENCODING 18864
SWIDTH 1000 0
DWIDTH 8 0
BBX 6 7 1 0
BITMAP
FC
A4
E4
FC
B4
FC
80
ENDCHAR
STARTCHAR 49E7
ENCODING 18919
SWIDTH 1000 0
DWIDTH 8 0
BBX 6 8 1 -1
BITMAP
08
FC
D0
D8
F4
EC
A8
84
ENDCHAR
STARTCHAR 49FA
ENCODING 18938
SWIDTH 1000 0
DWIDTH 8 0
BBX 7 7 0 0
BITMAP
54
7E
54
7C
DC
54
3A
ENDCHAR
STARTCHAR 4A04
ENCODING 18948
SWIDTH 1000 0
DWIDTH 8 0
BBX 7 7 0 0
BITMAP
7C
8C
3C
7C
4C
7C
02
ENDCHAR
STARTCHAR 4A29
ENCODING 18985
SWIDTH 1000 0
DWIDTH 8 0
BBX 7 6 0 0
BITMAP
7E
88
04
3E
3E
B4
ENDCHAR
STARTCHAR 4ABC
ENCODING 19132
SWIDTH 1000 0
DWIDTH 8 0
BBX 7 8 1 -1
BITMAP
40
EC
F4
5C
FC
F4
F8
96
ENDCHAR
STARTCHAR 4B3B
ENCODING 19259
SWIDTH 1000 0
DWIDTH 8 0
BBX 8 8 0 -1
BITMAP
24
57
96
76
7E
63
56
A1
ENDCHAR
STARTCHAR 4BC2
ENCODING 19394
SWIDTH 1000 0
DWIDTH 8 0
BBX 7 7 0 0
BITMAP
3C
44
BE
6C
12
3C
2C
ENDCHAR
STARTCHAR 4BCA
ENCODING 19402
SWIDTH 1000 0
DWIDTH 8 0
BBX 7 7 0 0
BITMAP
76
76
8E
7E
7E
72
40
ENDCHAR
STARTCHAR 4BD2
ENCODING 19410
SWIDTH 1000 0
DWIDTH 8 0
BBX 7 7 0 0
BITMAP
72
70
9A
7A
7A
7A
48
ENDCHAR
STARTCHAR 4BE8
ENCODING 19432
SWIDTH 1000 0
DWIDTH 8 0
BBX 6 7 1 -1
BITMAP
78
74
FC
00
FC
10
6C
ENDCHAR
STARTCHAR 4C17
ENCODING 19479
SWIDTH 1000 0
DWIDTH 8 0
BBX 6 7 1 0
BITMAP
FC
A4
F4
BC
FC
FC
80
ENDCHAR
STARTCHAR 4C20
ENCODING 19488
SWIDTH 1000 0
DWIDTH 8 0
BBX 7 7 1 0
BITMAP
48
FC
FC
FC
68
48
7E
ENDCHAR
STARTCHAR 4CC4
ENCODING 19652
SWIDTH 1000 0
DWIDTH 8 0
BBX 7 8 1 -1
BITMAP
68
74
FC
FA
FC
EE
BC
04
ENDCHAR
STARTCHAR 4CD1
ENCODING 19665
SWIDTH 1000 0
DWIDTH 8 0
BBX 8 8 0 -1
BITMAP
24
4A
6E
7D
FF
76
5E
42
ENDCHAR
STARTCHAR 4D07
ENCODING 19719
SWIDTH 1000 0
DWIDTH 8 0
BBX 6 7 1 0
BITMAP
5C
7C
FC
98
EC
5C
44
ENDCHAR
STARTCHAR 4D77
ENCODING 19831
SWIDTH 1000 0
DWIDTH 8 0
BBX 6 6 1 0
BITMAP
5C
5C
FC
7C
5C
5C
ENDCHAR
STARTCHAR 4E00
ENCODING 19968
SWIDTH 1000 0
DWIDTH 8 0
BBX 6 1 1 3
BITMAP
FC
ENDCHAR
STARTCHAR 4E01
ENCODING 19969
SWIDTH 1000 0
DWIDTH 8 0
BBX 7 8 1 -1
BITMAP
02
FE
10
10
10
10
10
30
ENDCHAR
STARTCHAR 4E02
ENCODING 19970
SWIDTH 1000 0
DWIDTH 8 0
BBX 4 7 2 0
BITMAP
F0
80
80
F0
10
10
20
ENDCHAR
STARTCHAR 4E03
ENCODING 19971
SWIDTH 1000 0
DWIDTH 8 0
BBX 7 6 1 1
BITMAP
20
22
FC
20
22
3E
ENDCHAR
STARTCHAR 4E07
ENCODING 19975
SWIDTH 1000 0
DWIDTH 8 0
BBX 6 6 1 1
BITMAP
78
20
5C
48
48
88
ENDCHAR
STARTCHAR 4E08
ENCODING 19976
SWIDTH 1000 0
DWIDTH 8 0
BBX 7 8 1 -1
BITMAP
10
10
FE
10
10
20
38
C6
ENDCHAR
STARTCHAR 4E09
ENCODING 19977
SWIDTH 1000 0
DWIDTH 8 0
BBX 4 3 2 1
BITMAP
F0
00
60
ENDCHAR
STARTCHAR 4E0A
ENCODING 19978
SWIDTH 1000 0
DWIDTH 8 0
BBX 4 7 4 0
BITMAP
80
80
80
F0
80
80
80
ENDCHAR
STARTCHAR 4E0B
ENCODING 19979
SWIDTH 1000 0
DWIDTH 8 0
BBX 7 7 1 0
BITMAP
FE
10
10
1C
10
10
10
ENDCHAR
STARTCHAR 4E0D
ENCODING 19981
SWIDTH 1000 0
DWIDTH 8 0
BBX 6 6 2 0
BITMAP
F8
20
E8
24
20
20
ENDCHAR
STARTCHAR 4E0E
ENCODING 19982
SWIDTH 1000 0
DWIDTH 8 0
BBX 6 6 1 0
BITMAP
40
B8
78
08
F4
10
ENDCHAR
STARTCHAR 4E0F
ENCODING 19983
SWIDTH 1000 0
DWIDTH 8 0
BBX 7 6 1 0
BITMAP
7C
52
9E
92
6E
04
ENDCHAR
STARTCHAR 4E10
ENCODING 19984
SWIDTH 1000 0
DWIDTH 8 0
BBX 7 6 1 0
BITMAP
7C
10
9C
6E
02
04
ENDCHAR
STARTCHAR 4E11
ENCODING 19985
SWIDTH 1000 0
DWIDTH 8 0
BBX 6 6 1 1
BITMAP
78
48
48
FC
48
48
ENDCHAR
STARTCHAR 4E12
ENCODING 19986
SWIDTH 1000 0
DWIDTH 8 0
BBX 6 6 1 1
BITMAP
7C
14
64
54
84
08
ENDCHAR
STARTCHAR 4E14
ENCODING 19988
SWIDTH 1000 0
DWIDTH 8 0
BBX 4 6 2 1
BITMAP
F0
90
F0
90
F0
90
ENDCHAR
STARTCHAR 4E15
ENCODING 19989
SWIDTH 1000 0
DWIDTH 8 0
BBX 6 7 2 0
BITMAP
04
F8
20
E8
24
20
20
ENDCHAR
STARTCHAR 4E16
ENCODING 19990
SWIDTH 1000 0
DWIDTH 8 0
BBX 5 7 2 0
BITMAP
B0
B0
F8
B0
B0
80
F8
ENDCHAR
STARTCHAR 4E17
ENCODING 19991
SWIDTH 1000 0
DWIDTH 8 0
BBX 4 8 2 -1
BITMAP
20
B0
B0
F0
B0
B0
B0
D0
ENDCHAR
STARTCHAR 4E18
ENCODING 19992
SWIDTH 1000 0
DWIDTH 8 0
BBX 4 6 2 0
BITMAP
10
E0
80
F0
A0
A0
ENDCHAR
STARTCHAR 4E19
ENCODING 19993
SWIDTH 1000 0
DWIDTH 8 0
BBX 6 7 1 0
BITMAP
FC
14
FC
B4
CC
84
80
ENDCHAR
STARTCHAR 4E1E
ENCODING 19998
SWIDTH 1000 0
DWIDTH 8 0
BBX 7 5 1 1
BITMAP
3C
12
5C
54
92
ENDCHAR
STARTCHAR 4E21
ENCODING 20001
SWIDTH 1000 0
DWIDTH 8 0
BBX 6 7 1 0
BITMAP
FC
FC
94
DC
DC
A4
80
ENDCHAR
STARTCHAR 4E26
ENCODING 20006
SWIDTH 1000 0
DWIDTH 8 0
BBX 6 7 1 0
BITMAP
48
30
FC
30
B4
38
30
ENDCHAR
STARTCHAR 4E28
ENCODING 20008
SWIDTH 1000 0
DWIDTH 8 0
BBX 1 6 4 0
BITMAP
80
80
80
80
80
80
ENDCHAR
STARTCHAR 4E29
ENCODING 20009
SWIDTH 1000 0
DWIDTH 8 0
BBX 3 7 2 0
BITMAP
A0
A0
A0
A0
E0
20
20
ENDCHAR
STARTCHAR 4E2A
ENCODING 20010
SWIDTH 1000 0
DWIDTH 8 0
BBX 6 7 2 0
BITMAP
60
50
AC
20
20
20
20
ENDCHAR
STARTCHAR 4E2B
ENCODING 20011
SWIDTH 1000 0
DWIDTH 8 0
BBX 4 7 2 0
BITMAP
90
60
20
20
20
20
20
ENDCHAR
STARTCHAR 4E2C
ENCODING 20012
SWIDTH 1000 0
DWIDTH 8 0
BBX 4 7 1 0
BITMAP
10
50
50
30
D0
10
10
ENDCHAR
STARTCHAR 4E2D
ENCODING 20013
SWIDTH 1000 0
DWIDTH 8 0
BBX 6 8 1 -1
BITMAP
10
10
FC
94
94
FC
10
10
ENDCHAR
STARTCHAR 4E2E
ENCODING 20014
SWIDTH 1000 0
DWIDTH 8 0
BBX 6 6 2 0
BITMAP
F8
58
E8
48
E8
44
ENDCHAR
STARTCHAR 4E2F
ENCODING 20015
SWIDTH 1000 0
DWIDTH 8 0
BBX 6 7 2 0
BITMAP
28
70
38
E4
78
A0
20
ENDCHAR
STARTCHAR 4E30
ENCODING 20016
SWIDTH 1000 0
DWIDTH 8 0
BBX 7 7 1 -1
BITMAP
10
7C
10
3C
FE
10
10
ENDCHAR
STARTCHAR 4E31
ENCODING 20017
SWIDTH 1000 0
DWIDTH 8 0
BBX 6 7 1 -1
BITMAP
30
B4
B4
B4
FC
30
D0
ENDCHAR
STARTCHAR 4E32
ENCODING 20018
SWIDTH 1000 0
DWIDTH 8 0
BBX 6 7 1 0
BITMAP
10
FC
78
FC
14
F8
10
ENDCHAR
STARTCHAR 4E36
ENCODING 20022
SWIDTH 1000 0
DWIDTH 8 0
BBX 2 2 3 3
BITMAP
80
40
ENDCHAR
STARTCHAR 4E38
ENCODING 20024
SWIDTH 1000 0
DWIDTH 8 0
BBX 7 8 1 -1
BITMAP
20
20
F8
28
28
58
4A
8E
ENDCHAR
STARTCHAR 4E39
ENCODING 20025
SWIDTH 1000 0
DWIDTH 8 0
BBX 5 6 1 0
BITMAP
78
48
48
78
48
88
ENDCHAR
STARTCHAR 4E3B
ENCODING 20027
SWIDTH 1000 0
DWIDTH 8 0
BBX 7 7 1 0
BITMAP
20
10
FE
10
7C
10
10
ENDCHAR
STARTCHAR 4E3C
ENCODING 20028
SWIDTH 1000 0
DWIDTH 8 0
BBX 6 7 1 -1
BITMAP
48
48
FC
48
48
FC
88
ENDCHAR
STARTCHAR 4E3F
ENCODING 20031
SWIDTH 1000 0
DWIDTH 8 0
BBX 2 6 3 0
BITMAP
40
40
40
40
40
80
ENDCHAR
STARTCHAR 4E40
ENCODING 20032
SWIDTH 1000 0
DWIDTH 8 0
BBX 6 6 1 -1
BITMAP
80
80
40
20
10
0C
ENDCHAR
STARTCHAR 4E42
ENCODING 20034
SWIDTH 1000 0
DWIDTH 8 0
BBX 6 6 1 0
BITMAP
08
48
50
30
30
CC
ENDCHAR
STARTCHAR 4E43
ENCODING 20035
SWIDTH 1000 0
DWIDTH 8 0
BBX 6 7 1 0
BITMAP
78
50
4C
44
44
84
08
ENDCHAR
STARTCHAR 4E45
ENCODING 20037
SWIDTH 1000 0
DWIDTH 8 0
BBX 6 6 1 0
BITMAP
40
70
90
B0
28
44
ENDCHAR
STARTCHAR 4E47
ENCODING 20039
SWIDTH 1000 0
DWIDTH 8 0
BBX 8 6 0 1
BITMAP
0C
70
11
FE
10
1E
ENDCHAR
STARTCHAR 4E48
ENCODING 20040
SWIDTH 1000 0
DWIDTH 8 0
BBX 6 6 1 1
BITMAP
20
40
90
20
48
FC
ENDCHAR
STARTCHAR 4E4B
ENCODING 20043
SWIDTH 1000 0
DWIDTH 8 0
BBX 8 7 1 0
BITMAP
10
10
2C
08
50
A0
9F
ENDCHAR
STARTCHAR 4E4D
ENCODING 20045
SWIDTH 1000 0
DWIDTH 8 0
BBX 6 7 1 -1
BITMAP
40
80
F8
24
38
38
20
ENDCHAR
STARTCHAR 4E4E
ENCODING 20046
SWIDTH 1000 0
DWIDTH 8 0
BBX 7 8 1 -1
BITMAP
04
78
54
58
FE
10
10
20
ENDCHAR
STARTCHAR 4E4F
ENCODING 20047
SWIDTH 1000 0
DWIDTH 8 0
BBX 6 6 1 1
BITMAP
78
10
2C
10
60
A0
ENDCHAR
STARTCHAR 4E51
ENCODING 20049
SWIDTH 1000 0
DWIDTH 8 0
BBX 8 7 0 -1
BITMAP
02
3C
09
6E
1C
2B
88
ENDCHAR
STARTCHAR 4E55
ENCODING 20053
SWIDTH 1000 0
DWIDTH 8 0
BBX 8 8 0 -1
BITMAP
06
78
7E
7F
48
7E
AE
08
ENDCHAR
STARTCHAR 4E56
ENCODING 20054
SWIDTH 1000 0
DWIDTH 8 0
BBX 8 8 0 -1
BITMAP
06
38
FF
2C
6E
6F
08
08
ENDCHAR
STARTCHAR 4E57
ENCODING 20055
SWIDTH 1000 0
DWIDTH 8 0
BBX 7 8 1 -1
BITMAP
08
70
78
FE
58
38
54
90
ENDCHAR
STARTCHAR 4E58
ENCODING 20056
SWIDTH 1000 0
DWIDTH 8 0
BBX 6 8 1 -1
BITMAP
08
70
78
D4
1C
78
D4
10
ENDCHAR
STARTCHAR 4E59
ENCODING 20057
SWIDTH 1000 0
DWIDTH 8 0
BBX 6 6 1 1
BITMAP
F8
10
20
40
84
FC
ENDCHAR
STARTCHAR 4E5A
ENCODING 20058
SWIDTH 1000 0
DWIDTH 8 0
BBX 6 6 2 1
BITMAP
80
80
80
80
88
FC
ENDCHAR
STARTCHAR 4E5D
ENCODING 20061
SWIDTH 1000 0
DWIDTH 8 0
BBX 8 7 0 0
BITMAP
10
10
3C
14
25
27
C0
ENDCHAR
STARTCHAR 4E5E
ENCODING 20062
SWIDTH 1000 0
DWIDTH 8 0
BBX 6 7 1 0
BITMAP
44
B8
78
10
60
84
FC
ENDCHAR
STARTCHAR 4E5F
ENCODING 20063
SWIDTH 1000 0
DWIDTH 8 0
BBX 7 6 1 1
BITMAP
50
5C
F4
54
56
7E
ENDCHAR
STARTCHAR 4E62
ENCODING 20066
SWIDTH 1000 0
DWIDTH 8 0
BBX 6 6 1 0
BITMAP
50
F0
F0
F0
F4
BC
ENDCHAR
STARTCHAR 4E69
ENCODING 20073
SWIDTH 1000 0
DWIDTH 8 0
BBX 7 8 1 -1
BITMAP
50
50
70
50
B0
B4
B4
FE
ENDCHAR
STARTCHAR 4E71
ENCODING 20081
SWIDTH 1000 0
DWIDTH 8 0
BBX 6 7 1 0
BITMAP
F0
50
D0
70
B4
BC
C0
ENDCHAR
STARTCHAR 4E73
ENCODING 20083
SWIDTH 1000 0
DWIDTH 8 0
BBX 7 7 0 -1
BITMAP
18
F8
28
F8
28
EA
2E
ENDCHAR
STARTCHAR 4E7E
ENCODING 20094
SWIDTH 1000 0
DWIDTH 8 0
BBX 7 7 1 0
BITMAP
48
F8
F4
BC
E4
48
6E
ENDCHAR
STARTCHAR 4E80
ENCODING 20096
SWIDTH 1000 0
DWIDTH 8 0
BBX 7 6 1 1
BITMAP
70
B8
78
A4
FC
5E
ENDCHAR
STARTCHAR 4E82
ENCODING 20098
SWIDTH 1000 0
DWIDTH 8 0
BBX 7 8 1 -1
BITMAP
28
D8
28
18
F8
DA
BE
80
ENDCHAR
STARTCHAR 4E85
ENCODING 20101
SWIDTH 1000 0
DWIDTH 8 0
BBX 1 6 3 0
BITMAP
80
80
80
80
80
80
ENDCHAR
STARTCHAR 4E86
ENCODING 20102
SWIDTH 1000 0
DWIDTH 8 0
BBX 5 6 2 1
BITMAP
F8
30
20
20
20
60
ENDCHAR
STARTCHAR 4E88
ENCODING 20104
SWIDTH 1000 0
DWIDTH 8 0
BBX 6 7 2 0
BITMAP
78
70
20
FC
20
20
60
ENDCHAR
STARTCHAR 4E89
ENCODING 20105
SWIDTH 1000 0
DWIDTH 8 0
BBX 4 8 2 -1
BITMAP
40
A0
F0
30
F0
70
20
40
ENDCHAR
STARTCHAR 4E8A
ENCODING 20106
SWIDTH 1000 0
DWIDTH 8 0
BBX 6 7 1 -1
BITMAP
10
FC
50
38
FC
18
70
ENDCHAR
STARTCHAR 4E8B
ENCODING 20107
SWIDTH 1000 0
DWIDTH 8 0
BBX 4 8 2 -1
BITMAP
20
F0
F0
60
70
F0
70
20
ENDCHAR
STARTCHAR 4E8C
ENCODING 20108
SWIDTH 1000 0
DWIDTH 8 0
BBX 6 4 1 2
BITMAP
FC
00
00
FC
ENDCHAR
STARTCHAR 4E8D
ENCODING 20109
SWIDTH 1000 0
DWIDTH 8 0
BBX 6 6 2 0
BITMAP
70
04
F8
20
20
E0
ENDCHAR
STARTCHAR 4E8E
ENCODING 20110
SWIDTH 1000 0
DWIDTH 8 0
BBX 6 7 2 0
BITMAP
F8
20
24
F8
20
20
40
ENDCHAR
STARTCHAR 4E91
ENCODING 20113
SWIDTH 1000 0
DWIDTH 8 0
BBX 6 7 1 0
BITMAP
FC
00
00
78
48
48
34
ENDCHAR
STARTCHAR 4E92
ENCODING 20114
SWIDTH 1000 0
DWIDTH 8 0
BBX 4 6 2 1
BITMAP
F0
80
F0
90
70
20
ENDCHAR
STARTCHAR 4E94
ENCODING 20116
SWIDTH 1000 0
DWIDTH 8 0
BBX 7 6 0 1
BITMAP
FE
20
20
3C
24
24
ENDCHAR
STARTCHAR 4E95
ENCODING 20117
SWIDTH 1000 0
DWIDTH 8 0
BBX 6 8 1 -1
BITMAP
30
30
FC
30
34
78
50
90
ENDCHAR
STARTCHAR 4E98
ENCODING 20120
SWIDTH 1000 0
DWIDTH 8 0
BBX 5 6 2 0
BITMAP
08
F0
F0
90
F0
F0
ENDCHAR
STARTCHAR 4E99
ENCODING 20121
SWIDTH 1000 0
DWIDTH 8 0
BBX 5 6 1 1
BITMAP
78
40
78
78
A8
10
ENDCHAR
STARTCHAR 4E9B
ENCODING 20123
SWIDTH 1000 0
DWIDTH 8 0
BBX 7 6 0 0
BITMAP
28
7A
6C
7E
80
3E
ENDCHAR
STARTCHAR 4E9C
ENCODING 20124
SWIDTH 1000 0
DWIDTH 8 0
BBX 6 6 1 1
BITMAP
FC
34
FC
B4
FC
30
ENDCHAR
STARTCHAR 4E9D
ENCODING 20125
SWIDTH 1000 0
DWIDTH 8 0
BBX 6 6 1 0
BITMAP
20
4C
78
B4
48
78
ENDCHAR
STARTCHAR 4E9E
ENCODING 20126
SWIDTH 1000 0
DWIDTH 8 0
BBX 6 6 1 1
BITMAP
FC
30
FC
84
F8
30
ENDCHAR
STARTCHAR 4E9F
ENCODING 20127
SWIDTH 1000 0
DWIDTH 8 0
BBX 6 6 1 1
BITMAP
78
70
FC
EC
AC
20
ENDCHAR
STARTCHAR 4EA0
ENCODING 20128
SWIDTH 1000 0
DWIDTH 8 0
BBX 7 3 1 3
BITMAP
10
10
FE
ENDCHAR
STARTCHAR 4EA1
ENCODING 20129
SWIDTH 1000 0
DWIDTH 8 0
BBX 6 7 2 -1
BITMAP
20
20
D8
80
80
80
FC
ENDCHAR
STARTCHAR 4EA2
ENCODING 20130
SWIDTH 1000 0
DWIDTH 8 0
BBX 6 7 1 -1
BITMAP
14
E8
70
50
50
54
9C
ENDCHAR
STARTCHAR 4EA4
ENCODING 20132
SWIDTH 1000 0
DWIDTH 8 0
BBX 7 7 1 0
BITMAP
10
6C
46
A8
10
2C
C2
ENDCHAR
STARTCHAR 4EA5
ENCODING 20133
SWIDTH 1000 0
DWIDTH 8 0
BBX 6 7 2 0
BITMAP
20
F8
D0
68
90
6C
80
ENDCHAR
STARTCHAR 4EA6
ENCODING 20134
SWIDTH 1000 0
DWIDTH 8 0
BBX 7 6 0 0
BITMAP
08
3C
5C
5A
AA
58
ENDCHAR
STARTCHAR 4EA8
ENCODING 20136
SWIDTH 1000 0
DWIDTH 8 0
BBX 6 7 1 0
BITMAP
10
FC
48
78
F8
10
10
ENDCHAR
STARTCHAR 4EAB
ENCODING 20139
SWIDTH 1000 0
DWIDTH 8 0
BBX 6 7 1 -1
BITMAP
10
68
78
30
38
FC
10
ENDCHAR
STARTCHAR 4EAC
ENCODING 20140
SWIDTH 1000 0
DWIDTH 8 0
BBX 6 6 1 0
BITMAP
14
68
78
30
58
94
ENDCHAR
STARTCHAR 4EAD
ENCODING 20141
SWIDTH 1000 0
DWIDTH 8 0
BBX 7 7 1 -1
BITMAP
10
FC
48
30
FE
30
10
ENDCHAR
STARTCHAR 4EAE
ENCODING 20142
SWIDTH 1000 0
DWIDTH 8 0
BBX 6 6 1 0
BITMAP
FC
48
30
FC
34
5C
ENDCHAR
STARTCHAR 4EB0
ENCODING 20144
SWIDTH 1000 0
DWIDTH 8 0
BBX 5 6 2 0
BITMAP
28
F0
F0
F0
20
A8
ENDCHAR
STARTCHAR 4EB3
ENCODING 20147
SWIDTH 1000 0
DWIDTH 8 0
BBX 7 6 1 1
BITMAP
78
F0
78
FE
64
7C
ENDCHAR
STARTCHAR 4EB6
ENCODING 20150
SWIDTH 1000 0
DWIDTH 8 0
BBX 7 6 1 1
BITMAP
FC
FC
B4
CC
78
72
ENDCHAR
STARTCHAR 4EB9
ENCODING 20153
SWIDTH 1000 0
DWIDTH 8 0
BBX 8 6 0 1
BITMAP
7E
7A
5A
A5
BC
3C
ENDCHAR
STARTCHAR 4EBA
ENCODING 20154
SWIDTH 1000 0
DWIDTH 8 0
BBX 5 6 2 0
BITMAP
20
20
60
60
90
88
ENDCHAR
STARTCHAR 4EBB
ENCODING 20155
SWIDTH 1000 0
DWIDTH 8 0
BBX 4 7 1 0
BITMAP
10
20
60
A0
20
20
20
ENDCHAR
STARTCHAR 4EBC
ENCODING 20156
SWIDTH 1000 0
DWIDTH 8 0
BBX 6 4 1 1
BITMAP
20
30
48
84
ENDCHAR
STARTCHAR 4EC0
ENCODING 20160
SWIDTH 1000 0
DWIDTH 8 0
BBX 5 8 2 -2
BITMAP
20
A0
A0
F8
A0
A0
A0
A0
ENDCHAR
STARTCHAR 4EC1
ENCODING 20161
SWIDTH 1000 0
DWIDTH 8 0
BBX 6 7 2 0
BITMAP
C4
98
80
80
80
80
BC
ENDCHAR
STARTCHAR 4EC2
ENCODING 20162
SWIDTH 1000 0
DWIDTH 8 0
BBX 6 8 1 0
BITMAP
10
50
7C
54
D4
54
64
48
ENDCHAR
STARTCHAR 4EC3
ENCODING 20163
SWIDTH 1000 0
DWIDTH 8 0
BBX 7 8 1 0
BITMAP
20
5E
48
48
C8
48
48
40
ENDCHAR
STARTCHAR 4EC4
ENCODING 20164
SWIDTH 1000 0
DWIDTH 8 0
BBX 7 6 0 0
BITMAP
7C
50
48
58
54
A2
ENDCHAR
STARTCHAR 4EC6
ENCODING 20166
SWIDTH 1000 0
DWIDTH 8 0
BBX 6 7 1 0
BITMAP
50
50
58
D4
50
50
50
ENDCHAR
STARTCHAR 4EC7
ENCODING 20167
SWIDTH 1000 0
DWIDTH 8 0
BBX 5 7 2 0
BITMAP
20
A0
B0
B0
B0
D8
80
ENDCHAR
STARTCHAR 4EC8
ENCODING 20168
SWIDTH 1000 0
DWIDTH 8 0
BBX 8 7 1 -1
BITMAP
20
44
4C
D4
54
62
61
ENDCHAR
STARTCHAR 4ECA
ENCODING 20170
SWIDTH 1000 0
DWIDTH 8 0
BBX 6 7 1 0
BITMAP
30
4C
B0
00
38
10
10
ENDCHAR
STARTCHAR 4ECB
ENCODING 20171
SWIDTH 1000 0
DWIDTH 8 0
BBX 7 7 1 -1
BITMAP
10
30
48
AE
28
28
48
ENDCHAR
STARTCHAR 4ECD
ENCODING 20173
SWIDTH 1000 0
DWIDTH 8 0
BBX 7 8 1 -1
BITMAP
40
98
A8
A6
AC
A4
C4
C4
ENDCHAR
STARTCHAR 4ECE
ENCODING 20174
SWIDTH 1000 0
DWIDTH 8 0
BBX 7 6 0 0
BITMAP
20
24
24
3C
4C
8A
ENDCHAR
STARTCHAR 4ECF
ENCODING 20175
SWIDTH 1000 0
DWIDTH 8 0
BBX 6 7 2 0
BITMAP
D0
90
90
A8
A4
F8
80
ENDCHAR
STARTCHAR 4ED0
ENCODING 20176
SWIDTH 1000 0
DWIDTH 8 0
BBX 6 7 2 0
BITMAP
20
50
AC
20
F8
20
20
ENDCHAR
STARTCHAR 4ED4
ENCODING 20180
SWIDTH 1000 0
DWIDTH 8 0
BBX 6 8 1 -1
BITMAP
40
9C
90
90
B8
90
90
80
ENDCHAR
STARTCHAR 4ED5
ENCODING 20181
SWIDTH 1000 0
DWIDTH 8 0
BBX 4 8 2 -1
BITMAP
20
A0
A0
B0
A0
A0
A0
90
ENDCHAR
STARTCHAR 4ED6
ENCODING 20182
SWIDTH 1000 0
DWIDTH 8 0
BBX 6 8 1 -1
BITMAP
50
B0
BC
F4
B4
B0
BC
80
ENDCHAR
STARTCHAR 4ED7
ENCODING 20183
SWIDTH 1000 0
DWIDTH 8 0
BBX 7 8 0 0
BITMAP
08
48
7E
48
C8
48
54
42
ENDCHAR
STARTCHAR 4ED8
ENCODING 20184
SWIDTH 1000 0
DWIDTH 8 0
BBX 6 8 1 0
BITMAP
08
48
7C
48
C8
48
48
40
ENDCHAR
STARTCHAR 4ED9
ENCODING 20185
SWIDTH 1000 0
DWIDTH 8 0
BBX 7 7 0 0
BITMAP
28
48
5A
DA
5A
5A
56
ENDCHAR
STARTCHAR 4EDA
ENCODING 20186
SWIDTH 1000 0
DWIDTH 8 0
BBX 7 7 1 0
BITMAP
10
28
D6
94
94
94
68
ENDCHAR
STARTCHAR 4EDD
ENCODING 20189
SWIDTH 1000 0
DWIDTH 8 0
BBX 7 7 1 0
BITMAP
10
30
4C
82
38
10
12
ENDCHAR
STARTCHAR 4EDE
ENCODING 20190
SWIDTH 1000 0
DWIDTH 8 0
BBX 7 8 1 -2
BITMAP
20
5E
4A
5A
DA
4A
52
46
ENDCHAR
STARTCHAR 4EDF
ENCODING 20191
SWIDTH 1000 0
DWIDTH 8 0
BBX 4 7 2 0
BITMAP
10
A0
A0
B0
A0
A0
A0
ENDCHAR
STARTCHAR 4EE1
ENCODING 20193
SWIDTH 1000 0
DWIDTH 8 0
BBX 7 7 2 0
BITMAP
E0
B8
B8
88
90
A0
BE
ENDCHAR
STARTCHAR 4EE3
ENCODING 20195
SWIDTH 1000 0
DWIDTH 8 0
BBX 6 8 2 -1
BITMAP
40
98
90
F8
90
88
84
80
ENDCHAR
STARTCHAR 4EE4
ENCODING 20196
SWIDTH 1000 0
DWIDTH 8 0
BBX 6 8 0 -1
BITMAP
10
18
64
90
3C
14
14
10
ENDCHAR
STARTCHAR 4EE5
ENCODING 20197
SWIDTH 1000 0
DWIDTH 8 0
BBX 8 6 0 0
BITMAP
10
4C
44
44
26
C9
ENDCHAR
STARTCHAR 4EEB
ENCODING 20203
SWIDTH 1000 0
DWIDTH 8 0
BBX 6 8 2 -1
BITMAP
40
90
90
A8
90
90
9C
80
ENDCHAR
STARTCHAR 4EED
ENCODING 20205
SWIDTH 1000 0
DWIDTH 8 0
BBX 7 8 1 -1
BITMAP
40
9C
B4
94
9C
A6
A4
C8
ENDCHAR
STARTCHAR 4EEE
ENCODING 20206
SWIDTH 1000 0
DWIDTH 8 0
BBX 6 7 1 -1
BITMAP
40
BC
A0
BC
B4
A8
D4
ENDCHAR
STARTCHAR 4EF0
ENCODING 20208
SWIDTH 1000 0
DWIDTH 8 0
BBX 7 8 0 -2
BITMAP
20
5E
5A
5A
DA
5A
6E
48
ENDCHAR
STARTCHAR 4EF1
ENCODING 20209
SWIDTH 1000 0
DWIDTH 8 0
BBX 8 8 0 -1
BITMAP
20
4C
52
5D
C0
4E
44
40
ENDCHAR
STARTCHAR 4EF2
ENCODING 20210
SWIDTH 1000 0
DWIDTH 8 0
BBX 6 8 1 -1
BITMAP
50
90
BC
B4
B4
B8
90
90
ENDCHAR
STARTCHAR 4EF5
ENCODING 20213
SWIDTH 1000 0
DWIDTH 8 0
BBX 6 8 1 -1
BITMAP
40
E0
F8
D0
FC
90
90
90
ENDCHAR
STARTCHAR 4EF6
ENCODING 20214
SWIDTH 1000 0
DWIDTH 8 0
BBX 6 8 1 0
BITMAP
10
D4
BC
D0
D0
B8
90
90
ENDCHAR
STARTCHAR 4EF7
ENCODING 20215
SWIDTH 1000 0
DWIDTH 8 0
BBX 6 8 1 -1
BITMAP
40
90
AC
88
98
98
98
A8
ENDCHAR
STARTCHAR 4EFB
ENCODING 20219
SWIDTH 1000 0
DWIDTH 8 0
BBX 5 8 1 -1
BITMAP
40
98
B0
90
B8
90
90
08
ENDCHAR
STARTCHAR 4EFC
ENCODING 20220
SWIDTH 1000 0
DWIDTH 8 0
BBX 6 7 1 0
BITMAP
3C
50
50
D8
50
50
08
ENDCHAR
STARTCHAR 4EFD
ENCODING 20221
SWIDTH 1000 0
DWIDTH 8 0
BBX 6 7 1 0
BITMAP
D8
A4
C4
DC
94
A0
88
ENDCHAR
STARTCHAR 4EFF
ENCODING 20223
SWIDTH 1000 0
DWIDTH 8 0
BBX 6 8 1 -1
BITMAP
10
50
58
50
EC
64
64
48
ENDCHAR
STARTCHAR 4F00
ENCODING 20224
SWIDTH 1000 0
DWIDTH 8 0
BBX 6 6 2 0
BITMAP
D8
A8
C4
90
A0
BC
ENDCHAR
STARTCHAR 4F01
ENCODING 20225
SWIDTH 1000 0
DWIDTH 8 0
BBX 8 6 0 1
BITMAP
08
14
6B
A8
2C
29
ENDCHAR
STARTCHAR 4F03
ENCODING 20227
SWIDTH 1000 0
DWIDTH 8 0
BBX 5 7 2 0
BITMAP
B0
A0
F8
A8
A0
A0
80
ENDCHAR
STARTCHAR 4F09
ENCODING 20233
SWIDTH 1000 0
DWIDTH 8 0
BBX 5 6 2 0
BITMAP
20
98
B0
B0
B0
D8
ENDCHAR
STARTCHAR 4F0A
ENCODING 20234
SWIDTH 1000 0
DWIDTH 8 0
BBX 6 8 1 -1
BITMAP
40
9C
94
BC
94
9C
A0
80
ENDCHAR
STARTCHAR 4F0B
ENCODING 20235
SWIDTH 1000 0
DWIDTH 8 0
BBX 7 7 1 -1
BITMAP
40
B8
A8
B4
AC
A8
96
ENDCHAR
STARTCHAR 4F0D
ENCODING 20237
SWIDTH 1000 0
DWIDTH 8 0
BBX 7 8 0 -1
BITMAP
20
3E
50
50
DC
54
54
08
ENDCHAR
STARTCHAR 4F0E
ENCODING 20238
SWIDTH 1000 0
DWIDTH 8 0
BBX 7 7 0 0
BITMAP
08
5C
48
D6
54
4C
72
ENDCHAR
STARTCHAR 4F0F
ENCODING 20239
SWIDTH 1000 0
DWIDTH 8 0
BBX 5 6 2 0
BITMAP
A8
A0
B8
B0
D0
C8
ENDCHAR
STARTCHAR 4F10
ENCODING 20240
SWIDTH 1000 0
DWIDTH 8 0
BBX 6 8 1 -1
BITMAP
40
98
90
BC
98
90
AC
80
ENDCHAR
STARTCHAR 4F11
ENCODING 20241
SWIDTH 1000 0
DWIDTH 8 0
BBX 7 7 0 0
BITMAP
08
48
5C
DC
6A
68
48
ENDCHAR
STARTCHAR 4F16
ENCODING 20246
SWIDTH 1000 0
DWIDTH 8 0
BBX 8 8 0 -1
BITMAP
28
48
4E
48
CE
5C
6C
63
ENDCHAR
STARTCHAR 4F1A
ENCODING 20250
SWIDTH 1000 0
DWIDTH 8 0
BBX 6 7 1 0
BITMAP
30
4C
B0
04
78
48
B4
ENDCHAR
STARTCHAR 4F1C
ENCODING 20252
SWIDTH 1000 0
DWIDTH 8 0
BBX 7 6 1 0
BITMAP
50
98
AE
90
BC
90
ENDCHAR
STARTCHAR 4F1D
ENCODING 20253
SWIDTH 1000 0
DWIDTH 8 0
BBX 7 8 1 -1
BITMAP
40
BC
80
BE
90
A0
A4
9A
ENDCHAR
STARTCHAR 4F2F
ENCODING 20271
SWIDTH 1000 0
DWIDTH 8 0
BBX 5 7 2 0
BITMAP
A0
D8
C8
F8
C8
C8
F8
ENDCHAR
STARTCHAR 4F30
ENCODING 20272
SWIDTH 1000 0
DWIDTH 8 0
BBX 7 8 1 -1
BITMAP
50
90
BE
90
BC
A4
A4
BC
ENDCHAR
STARTCHAR 4F34
ENCODING 20276
SWIDTH 1000 0
DWIDTH 8 0
BBX 6 7 1 0
BITMAP
50
B4
B8
BC
90
BC
90
ENDCHAR
STARTCHAR 4F36
ENCODING 20278
SWIDTH 1000 0
DWIDTH 8 0
BBX 6 7 1 -1
BITMAP
40
98
A4
C0
9C
94
90
ENDCHAR
STARTCHAR 4F37
ENCODING 20279
SWIDTH 1000 0
DWIDTH 8 0
BBX 6 8 1 -1
BITMAP
50
90
BC
B4
BC
B4
B4
AC
ENDCHAR
STARTCHAR 4F38
ENCODING 20280
SWIDTH 1000 0
DWIDTH 8 0
BBX 6 6 1 0
BITMAP
D0
BC
BC
B4
B8
90
ENDCHAR
STARTCHAR 4F39
ENCODING 20281
SWIDTH 1000 0
DWIDTH 8 0
BBX 5 8 2 -1
BITMAP
40
B8
A8
B8
A8
B8
A8
10
ENDCHAR
STARTCHAR 4F3A
ENCODING 20282
SWIDTH 1000 0
DWIDTH 8 0
BBX 6 7 1 -1
BITMAP
40
9C
94
B4
B4
B4
9C
ENDCHAR
STARTCHAR 4F3C
ENCODING 20284
SWIDTH 1000 0
DWIDTH 8 0
BBX 7 8 1 -1
BITMAP
40
A4
A4
A4
A4
A8
D6
80
ENDCHAR
STARTCHAR 4F3D
ENCODING 20285
SWIDTH 1000 0
DWIDTH 8 0
BBX 6 6 1 0
BITMAP
20
BC
BC
BC
DC
DC
ENDCHAR
STARTCHAR 4F3E
ENCODING 20286
SWIDTH 1000 0
DWIDTH 8 0
BBX 6 8 1 -1
BITMAP
40
98
90
B8
94
90
90
28
ENDCHAR
STARTCHAR 4F43
ENCODING 20291
SWIDTH 1000 0
DWIDTH 8 0
BBX 6 8 1 -1
BITMAP
40
BC
B4
B4
BC
B4
B4
AC
ENDCHAR
STARTCHAR 4F46
ENCODING 20294
SWIDTH 1000 0
DWIDTH 8 0
BBX 6 8 1 -1
BITMAP
40
BC
A4
BC
A4
BC
80
3C
ENDCHAR
STARTCHAR 4F47
ENCODING 20295
SWIDTH 1000 0
DWIDTH 8 0
BBX 6 7 1 0
BITMAP
10
EC
80
B8
90
90
80
ENDCHAR
STARTCHAR 4F48
ENCODING 20296
SWIDTH 1000 0
DWIDTH 8 0
BBX 7 6 0 1
BITMAP
5E
58
DE
5A
5A
48
ENDCHAR
STARTCHAR 4F49
ENCODING 20297
SWIDTH 1000 0
DWIDTH 8 0
BBX 6 6 1 0
BITMAP
90
98
90
BC
A0
FC
ENDCHAR
STARTCHAR 4F4D
ENCODING 20301
SWIDTH 1000 0
DWIDTH 8 0
BBX 6 8 1 -1
BITMAP
50
90
A8
88
A8
A8
B0
0C
ENDCHAR
STARTCHAR 4F4E
ENCODING 20302
SWIDTH 1000 0
DWIDTH 8 0
BBX 7 8 1 -1
BITMAP
44
B8
A8
BC
A8
A8
D6
10
ENDCHAR
STARTCHAR 4F4F
ENCODING 20303
SWIDTH 1000 0
DWIDTH 8 0
BBX 6 8 1 -1
BITMAP
60
90
FC
90
BC
90
90
2C
ENDCHAR
ENDFONT
